%TF.GenerationSoftware,KiCad,Pcbnew,7.0.5-0*%
%TF.CreationDate,2023-06-11T17:07:23+09:00*%
%TF.ProjectId,pointingstick,706f696e-7469-46e6-9773-7469636b2e6b,rev?*%
%TF.SameCoordinates,Original*%
%TF.FileFunction,Legend,Top*%
%TF.FilePolarity,Positive*%
%FSLAX46Y46*%
G04 Gerber Fmt 4.6, Leading zero omitted, Abs format (unit mm)*
G04 Created by KiCad (PCBNEW 7.0.5-0) date 2023-06-11 17:07:23*
%MOMM*%
%LPD*%
G01*
G04 APERTURE LIST*
%ADD10C,0.100000*%
%ADD11C,0.150000*%
%ADD12C,0.250000*%
%ADD13C,0.187500*%
%ADD14C,0.120000*%
%ADD15C,0.010000*%
G04 APERTURE END LIST*
D10*
X21100000Y-61000000D02*
X50100000Y-61000000D01*
X50100000Y-90600000D01*
X21100000Y-90600000D01*
X21100000Y-61000000D01*
D11*
X26000000Y-38500000D02*
X29000000Y-38500000D01*
X29000000Y-39500000D01*
X26000000Y-39500000D01*
X26000000Y-38500000D01*
X47100000Y-60000000D02*
X40100000Y-60000000D01*
D10*
X40100000Y-20700000D02*
G75*
G03*
X40100000Y-58700000I0J-19000000D01*
G01*
X24500000Y-43600000D02*
X42100000Y-43600000D01*
X42100000Y-46800000D01*
X24500000Y-46800000D01*
X24500000Y-43600000D01*
D11*
X26000000Y-34500000D02*
X29000000Y-34500000D01*
X29000000Y-35500000D01*
X26000000Y-35500000D01*
X26000000Y-34500000D01*
X26000000Y-36500000D02*
X29000000Y-36500000D01*
X29000000Y-37500000D01*
X26000000Y-37500000D01*
X26000000Y-36500000D01*
X26000000Y-32700000D02*
X29000000Y-32700000D01*
X29000000Y-33700000D01*
X26000000Y-33700000D01*
X26000000Y-32700000D01*
D12*
G36*
X25907059Y-45529428D02*
G01*
X25763156Y-45529428D01*
X25821887Y-45265142D01*
X25965789Y-45265142D01*
X25907059Y-45529428D01*
G37*
G36*
X28333285Y-45357159D02*
G01*
X28361740Y-45385615D01*
X28396615Y-45455365D01*
X28396615Y-45682062D01*
X28361739Y-45751813D01*
X28333286Y-45780266D01*
X28263535Y-45815142D01*
X28093981Y-45815142D01*
X28024230Y-45780267D01*
X27995776Y-45751813D01*
X27960901Y-45682062D01*
X27960901Y-45455365D01*
X27995776Y-45385615D01*
X28024232Y-45357159D01*
X28093981Y-45322285D01*
X28263536Y-45322285D01*
X28333285Y-45357159D01*
G37*
G36*
X29476142Y-44900016D02*
G01*
X29504597Y-44928472D01*
X29539472Y-44998222D01*
X29539472Y-45224919D01*
X29504596Y-45294670D01*
X29476142Y-45323124D01*
X29406393Y-45358000D01*
X29236838Y-45358000D01*
X29167088Y-45323124D01*
X29138633Y-45294670D01*
X29103758Y-45224919D01*
X29103758Y-44998222D01*
X29138633Y-44928472D01*
X29167089Y-44900016D01*
X29236838Y-44865142D01*
X29406393Y-44865142D01*
X29476142Y-44900016D01*
G37*
G36*
X30660000Y-46646429D02*
G01*
X24553571Y-46646429D01*
X24553571Y-45672968D01*
X25249807Y-45672968D01*
X25280301Y-45739741D01*
X25342055Y-45779428D01*
X25451503Y-45779428D01*
X25367122Y-46159142D01*
X25370779Y-46213695D01*
X25414507Y-46272656D01*
X25483169Y-46298616D01*
X25554967Y-46283333D01*
X25607105Y-46231659D01*
X25707601Y-45779428D01*
X25851503Y-45779428D01*
X25767122Y-46159142D01*
X25770779Y-46213695D01*
X25814507Y-46272656D01*
X25883169Y-46298616D01*
X25954967Y-46283333D01*
X26007105Y-46231659D01*
X26107601Y-45779428D01*
X26253873Y-45779428D01*
X26306334Y-45764024D01*
X26354405Y-45708547D01*
X26364852Y-45635888D01*
X26334358Y-45569115D01*
X26272604Y-45529428D01*
X26163156Y-45529428D01*
X26221887Y-45265142D01*
X26368159Y-45265142D01*
X26420620Y-45249738D01*
X26468691Y-45194261D01*
X26479138Y-45121602D01*
X26463606Y-45087591D01*
X26562848Y-45087591D01*
X26585998Y-45157251D01*
X26643135Y-45203338D01*
X26716118Y-45211217D01*
X26849216Y-45144668D01*
X26869766Y-45140198D01*
X26894120Y-45115843D01*
X26910901Y-45100234D01*
X26910901Y-45815142D01*
X26675072Y-45815142D01*
X26622611Y-45830546D01*
X26574540Y-45886023D01*
X26564093Y-45958682D01*
X26594587Y-46025455D01*
X26656341Y-46065142D01*
X27026962Y-46065142D01*
X27054441Y-46069093D01*
X27063093Y-46065142D01*
X27396730Y-46065142D01*
X27449191Y-46049738D01*
X27497262Y-45994261D01*
X27507709Y-45921602D01*
X27477215Y-45854829D01*
X27415461Y-45815142D01*
X27160901Y-45815142D01*
X27160901Y-45439841D01*
X27706377Y-45439841D01*
X27710901Y-45450748D01*
X27710901Y-45704846D01*
X27707684Y-45734645D01*
X27719107Y-45757492D01*
X27726305Y-45782004D01*
X27735230Y-45789737D01*
X27774232Y-45867743D01*
X27778703Y-45888292D01*
X27803049Y-45912638D01*
X27826517Y-45937867D01*
X27828882Y-45938471D01*
X27850716Y-45960306D01*
X27861457Y-45978390D01*
X27892282Y-45993802D01*
X27922494Y-46010299D01*
X27924927Y-46010124D01*
X28002556Y-46048938D01*
X28027769Y-46065142D01*
X28053315Y-46065142D01*
X28078457Y-46069666D01*
X28089365Y-46065142D01*
X28286316Y-46065142D01*
X28316117Y-46068360D01*
X28338968Y-46056934D01*
X28363477Y-46049738D01*
X28371209Y-46040814D01*
X28449215Y-46001811D01*
X28469766Y-45997341D01*
X28494122Y-45972984D01*
X28519339Y-45949528D01*
X28519944Y-45947161D01*
X28541778Y-45925326D01*
X28559861Y-45914587D01*
X28575267Y-45883774D01*
X28591772Y-45853548D01*
X28591597Y-45851113D01*
X28630411Y-45773487D01*
X28646615Y-45748274D01*
X28646615Y-45722727D01*
X28651139Y-45697586D01*
X28646615Y-45686678D01*
X28646615Y-45432588D01*
X28649833Y-45402784D01*
X28638407Y-45379933D01*
X28631211Y-45355424D01*
X28622286Y-45347690D01*
X28583284Y-45269687D01*
X28578814Y-45249137D01*
X28554454Y-45224777D01*
X28530999Y-45199561D01*
X28528634Y-45198956D01*
X28506799Y-45177121D01*
X28496060Y-45159039D01*
X28465254Y-45143635D01*
X28435024Y-45127129D01*
X28432588Y-45127303D01*
X28354960Y-45088488D01*
X28329747Y-45072285D01*
X28304201Y-45072285D01*
X28279060Y-45067761D01*
X28268152Y-45072285D01*
X28071202Y-45072285D01*
X28041398Y-45069067D01*
X28018546Y-45080492D01*
X28007415Y-45083761D01*
X28009060Y-45077178D01*
X28072047Y-44982698D01*
X28849234Y-44982698D01*
X28853758Y-44993605D01*
X28853758Y-45247703D01*
X28850541Y-45277502D01*
X28861964Y-45300349D01*
X28869162Y-45324861D01*
X28878087Y-45332594D01*
X28917089Y-45410600D01*
X28921560Y-45431149D01*
X28945906Y-45455495D01*
X28969374Y-45480724D01*
X28971739Y-45481328D01*
X28993574Y-45503164D01*
X29004314Y-45521246D01*
X29035126Y-45536652D01*
X29065351Y-45553156D01*
X29067785Y-45552981D01*
X29145411Y-45591795D01*
X29170626Y-45608000D01*
X29196172Y-45608000D01*
X29221313Y-45612524D01*
X29232221Y-45608000D01*
X29429176Y-45608000D01*
X29458975Y-45611217D01*
X29481822Y-45599793D01*
X29492957Y-45596523D01*
X29491312Y-45603105D01*
X29395902Y-45746221D01*
X29361858Y-45780266D01*
X29292106Y-45815142D01*
X29075072Y-45815142D01*
X29022611Y-45830546D01*
X28974540Y-45886023D01*
X28964093Y-45958682D01*
X28994587Y-46025455D01*
X29056341Y-46065142D01*
X29314887Y-46065142D01*
X29344688Y-46068360D01*
X29367539Y-46056934D01*
X29392048Y-46049738D01*
X29399780Y-46040814D01*
X29477787Y-46001811D01*
X29498336Y-45997341D01*
X29522690Y-45972987D01*
X29547910Y-45949528D01*
X29548514Y-45947162D01*
X29564717Y-45930960D01*
X29576692Y-45925733D01*
X29590185Y-45905492D01*
X29594140Y-45901538D01*
X29600107Y-45890609D01*
X29703390Y-45735682D01*
X29719695Y-45720352D01*
X29727728Y-45688218D01*
X29737587Y-45656617D01*
X29736560Y-45652890D01*
X29780750Y-45476130D01*
X29789472Y-45462560D01*
X29789472Y-45441245D01*
X29790099Y-45438738D01*
X29789472Y-45423315D01*
X29789472Y-45265584D01*
X29793996Y-45240443D01*
X29789472Y-45229535D01*
X29789472Y-44975445D01*
X29792690Y-44945641D01*
X29781264Y-44922790D01*
X29774068Y-44898281D01*
X29765143Y-44890547D01*
X29726141Y-44812544D01*
X29721671Y-44791994D01*
X29697311Y-44767634D01*
X29673856Y-44742418D01*
X29671491Y-44741813D01*
X29649656Y-44719978D01*
X29638917Y-44701896D01*
X29608111Y-44686492D01*
X29577881Y-44669986D01*
X29575445Y-44670160D01*
X29497817Y-44631345D01*
X29472604Y-44615142D01*
X29447058Y-44615142D01*
X29421917Y-44610618D01*
X29411009Y-44615142D01*
X29214059Y-44615142D01*
X29184255Y-44611924D01*
X29161403Y-44623349D01*
X29136896Y-44630546D01*
X29129163Y-44639470D01*
X29051157Y-44678473D01*
X29030608Y-44682944D01*
X29006255Y-44707296D01*
X28981034Y-44730758D01*
X28980429Y-44733123D01*
X28958594Y-44754957D01*
X28940512Y-44765698D01*
X28925104Y-44796512D01*
X28908601Y-44826736D01*
X28908775Y-44829171D01*
X28869961Y-44906797D01*
X28853758Y-44932011D01*
X28853758Y-44957556D01*
X28849234Y-44982698D01*
X28072047Y-44982698D01*
X28104470Y-44934063D01*
X28138516Y-44900016D01*
X28208267Y-44865142D01*
X28425302Y-44865142D01*
X28477763Y-44849738D01*
X28525834Y-44794261D01*
X28536281Y-44721602D01*
X28505787Y-44654829D01*
X28444033Y-44615142D01*
X28185489Y-44615142D01*
X28155685Y-44611924D01*
X28132834Y-44623349D01*
X28108325Y-44630546D01*
X28100591Y-44639470D01*
X28022587Y-44678473D01*
X28002036Y-44682944D01*
X27977678Y-44707301D01*
X27952462Y-44730758D01*
X27951856Y-44733124D01*
X27935655Y-44749325D01*
X27923683Y-44754552D01*
X27910189Y-44774792D01*
X27906233Y-44778749D01*
X27900264Y-44789680D01*
X27796984Y-44944600D01*
X27780678Y-44959932D01*
X27772644Y-44992063D01*
X27762785Y-45023668D01*
X27763811Y-45027395D01*
X27719621Y-45204155D01*
X27710901Y-45217725D01*
X27710901Y-45239038D01*
X27710274Y-45241546D01*
X27710901Y-45256968D01*
X27710901Y-45414699D01*
X27706377Y-45439841D01*
X27160901Y-45439841D01*
X27160901Y-44759187D01*
X27166160Y-44742331D01*
X27160900Y-44723239D01*
X27160901Y-44722170D01*
X27156134Y-44705937D01*
X27146665Y-44671561D01*
X27145817Y-44670801D01*
X27145497Y-44669709D01*
X27118551Y-44646360D01*
X27092004Y-44622564D01*
X27090879Y-44622383D01*
X27090020Y-44621638D01*
X27054723Y-44616562D01*
X27019530Y-44610898D01*
X27018487Y-44611352D01*
X27017361Y-44611191D01*
X26984915Y-44626008D01*
X26952254Y-44640266D01*
X26951623Y-44641212D01*
X26950588Y-44641685D01*
X26931311Y-44671680D01*
X26824475Y-44831933D01*
X26733284Y-44923125D01*
X26621068Y-44979234D01*
X26581034Y-45016473D01*
X26562848Y-45087591D01*
X26463606Y-45087591D01*
X26448644Y-45054829D01*
X26386890Y-45015142D01*
X26277442Y-45015142D01*
X26361823Y-44635429D01*
X26358166Y-44580876D01*
X26314438Y-44521915D01*
X26245776Y-44495955D01*
X26173978Y-44511238D01*
X26121840Y-44562912D01*
X26021344Y-45015142D01*
X25877442Y-45015142D01*
X25961823Y-44635429D01*
X25958166Y-44580876D01*
X25914438Y-44521915D01*
X25845776Y-44495955D01*
X25773978Y-44511238D01*
X25721840Y-44562912D01*
X25621344Y-45015142D01*
X25475072Y-45015142D01*
X25422611Y-45030546D01*
X25374540Y-45086023D01*
X25364093Y-45158682D01*
X25394587Y-45225455D01*
X25456341Y-45265142D01*
X25565789Y-45265142D01*
X25507059Y-45529428D01*
X25360786Y-45529428D01*
X25308325Y-45544832D01*
X25260254Y-45600309D01*
X25249807Y-45672968D01*
X24553571Y-45672968D01*
X24553571Y-43728571D01*
X30660000Y-43728571D01*
X30660000Y-46646429D01*
G37*
D11*
X31236779Y-44859819D02*
X31236779Y-44193152D01*
X31236779Y-44383628D02*
X31284398Y-44288390D01*
X31284398Y-44288390D02*
X31332017Y-44240771D01*
X31332017Y-44240771D02*
X31427255Y-44193152D01*
X31427255Y-44193152D02*
X31522493Y-44193152D01*
X32236779Y-44812200D02*
X32141541Y-44859819D01*
X32141541Y-44859819D02*
X31951065Y-44859819D01*
X31951065Y-44859819D02*
X31855827Y-44812200D01*
X31855827Y-44812200D02*
X31808208Y-44716961D01*
X31808208Y-44716961D02*
X31808208Y-44336009D01*
X31808208Y-44336009D02*
X31855827Y-44240771D01*
X31855827Y-44240771D02*
X31951065Y-44193152D01*
X31951065Y-44193152D02*
X32141541Y-44193152D01*
X32141541Y-44193152D02*
X32236779Y-44240771D01*
X32236779Y-44240771D02*
X32284398Y-44336009D01*
X32284398Y-44336009D02*
X32284398Y-44431247D01*
X32284398Y-44431247D02*
X31808208Y-44526485D01*
X32617732Y-44193152D02*
X32855827Y-44859819D01*
X32855827Y-44859819D02*
X33093922Y-44193152D01*
X34760589Y-44859819D02*
X34189161Y-44859819D01*
X34474875Y-44859819D02*
X34474875Y-43859819D01*
X34474875Y-43859819D02*
X34379637Y-44002676D01*
X34379637Y-44002676D02*
X34284399Y-44097914D01*
X34284399Y-44097914D02*
X34189161Y-44145533D01*
X35189161Y-44764580D02*
X35236780Y-44812200D01*
X35236780Y-44812200D02*
X35189161Y-44859819D01*
X35189161Y-44859819D02*
X35141542Y-44812200D01*
X35141542Y-44812200D02*
X35189161Y-44764580D01*
X35189161Y-44764580D02*
X35189161Y-44859819D01*
X35570113Y-43859819D02*
X36189160Y-43859819D01*
X36189160Y-43859819D02*
X35855827Y-44240771D01*
X35855827Y-44240771D02*
X35998684Y-44240771D01*
X35998684Y-44240771D02*
X36093922Y-44288390D01*
X36093922Y-44288390D02*
X36141541Y-44336009D01*
X36141541Y-44336009D02*
X36189160Y-44431247D01*
X36189160Y-44431247D02*
X36189160Y-44669342D01*
X36189160Y-44669342D02*
X36141541Y-44764580D01*
X36141541Y-44764580D02*
X36093922Y-44812200D01*
X36093922Y-44812200D02*
X35998684Y-44859819D01*
X35998684Y-44859819D02*
X35712970Y-44859819D01*
X35712970Y-44859819D02*
X35617732Y-44812200D01*
X35617732Y-44812200D02*
X35570113Y-44764580D01*
X31522493Y-45469819D02*
X31522493Y-46184104D01*
X31522493Y-46184104D02*
X31474874Y-46326961D01*
X31474874Y-46326961D02*
X31379636Y-46422200D01*
X31379636Y-46422200D02*
X31236779Y-46469819D01*
X31236779Y-46469819D02*
X31141541Y-46469819D01*
X32427255Y-45803152D02*
X32427255Y-46469819D01*
X31998684Y-45803152D02*
X31998684Y-46326961D01*
X31998684Y-46326961D02*
X32046303Y-46422200D01*
X32046303Y-46422200D02*
X32141541Y-46469819D01*
X32141541Y-46469819D02*
X32284398Y-46469819D01*
X32284398Y-46469819D02*
X32379636Y-46422200D01*
X32379636Y-46422200D02*
X32427255Y-46374580D01*
X32903446Y-45803152D02*
X32903446Y-46469819D01*
X32903446Y-45898390D02*
X32951065Y-45850771D01*
X32951065Y-45850771D02*
X33046303Y-45803152D01*
X33046303Y-45803152D02*
X33189160Y-45803152D01*
X33189160Y-45803152D02*
X33284398Y-45850771D01*
X33284398Y-45850771D02*
X33332017Y-45946009D01*
X33332017Y-45946009D02*
X33332017Y-46469819D01*
X34189160Y-46422200D02*
X34093922Y-46469819D01*
X34093922Y-46469819D02*
X33903446Y-46469819D01*
X33903446Y-46469819D02*
X33808208Y-46422200D01*
X33808208Y-46422200D02*
X33760589Y-46326961D01*
X33760589Y-46326961D02*
X33760589Y-45946009D01*
X33760589Y-45946009D02*
X33808208Y-45850771D01*
X33808208Y-45850771D02*
X33903446Y-45803152D01*
X33903446Y-45803152D02*
X34093922Y-45803152D01*
X34093922Y-45803152D02*
X34189160Y-45850771D01*
X34189160Y-45850771D02*
X34236779Y-45946009D01*
X34236779Y-45946009D02*
X34236779Y-46041247D01*
X34236779Y-46041247D02*
X33760589Y-46136485D01*
X35332018Y-45469819D02*
X35951065Y-45469819D01*
X35951065Y-45469819D02*
X35617732Y-45850771D01*
X35617732Y-45850771D02*
X35760589Y-45850771D01*
X35760589Y-45850771D02*
X35855827Y-45898390D01*
X35855827Y-45898390D02*
X35903446Y-45946009D01*
X35903446Y-45946009D02*
X35951065Y-46041247D01*
X35951065Y-46041247D02*
X35951065Y-46279342D01*
X35951065Y-46279342D02*
X35903446Y-46374580D01*
X35903446Y-46374580D02*
X35855827Y-46422200D01*
X35855827Y-46422200D02*
X35760589Y-46469819D01*
X35760589Y-46469819D02*
X35474875Y-46469819D01*
X35474875Y-46469819D02*
X35379637Y-46422200D01*
X35379637Y-46422200D02*
X35332018Y-46374580D01*
X36427256Y-46422200D02*
X36427256Y-46469819D01*
X36427256Y-46469819D02*
X36379637Y-46565057D01*
X36379637Y-46565057D02*
X36332018Y-46612676D01*
X37570113Y-45565057D02*
X37617732Y-45517438D01*
X37617732Y-45517438D02*
X37712970Y-45469819D01*
X37712970Y-45469819D02*
X37951065Y-45469819D01*
X37951065Y-45469819D02*
X38046303Y-45517438D01*
X38046303Y-45517438D02*
X38093922Y-45565057D01*
X38093922Y-45565057D02*
X38141541Y-45660295D01*
X38141541Y-45660295D02*
X38141541Y-45755533D01*
X38141541Y-45755533D02*
X38093922Y-45898390D01*
X38093922Y-45898390D02*
X37522494Y-46469819D01*
X37522494Y-46469819D02*
X38141541Y-46469819D01*
X38760589Y-45469819D02*
X38855827Y-45469819D01*
X38855827Y-45469819D02*
X38951065Y-45517438D01*
X38951065Y-45517438D02*
X38998684Y-45565057D01*
X38998684Y-45565057D02*
X39046303Y-45660295D01*
X39046303Y-45660295D02*
X39093922Y-45850771D01*
X39093922Y-45850771D02*
X39093922Y-46088866D01*
X39093922Y-46088866D02*
X39046303Y-46279342D01*
X39046303Y-46279342D02*
X38998684Y-46374580D01*
X38998684Y-46374580D02*
X38951065Y-46422200D01*
X38951065Y-46422200D02*
X38855827Y-46469819D01*
X38855827Y-46469819D02*
X38760589Y-46469819D01*
X38760589Y-46469819D02*
X38665351Y-46422200D01*
X38665351Y-46422200D02*
X38617732Y-46374580D01*
X38617732Y-46374580D02*
X38570113Y-46279342D01*
X38570113Y-46279342D02*
X38522494Y-46088866D01*
X38522494Y-46088866D02*
X38522494Y-45850771D01*
X38522494Y-45850771D02*
X38570113Y-45660295D01*
X38570113Y-45660295D02*
X38617732Y-45565057D01*
X38617732Y-45565057D02*
X38665351Y-45517438D01*
X38665351Y-45517438D02*
X38760589Y-45469819D01*
X39474875Y-45565057D02*
X39522494Y-45517438D01*
X39522494Y-45517438D02*
X39617732Y-45469819D01*
X39617732Y-45469819D02*
X39855827Y-45469819D01*
X39855827Y-45469819D02*
X39951065Y-45517438D01*
X39951065Y-45517438D02*
X39998684Y-45565057D01*
X39998684Y-45565057D02*
X40046303Y-45660295D01*
X40046303Y-45660295D02*
X40046303Y-45755533D01*
X40046303Y-45755533D02*
X39998684Y-45898390D01*
X39998684Y-45898390D02*
X39427256Y-46469819D01*
X39427256Y-46469819D02*
X40046303Y-46469819D01*
X40379637Y-45469819D02*
X40998684Y-45469819D01*
X40998684Y-45469819D02*
X40665351Y-45850771D01*
X40665351Y-45850771D02*
X40808208Y-45850771D01*
X40808208Y-45850771D02*
X40903446Y-45898390D01*
X40903446Y-45898390D02*
X40951065Y-45946009D01*
X40951065Y-45946009D02*
X40998684Y-46041247D01*
X40998684Y-46041247D02*
X40998684Y-46279342D01*
X40998684Y-46279342D02*
X40951065Y-46374580D01*
X40951065Y-46374580D02*
X40903446Y-46422200D01*
X40903446Y-46422200D02*
X40808208Y-46469819D01*
X40808208Y-46469819D02*
X40522494Y-46469819D01*
X40522494Y-46469819D02*
X40427256Y-46422200D01*
X40427256Y-46422200D02*
X40379637Y-46374580D01*
X30269819Y-37363220D02*
X31079342Y-37363220D01*
X31079342Y-37363220D02*
X31174580Y-37315601D01*
X31174580Y-37315601D02*
X31222200Y-37267982D01*
X31222200Y-37267982D02*
X31269819Y-37172744D01*
X31269819Y-37172744D02*
X31269819Y-36982268D01*
X31269819Y-36982268D02*
X31222200Y-36887030D01*
X31222200Y-36887030D02*
X31174580Y-36839411D01*
X31174580Y-36839411D02*
X31079342Y-36791792D01*
X31079342Y-36791792D02*
X30269819Y-36791792D01*
X31222200Y-36363220D02*
X31269819Y-36220363D01*
X31269819Y-36220363D02*
X31269819Y-35982268D01*
X31269819Y-35982268D02*
X31222200Y-35887030D01*
X31222200Y-35887030D02*
X31174580Y-35839411D01*
X31174580Y-35839411D02*
X31079342Y-35791792D01*
X31079342Y-35791792D02*
X30984104Y-35791792D01*
X30984104Y-35791792D02*
X30888866Y-35839411D01*
X30888866Y-35839411D02*
X30841247Y-35887030D01*
X30841247Y-35887030D02*
X30793628Y-35982268D01*
X30793628Y-35982268D02*
X30746009Y-36172744D01*
X30746009Y-36172744D02*
X30698390Y-36267982D01*
X30698390Y-36267982D02*
X30650771Y-36315601D01*
X30650771Y-36315601D02*
X30555533Y-36363220D01*
X30555533Y-36363220D02*
X30460295Y-36363220D01*
X30460295Y-36363220D02*
X30365057Y-36315601D01*
X30365057Y-36315601D02*
X30317438Y-36267982D01*
X30317438Y-36267982D02*
X30269819Y-36172744D01*
X30269819Y-36172744D02*
X30269819Y-35934649D01*
X30269819Y-35934649D02*
X30317438Y-35791792D01*
X30746009Y-35029887D02*
X30793628Y-34887030D01*
X30793628Y-34887030D02*
X30841247Y-34839411D01*
X30841247Y-34839411D02*
X30936485Y-34791792D01*
X30936485Y-34791792D02*
X31079342Y-34791792D01*
X31079342Y-34791792D02*
X31174580Y-34839411D01*
X31174580Y-34839411D02*
X31222200Y-34887030D01*
X31222200Y-34887030D02*
X31269819Y-34982268D01*
X31269819Y-34982268D02*
X31269819Y-35363220D01*
X31269819Y-35363220D02*
X30269819Y-35363220D01*
X30269819Y-35363220D02*
X30269819Y-35029887D01*
X30269819Y-35029887D02*
X30317438Y-34934649D01*
X30317438Y-34934649D02*
X30365057Y-34887030D01*
X30365057Y-34887030D02*
X30460295Y-34839411D01*
X30460295Y-34839411D02*
X30555533Y-34839411D01*
X30555533Y-34839411D02*
X30650771Y-34887030D01*
X30650771Y-34887030D02*
X30698390Y-34934649D01*
X30698390Y-34934649D02*
X30746009Y-35029887D01*
X30746009Y-35029887D02*
X30746009Y-35363220D01*
D13*
X20856688Y-16964916D02*
X20856688Y-15564916D01*
X20856688Y-15564916D02*
X21390021Y-15564916D01*
X21390021Y-15564916D02*
X21523355Y-15631583D01*
X21523355Y-15631583D02*
X21590021Y-15698250D01*
X21590021Y-15698250D02*
X21656688Y-15831583D01*
X21656688Y-15831583D02*
X21656688Y-16031583D01*
X21656688Y-16031583D02*
X21590021Y-16164916D01*
X21590021Y-16164916D02*
X21523355Y-16231583D01*
X21523355Y-16231583D02*
X21390021Y-16298250D01*
X21390021Y-16298250D02*
X20856688Y-16298250D01*
X22456688Y-16964916D02*
X22323355Y-16898250D01*
X22323355Y-16898250D02*
X22256688Y-16831583D01*
X22256688Y-16831583D02*
X22190021Y-16698250D01*
X22190021Y-16698250D02*
X22190021Y-16298250D01*
X22190021Y-16298250D02*
X22256688Y-16164916D01*
X22256688Y-16164916D02*
X22323355Y-16098250D01*
X22323355Y-16098250D02*
X22456688Y-16031583D01*
X22456688Y-16031583D02*
X22656688Y-16031583D01*
X22656688Y-16031583D02*
X22790021Y-16098250D01*
X22790021Y-16098250D02*
X22856688Y-16164916D01*
X22856688Y-16164916D02*
X22923355Y-16298250D01*
X22923355Y-16298250D02*
X22923355Y-16698250D01*
X22923355Y-16698250D02*
X22856688Y-16831583D01*
X22856688Y-16831583D02*
X22790021Y-16898250D01*
X22790021Y-16898250D02*
X22656688Y-16964916D01*
X22656688Y-16964916D02*
X22456688Y-16964916D01*
X23523355Y-16964916D02*
X23523355Y-16031583D01*
X23523355Y-15564916D02*
X23456688Y-15631583D01*
X23456688Y-15631583D02*
X23523355Y-15698250D01*
X23523355Y-15698250D02*
X23590022Y-15631583D01*
X23590022Y-15631583D02*
X23523355Y-15564916D01*
X23523355Y-15564916D02*
X23523355Y-15698250D01*
X24190022Y-16031583D02*
X24190022Y-16964916D01*
X24190022Y-16164916D02*
X24256689Y-16098250D01*
X24256689Y-16098250D02*
X24390022Y-16031583D01*
X24390022Y-16031583D02*
X24590022Y-16031583D01*
X24590022Y-16031583D02*
X24723355Y-16098250D01*
X24723355Y-16098250D02*
X24790022Y-16231583D01*
X24790022Y-16231583D02*
X24790022Y-16964916D01*
X25256689Y-16031583D02*
X25790022Y-16031583D01*
X25456689Y-15564916D02*
X25456689Y-16764916D01*
X25456689Y-16764916D02*
X25523356Y-16898250D01*
X25523356Y-16898250D02*
X25656689Y-16964916D01*
X25656689Y-16964916D02*
X25790022Y-16964916D01*
X26256689Y-16964916D02*
X26256689Y-16031583D01*
X26256689Y-15564916D02*
X26190022Y-15631583D01*
X26190022Y-15631583D02*
X26256689Y-15698250D01*
X26256689Y-15698250D02*
X26323356Y-15631583D01*
X26323356Y-15631583D02*
X26256689Y-15564916D01*
X26256689Y-15564916D02*
X26256689Y-15698250D01*
X26923356Y-16031583D02*
X26923356Y-16964916D01*
X26923356Y-16164916D02*
X26990023Y-16098250D01*
X26990023Y-16098250D02*
X27123356Y-16031583D01*
X27123356Y-16031583D02*
X27323356Y-16031583D01*
X27323356Y-16031583D02*
X27456689Y-16098250D01*
X27456689Y-16098250D02*
X27523356Y-16231583D01*
X27523356Y-16231583D02*
X27523356Y-16964916D01*
X28790023Y-16031583D02*
X28790023Y-17164916D01*
X28790023Y-17164916D02*
X28723356Y-17298250D01*
X28723356Y-17298250D02*
X28656690Y-17364916D01*
X28656690Y-17364916D02*
X28523356Y-17431583D01*
X28523356Y-17431583D02*
X28323356Y-17431583D01*
X28323356Y-17431583D02*
X28190023Y-17364916D01*
X28790023Y-16898250D02*
X28656690Y-16964916D01*
X28656690Y-16964916D02*
X28390023Y-16964916D01*
X28390023Y-16964916D02*
X28256690Y-16898250D01*
X28256690Y-16898250D02*
X28190023Y-16831583D01*
X28190023Y-16831583D02*
X28123356Y-16698250D01*
X28123356Y-16698250D02*
X28123356Y-16298250D01*
X28123356Y-16298250D02*
X28190023Y-16164916D01*
X28190023Y-16164916D02*
X28256690Y-16098250D01*
X28256690Y-16098250D02*
X28390023Y-16031583D01*
X28390023Y-16031583D02*
X28656690Y-16031583D01*
X28656690Y-16031583D02*
X28790023Y-16098250D01*
X30456690Y-16898250D02*
X30590024Y-16964916D01*
X30590024Y-16964916D02*
X30856690Y-16964916D01*
X30856690Y-16964916D02*
X30990024Y-16898250D01*
X30990024Y-16898250D02*
X31056690Y-16764916D01*
X31056690Y-16764916D02*
X31056690Y-16698250D01*
X31056690Y-16698250D02*
X30990024Y-16564916D01*
X30990024Y-16564916D02*
X30856690Y-16498250D01*
X30856690Y-16498250D02*
X30656690Y-16498250D01*
X30656690Y-16498250D02*
X30523357Y-16431583D01*
X30523357Y-16431583D02*
X30456690Y-16298250D01*
X30456690Y-16298250D02*
X30456690Y-16231583D01*
X30456690Y-16231583D02*
X30523357Y-16098250D01*
X30523357Y-16098250D02*
X30656690Y-16031583D01*
X30656690Y-16031583D02*
X30856690Y-16031583D01*
X30856690Y-16031583D02*
X30990024Y-16098250D01*
X31456690Y-16031583D02*
X31990023Y-16031583D01*
X31656690Y-15564916D02*
X31656690Y-16764916D01*
X31656690Y-16764916D02*
X31723357Y-16898250D01*
X31723357Y-16898250D02*
X31856690Y-16964916D01*
X31856690Y-16964916D02*
X31990023Y-16964916D01*
X32456690Y-16964916D02*
X32456690Y-16031583D01*
X32456690Y-15564916D02*
X32390023Y-15631583D01*
X32390023Y-15631583D02*
X32456690Y-15698250D01*
X32456690Y-15698250D02*
X32523357Y-15631583D01*
X32523357Y-15631583D02*
X32456690Y-15564916D01*
X32456690Y-15564916D02*
X32456690Y-15698250D01*
X33723357Y-16898250D02*
X33590024Y-16964916D01*
X33590024Y-16964916D02*
X33323357Y-16964916D01*
X33323357Y-16964916D02*
X33190024Y-16898250D01*
X33190024Y-16898250D02*
X33123357Y-16831583D01*
X33123357Y-16831583D02*
X33056690Y-16698250D01*
X33056690Y-16698250D02*
X33056690Y-16298250D01*
X33056690Y-16298250D02*
X33123357Y-16164916D01*
X33123357Y-16164916D02*
X33190024Y-16098250D01*
X33190024Y-16098250D02*
X33323357Y-16031583D01*
X33323357Y-16031583D02*
X33590024Y-16031583D01*
X33590024Y-16031583D02*
X33723357Y-16098250D01*
X34323357Y-16964916D02*
X34323357Y-15564916D01*
X34456690Y-16431583D02*
X34856690Y-16964916D01*
X34856690Y-16031583D02*
X34323357Y-16564916D01*
X37056690Y-16898250D02*
X36923357Y-16964916D01*
X36923357Y-16964916D02*
X36656690Y-16964916D01*
X36656690Y-16964916D02*
X36523357Y-16898250D01*
X36523357Y-16898250D02*
X36456690Y-16764916D01*
X36456690Y-16764916D02*
X36456690Y-16231583D01*
X36456690Y-16231583D02*
X36523357Y-16098250D01*
X36523357Y-16098250D02*
X36656690Y-16031583D01*
X36656690Y-16031583D02*
X36923357Y-16031583D01*
X36923357Y-16031583D02*
X37056690Y-16098250D01*
X37056690Y-16098250D02*
X37123357Y-16231583D01*
X37123357Y-16231583D02*
X37123357Y-16364916D01*
X37123357Y-16364916D02*
X36456690Y-16498250D01*
X37590024Y-16964916D02*
X38323357Y-16031583D01*
X37590024Y-16031583D02*
X38323357Y-16964916D01*
X38656690Y-16031583D02*
X39190023Y-16031583D01*
X38856690Y-15564916D02*
X38856690Y-16764916D01*
X38856690Y-16764916D02*
X38923357Y-16898250D01*
X38923357Y-16898250D02*
X39056690Y-16964916D01*
X39056690Y-16964916D02*
X39190023Y-16964916D01*
X40190023Y-16898250D02*
X40056690Y-16964916D01*
X40056690Y-16964916D02*
X39790023Y-16964916D01*
X39790023Y-16964916D02*
X39656690Y-16898250D01*
X39656690Y-16898250D02*
X39590023Y-16764916D01*
X39590023Y-16764916D02*
X39590023Y-16231583D01*
X39590023Y-16231583D02*
X39656690Y-16098250D01*
X39656690Y-16098250D02*
X39790023Y-16031583D01*
X39790023Y-16031583D02*
X40056690Y-16031583D01*
X40056690Y-16031583D02*
X40190023Y-16098250D01*
X40190023Y-16098250D02*
X40256690Y-16231583D01*
X40256690Y-16231583D02*
X40256690Y-16364916D01*
X40256690Y-16364916D02*
X39590023Y-16498250D01*
X40856690Y-16031583D02*
X40856690Y-16964916D01*
X40856690Y-16164916D02*
X40923357Y-16098250D01*
X40923357Y-16098250D02*
X41056690Y-16031583D01*
X41056690Y-16031583D02*
X41256690Y-16031583D01*
X41256690Y-16031583D02*
X41390023Y-16098250D01*
X41390023Y-16098250D02*
X41456690Y-16231583D01*
X41456690Y-16231583D02*
X41456690Y-16964916D01*
X42056690Y-16898250D02*
X42190024Y-16964916D01*
X42190024Y-16964916D02*
X42456690Y-16964916D01*
X42456690Y-16964916D02*
X42590024Y-16898250D01*
X42590024Y-16898250D02*
X42656690Y-16764916D01*
X42656690Y-16764916D02*
X42656690Y-16698250D01*
X42656690Y-16698250D02*
X42590024Y-16564916D01*
X42590024Y-16564916D02*
X42456690Y-16498250D01*
X42456690Y-16498250D02*
X42256690Y-16498250D01*
X42256690Y-16498250D02*
X42123357Y-16431583D01*
X42123357Y-16431583D02*
X42056690Y-16298250D01*
X42056690Y-16298250D02*
X42056690Y-16231583D01*
X42056690Y-16231583D02*
X42123357Y-16098250D01*
X42123357Y-16098250D02*
X42256690Y-16031583D01*
X42256690Y-16031583D02*
X42456690Y-16031583D01*
X42456690Y-16031583D02*
X42590024Y-16098250D01*
X43256690Y-16964916D02*
X43256690Y-16031583D01*
X43256690Y-15564916D02*
X43190023Y-15631583D01*
X43190023Y-15631583D02*
X43256690Y-15698250D01*
X43256690Y-15698250D02*
X43323357Y-15631583D01*
X43323357Y-15631583D02*
X43256690Y-15564916D01*
X43256690Y-15564916D02*
X43256690Y-15698250D01*
X44123357Y-16964916D02*
X43990024Y-16898250D01*
X43990024Y-16898250D02*
X43923357Y-16831583D01*
X43923357Y-16831583D02*
X43856690Y-16698250D01*
X43856690Y-16698250D02*
X43856690Y-16298250D01*
X43856690Y-16298250D02*
X43923357Y-16164916D01*
X43923357Y-16164916D02*
X43990024Y-16098250D01*
X43990024Y-16098250D02*
X44123357Y-16031583D01*
X44123357Y-16031583D02*
X44323357Y-16031583D01*
X44323357Y-16031583D02*
X44456690Y-16098250D01*
X44456690Y-16098250D02*
X44523357Y-16164916D01*
X44523357Y-16164916D02*
X44590024Y-16298250D01*
X44590024Y-16298250D02*
X44590024Y-16698250D01*
X44590024Y-16698250D02*
X44523357Y-16831583D01*
X44523357Y-16831583D02*
X44456690Y-16898250D01*
X44456690Y-16898250D02*
X44323357Y-16964916D01*
X44323357Y-16964916D02*
X44123357Y-16964916D01*
X45190024Y-16031583D02*
X45190024Y-16964916D01*
X45190024Y-16164916D02*
X45256691Y-16098250D01*
X45256691Y-16098250D02*
X45390024Y-16031583D01*
X45390024Y-16031583D02*
X45590024Y-16031583D01*
X45590024Y-16031583D02*
X45723357Y-16098250D01*
X45723357Y-16098250D02*
X45790024Y-16231583D01*
X45790024Y-16231583D02*
X45790024Y-16964916D01*
X20656688Y-18285583D02*
X21190021Y-18285583D01*
X20856688Y-19218916D02*
X20856688Y-18018916D01*
X20856688Y-18018916D02*
X20923355Y-17885583D01*
X20923355Y-17885583D02*
X21056688Y-17818916D01*
X21056688Y-17818916D02*
X21190021Y-17818916D01*
X21856688Y-19218916D02*
X21723355Y-19152250D01*
X21723355Y-19152250D02*
X21656688Y-19085583D01*
X21656688Y-19085583D02*
X21590021Y-18952250D01*
X21590021Y-18952250D02*
X21590021Y-18552250D01*
X21590021Y-18552250D02*
X21656688Y-18418916D01*
X21656688Y-18418916D02*
X21723355Y-18352250D01*
X21723355Y-18352250D02*
X21856688Y-18285583D01*
X21856688Y-18285583D02*
X22056688Y-18285583D01*
X22056688Y-18285583D02*
X22190021Y-18352250D01*
X22190021Y-18352250D02*
X22256688Y-18418916D01*
X22256688Y-18418916D02*
X22323355Y-18552250D01*
X22323355Y-18552250D02*
X22323355Y-18952250D01*
X22323355Y-18952250D02*
X22256688Y-19085583D01*
X22256688Y-19085583D02*
X22190021Y-19152250D01*
X22190021Y-19152250D02*
X22056688Y-19218916D01*
X22056688Y-19218916D02*
X21856688Y-19218916D01*
X22923355Y-19218916D02*
X22923355Y-18285583D01*
X22923355Y-18552250D02*
X22990022Y-18418916D01*
X22990022Y-18418916D02*
X23056688Y-18352250D01*
X23056688Y-18352250D02*
X23190022Y-18285583D01*
X23190022Y-18285583D02*
X23323355Y-18285583D01*
X24856689Y-19218916D02*
X24856689Y-17818916D01*
X24856689Y-17818916D02*
X25390022Y-17818916D01*
X25390022Y-17818916D02*
X25523356Y-17885583D01*
X25523356Y-17885583D02*
X25590022Y-17952250D01*
X25590022Y-17952250D02*
X25656689Y-18085583D01*
X25656689Y-18085583D02*
X25656689Y-18285583D01*
X25656689Y-18285583D02*
X25590022Y-18418916D01*
X25590022Y-18418916D02*
X25523356Y-18485583D01*
X25523356Y-18485583D02*
X25390022Y-18552250D01*
X25390022Y-18552250D02*
X24856689Y-18552250D01*
X26856689Y-19218916D02*
X26856689Y-18485583D01*
X26856689Y-18485583D02*
X26790022Y-18352250D01*
X26790022Y-18352250D02*
X26656689Y-18285583D01*
X26656689Y-18285583D02*
X26390022Y-18285583D01*
X26390022Y-18285583D02*
X26256689Y-18352250D01*
X26856689Y-19152250D02*
X26723356Y-19218916D01*
X26723356Y-19218916D02*
X26390022Y-19218916D01*
X26390022Y-19218916D02*
X26256689Y-19152250D01*
X26256689Y-19152250D02*
X26190022Y-19018916D01*
X26190022Y-19018916D02*
X26190022Y-18885583D01*
X26190022Y-18885583D02*
X26256689Y-18752250D01*
X26256689Y-18752250D02*
X26390022Y-18685583D01*
X26390022Y-18685583D02*
X26723356Y-18685583D01*
X26723356Y-18685583D02*
X26856689Y-18618916D01*
X27523356Y-18285583D02*
X27523356Y-19218916D01*
X27523356Y-18418916D02*
X27590023Y-18352250D01*
X27590023Y-18352250D02*
X27723356Y-18285583D01*
X27723356Y-18285583D02*
X27923356Y-18285583D01*
X27923356Y-18285583D02*
X28056689Y-18352250D01*
X28056689Y-18352250D02*
X28123356Y-18485583D01*
X28123356Y-18485583D02*
X28123356Y-19218916D01*
X29390023Y-18285583D02*
X29390023Y-19418916D01*
X29390023Y-19418916D02*
X29323356Y-19552250D01*
X29323356Y-19552250D02*
X29256690Y-19618916D01*
X29256690Y-19618916D02*
X29123356Y-19685583D01*
X29123356Y-19685583D02*
X28923356Y-19685583D01*
X28923356Y-19685583D02*
X28790023Y-19618916D01*
X29390023Y-19152250D02*
X29256690Y-19218916D01*
X29256690Y-19218916D02*
X28990023Y-19218916D01*
X28990023Y-19218916D02*
X28856690Y-19152250D01*
X28856690Y-19152250D02*
X28790023Y-19085583D01*
X28790023Y-19085583D02*
X28723356Y-18952250D01*
X28723356Y-18952250D02*
X28723356Y-18552250D01*
X28723356Y-18552250D02*
X28790023Y-18418916D01*
X28790023Y-18418916D02*
X28856690Y-18352250D01*
X28856690Y-18352250D02*
X28990023Y-18285583D01*
X28990023Y-18285583D02*
X29256690Y-18285583D01*
X29256690Y-18285583D02*
X29390023Y-18352250D01*
X30656690Y-19218916D02*
X30656690Y-18485583D01*
X30656690Y-18485583D02*
X30590023Y-18352250D01*
X30590023Y-18352250D02*
X30456690Y-18285583D01*
X30456690Y-18285583D02*
X30190023Y-18285583D01*
X30190023Y-18285583D02*
X30056690Y-18352250D01*
X30656690Y-19152250D02*
X30523357Y-19218916D01*
X30523357Y-19218916D02*
X30190023Y-19218916D01*
X30190023Y-19218916D02*
X30056690Y-19152250D01*
X30056690Y-19152250D02*
X29990023Y-19018916D01*
X29990023Y-19018916D02*
X29990023Y-18885583D01*
X29990023Y-18885583D02*
X30056690Y-18752250D01*
X30056690Y-18752250D02*
X30190023Y-18685583D01*
X30190023Y-18685583D02*
X30523357Y-18685583D01*
X30523357Y-18685583D02*
X30656690Y-18618916D01*
X31856690Y-19152250D02*
X31723357Y-19218916D01*
X31723357Y-19218916D02*
X31456690Y-19218916D01*
X31456690Y-19218916D02*
X31323357Y-19152250D01*
X31323357Y-19152250D02*
X31256690Y-19018916D01*
X31256690Y-19018916D02*
X31256690Y-18485583D01*
X31256690Y-18485583D02*
X31323357Y-18352250D01*
X31323357Y-18352250D02*
X31456690Y-18285583D01*
X31456690Y-18285583D02*
X31723357Y-18285583D01*
X31723357Y-18285583D02*
X31856690Y-18352250D01*
X31856690Y-18352250D02*
X31923357Y-18485583D01*
X31923357Y-18485583D02*
X31923357Y-18618916D01*
X31923357Y-18618916D02*
X31256690Y-18752250D01*
X33123357Y-19218916D02*
X33123357Y-18485583D01*
X33123357Y-18485583D02*
X33056690Y-18352250D01*
X33056690Y-18352250D02*
X32923357Y-18285583D01*
X32923357Y-18285583D02*
X32656690Y-18285583D01*
X32656690Y-18285583D02*
X32523357Y-18352250D01*
X33123357Y-19152250D02*
X32990024Y-19218916D01*
X32990024Y-19218916D02*
X32656690Y-19218916D01*
X32656690Y-19218916D02*
X32523357Y-19152250D01*
X32523357Y-19152250D02*
X32456690Y-19018916D01*
X32456690Y-19018916D02*
X32456690Y-18885583D01*
X32456690Y-18885583D02*
X32523357Y-18752250D01*
X32523357Y-18752250D02*
X32656690Y-18685583D01*
X32656690Y-18685583D02*
X32990024Y-18685583D01*
X32990024Y-18685583D02*
X33123357Y-18618916D01*
X34856691Y-19218916D02*
X34856691Y-17818916D01*
X34990024Y-18685583D02*
X35390024Y-19218916D01*
X35390024Y-18285583D02*
X34856691Y-18818916D01*
X36523357Y-19152250D02*
X36390024Y-19218916D01*
X36390024Y-19218916D02*
X36123357Y-19218916D01*
X36123357Y-19218916D02*
X35990024Y-19152250D01*
X35990024Y-19152250D02*
X35923357Y-19018916D01*
X35923357Y-19018916D02*
X35923357Y-18485583D01*
X35923357Y-18485583D02*
X35990024Y-18352250D01*
X35990024Y-18352250D02*
X36123357Y-18285583D01*
X36123357Y-18285583D02*
X36390024Y-18285583D01*
X36390024Y-18285583D02*
X36523357Y-18352250D01*
X36523357Y-18352250D02*
X36590024Y-18485583D01*
X36590024Y-18485583D02*
X36590024Y-18618916D01*
X36590024Y-18618916D02*
X35923357Y-18752250D01*
X37056691Y-18285583D02*
X37390024Y-19218916D01*
X37723357Y-18285583D02*
X37390024Y-19218916D01*
X37390024Y-19218916D02*
X37256691Y-19552250D01*
X37256691Y-19552250D02*
X37190024Y-19618916D01*
X37190024Y-19618916D02*
X37056691Y-19685583D01*
X38256691Y-19218916D02*
X38256691Y-17818916D01*
X38256691Y-18352250D02*
X38390024Y-18285583D01*
X38390024Y-18285583D02*
X38656691Y-18285583D01*
X38656691Y-18285583D02*
X38790024Y-18352250D01*
X38790024Y-18352250D02*
X38856691Y-18418916D01*
X38856691Y-18418916D02*
X38923358Y-18552250D01*
X38923358Y-18552250D02*
X38923358Y-18952250D01*
X38923358Y-18952250D02*
X38856691Y-19085583D01*
X38856691Y-19085583D02*
X38790024Y-19152250D01*
X38790024Y-19152250D02*
X38656691Y-19218916D01*
X38656691Y-19218916D02*
X38390024Y-19218916D01*
X38390024Y-19218916D02*
X38256691Y-19152250D01*
X39723358Y-19218916D02*
X39590025Y-19152250D01*
X39590025Y-19152250D02*
X39523358Y-19085583D01*
X39523358Y-19085583D02*
X39456691Y-18952250D01*
X39456691Y-18952250D02*
X39456691Y-18552250D01*
X39456691Y-18552250D02*
X39523358Y-18418916D01*
X39523358Y-18418916D02*
X39590025Y-18352250D01*
X39590025Y-18352250D02*
X39723358Y-18285583D01*
X39723358Y-18285583D02*
X39923358Y-18285583D01*
X39923358Y-18285583D02*
X40056691Y-18352250D01*
X40056691Y-18352250D02*
X40123358Y-18418916D01*
X40123358Y-18418916D02*
X40190025Y-18552250D01*
X40190025Y-18552250D02*
X40190025Y-18952250D01*
X40190025Y-18952250D02*
X40123358Y-19085583D01*
X40123358Y-19085583D02*
X40056691Y-19152250D01*
X40056691Y-19152250D02*
X39923358Y-19218916D01*
X39923358Y-19218916D02*
X39723358Y-19218916D01*
X41390025Y-19218916D02*
X41390025Y-18485583D01*
X41390025Y-18485583D02*
X41323358Y-18352250D01*
X41323358Y-18352250D02*
X41190025Y-18285583D01*
X41190025Y-18285583D02*
X40923358Y-18285583D01*
X40923358Y-18285583D02*
X40790025Y-18352250D01*
X41390025Y-19152250D02*
X41256692Y-19218916D01*
X41256692Y-19218916D02*
X40923358Y-19218916D01*
X40923358Y-19218916D02*
X40790025Y-19152250D01*
X40790025Y-19152250D02*
X40723358Y-19018916D01*
X40723358Y-19018916D02*
X40723358Y-18885583D01*
X40723358Y-18885583D02*
X40790025Y-18752250D01*
X40790025Y-18752250D02*
X40923358Y-18685583D01*
X40923358Y-18685583D02*
X41256692Y-18685583D01*
X41256692Y-18685583D02*
X41390025Y-18618916D01*
X42056692Y-19218916D02*
X42056692Y-18285583D01*
X42056692Y-18552250D02*
X42123359Y-18418916D01*
X42123359Y-18418916D02*
X42190025Y-18352250D01*
X42190025Y-18352250D02*
X42323359Y-18285583D01*
X42323359Y-18285583D02*
X42456692Y-18285583D01*
X43523359Y-19218916D02*
X43523359Y-17818916D01*
X43523359Y-19152250D02*
X43390026Y-19218916D01*
X43390026Y-19218916D02*
X43123359Y-19218916D01*
X43123359Y-19218916D02*
X42990026Y-19152250D01*
X42990026Y-19152250D02*
X42923359Y-19085583D01*
X42923359Y-19085583D02*
X42856692Y-18952250D01*
X42856692Y-18952250D02*
X42856692Y-18552250D01*
X42856692Y-18552250D02*
X42923359Y-18418916D01*
X42923359Y-18418916D02*
X42990026Y-18352250D01*
X42990026Y-18352250D02*
X43123359Y-18285583D01*
X43123359Y-18285583D02*
X43390026Y-18285583D01*
X43390026Y-18285583D02*
X43523359Y-18352250D01*
X23067869Y-83938549D02*
X23877392Y-83938549D01*
X23877392Y-83938549D02*
X23972630Y-83890930D01*
X23972630Y-83890930D02*
X24020250Y-83843311D01*
X24020250Y-83843311D02*
X24067869Y-83748073D01*
X24067869Y-83748073D02*
X24067869Y-83557597D01*
X24067869Y-83557597D02*
X24020250Y-83462359D01*
X24020250Y-83462359D02*
X23972630Y-83414740D01*
X23972630Y-83414740D02*
X23877392Y-83367121D01*
X23877392Y-83367121D02*
X23067869Y-83367121D01*
X24020250Y-82938549D02*
X24067869Y-82795692D01*
X24067869Y-82795692D02*
X24067869Y-82557597D01*
X24067869Y-82557597D02*
X24020250Y-82462359D01*
X24020250Y-82462359D02*
X23972630Y-82414740D01*
X23972630Y-82414740D02*
X23877392Y-82367121D01*
X23877392Y-82367121D02*
X23782154Y-82367121D01*
X23782154Y-82367121D02*
X23686916Y-82414740D01*
X23686916Y-82414740D02*
X23639297Y-82462359D01*
X23639297Y-82462359D02*
X23591678Y-82557597D01*
X23591678Y-82557597D02*
X23544059Y-82748073D01*
X23544059Y-82748073D02*
X23496440Y-82843311D01*
X23496440Y-82843311D02*
X23448821Y-82890930D01*
X23448821Y-82890930D02*
X23353583Y-82938549D01*
X23353583Y-82938549D02*
X23258345Y-82938549D01*
X23258345Y-82938549D02*
X23163107Y-82890930D01*
X23163107Y-82890930D02*
X23115488Y-82843311D01*
X23115488Y-82843311D02*
X23067869Y-82748073D01*
X23067869Y-82748073D02*
X23067869Y-82509978D01*
X23067869Y-82509978D02*
X23115488Y-82367121D01*
X23544059Y-81605216D02*
X23591678Y-81462359D01*
X23591678Y-81462359D02*
X23639297Y-81414740D01*
X23639297Y-81414740D02*
X23734535Y-81367121D01*
X23734535Y-81367121D02*
X23877392Y-81367121D01*
X23877392Y-81367121D02*
X23972630Y-81414740D01*
X23972630Y-81414740D02*
X24020250Y-81462359D01*
X24020250Y-81462359D02*
X24067869Y-81557597D01*
X24067869Y-81557597D02*
X24067869Y-81938549D01*
X24067869Y-81938549D02*
X23067869Y-81938549D01*
X23067869Y-81938549D02*
X23067869Y-81605216D01*
X23067869Y-81605216D02*
X23115488Y-81509978D01*
X23115488Y-81509978D02*
X23163107Y-81462359D01*
X23163107Y-81462359D02*
X23258345Y-81414740D01*
X23258345Y-81414740D02*
X23353583Y-81414740D01*
X23353583Y-81414740D02*
X23448821Y-81462359D01*
X23448821Y-81462359D02*
X23496440Y-81509978D01*
X23496440Y-81509978D02*
X23544059Y-81605216D01*
X23544059Y-81605216D02*
X23544059Y-81938549D01*
X23220250Y-62886168D02*
X23267869Y-62743311D01*
X23267869Y-62743311D02*
X23267869Y-62505216D01*
X23267869Y-62505216D02*
X23220250Y-62409978D01*
X23220250Y-62409978D02*
X23172630Y-62362359D01*
X23172630Y-62362359D02*
X23077392Y-62314740D01*
X23077392Y-62314740D02*
X22982154Y-62314740D01*
X22982154Y-62314740D02*
X22886916Y-62362359D01*
X22886916Y-62362359D02*
X22839297Y-62409978D01*
X22839297Y-62409978D02*
X22791678Y-62505216D01*
X22791678Y-62505216D02*
X22744059Y-62695692D01*
X22744059Y-62695692D02*
X22696440Y-62790930D01*
X22696440Y-62790930D02*
X22648821Y-62838549D01*
X22648821Y-62838549D02*
X22553583Y-62886168D01*
X22553583Y-62886168D02*
X22458345Y-62886168D01*
X22458345Y-62886168D02*
X22363107Y-62838549D01*
X22363107Y-62838549D02*
X22315488Y-62790930D01*
X22315488Y-62790930D02*
X22267869Y-62695692D01*
X22267869Y-62695692D02*
X22267869Y-62457597D01*
X22267869Y-62457597D02*
X22315488Y-62314740D01*
X23267869Y-61886168D02*
X22267869Y-61886168D01*
X22744059Y-61886168D02*
X22744059Y-61314740D01*
X23267869Y-61314740D02*
X22267869Y-61314740D01*
X26633787Y-77833107D02*
X26519502Y-77761678D01*
X26519502Y-77761678D02*
X26348073Y-77761678D01*
X26348073Y-77761678D02*
X26176644Y-77833107D01*
X26176644Y-77833107D02*
X26062359Y-77975964D01*
X26062359Y-77975964D02*
X26005216Y-78118821D01*
X26005216Y-78118821D02*
X25948073Y-78404535D01*
X25948073Y-78404535D02*
X25948073Y-78618821D01*
X25948073Y-78618821D02*
X26005216Y-78904535D01*
X26005216Y-78904535D02*
X26062359Y-79047392D01*
X26062359Y-79047392D02*
X26176644Y-79190250D01*
X26176644Y-79190250D02*
X26348073Y-79261678D01*
X26348073Y-79261678D02*
X26462359Y-79261678D01*
X26462359Y-79261678D02*
X26633787Y-79190250D01*
X26633787Y-79190250D02*
X26690930Y-79118821D01*
X26690930Y-79118821D02*
X26690930Y-78618821D01*
X26690930Y-78618821D02*
X26462359Y-78618821D01*
X27205216Y-79261678D02*
X27205216Y-77761678D01*
X27205216Y-77761678D02*
X27890930Y-79261678D01*
X27890930Y-79261678D02*
X27890930Y-77761678D01*
X28462359Y-79261678D02*
X28462359Y-77761678D01*
X28462359Y-77761678D02*
X28748073Y-77761678D01*
X28748073Y-77761678D02*
X28919502Y-77833107D01*
X28919502Y-77833107D02*
X29033787Y-77975964D01*
X29033787Y-77975964D02*
X29090930Y-78118821D01*
X29090930Y-78118821D02*
X29148073Y-78404535D01*
X29148073Y-78404535D02*
X29148073Y-78618821D01*
X29148073Y-78618821D02*
X29090930Y-78904535D01*
X29090930Y-78904535D02*
X29033787Y-79047392D01*
X29033787Y-79047392D02*
X28919502Y-79190250D01*
X28919502Y-79190250D02*
X28748073Y-79261678D01*
X28748073Y-79261678D02*
X28462359Y-79261678D01*
X26976645Y-81676678D02*
X26976645Y-80176678D01*
X26976645Y-80176678D02*
X27262359Y-80176678D01*
X27262359Y-80176678D02*
X27433788Y-80248107D01*
X27433788Y-80248107D02*
X27548073Y-80390964D01*
X27548073Y-80390964D02*
X27605216Y-80533821D01*
X27605216Y-80533821D02*
X27662359Y-80819535D01*
X27662359Y-80819535D02*
X27662359Y-81033821D01*
X27662359Y-81033821D02*
X27605216Y-81319535D01*
X27605216Y-81319535D02*
X27548073Y-81462392D01*
X27548073Y-81462392D02*
X27433788Y-81605250D01*
X27433788Y-81605250D02*
X27262359Y-81676678D01*
X27262359Y-81676678D02*
X26976645Y-81676678D01*
X28176645Y-81105250D02*
X29090931Y-81105250D01*
X28633788Y-81676678D02*
X28633788Y-80533821D01*
X26976645Y-84091678D02*
X26976645Y-82591678D01*
X26976645Y-82591678D02*
X27262359Y-82591678D01*
X27262359Y-82591678D02*
X27433788Y-82663107D01*
X27433788Y-82663107D02*
X27548073Y-82805964D01*
X27548073Y-82805964D02*
X27605216Y-82948821D01*
X27605216Y-82948821D02*
X27662359Y-83234535D01*
X27662359Y-83234535D02*
X27662359Y-83448821D01*
X27662359Y-83448821D02*
X27605216Y-83734535D01*
X27605216Y-83734535D02*
X27548073Y-83877392D01*
X27548073Y-83877392D02*
X27433788Y-84020250D01*
X27433788Y-84020250D02*
X27262359Y-84091678D01*
X27262359Y-84091678D02*
X26976645Y-84091678D01*
X28176645Y-83520250D02*
X29090931Y-83520250D01*
X26062359Y-85006678D02*
X26462359Y-86506678D01*
X26462359Y-86506678D02*
X26862359Y-85006678D01*
X27948073Y-86363821D02*
X27890930Y-86435250D01*
X27890930Y-86435250D02*
X27719502Y-86506678D01*
X27719502Y-86506678D02*
X27605216Y-86506678D01*
X27605216Y-86506678D02*
X27433787Y-86435250D01*
X27433787Y-86435250D02*
X27319502Y-86292392D01*
X27319502Y-86292392D02*
X27262359Y-86149535D01*
X27262359Y-86149535D02*
X27205216Y-85863821D01*
X27205216Y-85863821D02*
X27205216Y-85649535D01*
X27205216Y-85649535D02*
X27262359Y-85363821D01*
X27262359Y-85363821D02*
X27319502Y-85220964D01*
X27319502Y-85220964D02*
X27433787Y-85078107D01*
X27433787Y-85078107D02*
X27605216Y-85006678D01*
X27605216Y-85006678D02*
X27719502Y-85006678D01*
X27719502Y-85006678D02*
X27890930Y-85078107D01*
X27890930Y-85078107D02*
X27948073Y-85149535D01*
X29148073Y-86363821D02*
X29090930Y-86435250D01*
X29090930Y-86435250D02*
X28919502Y-86506678D01*
X28919502Y-86506678D02*
X28805216Y-86506678D01*
X28805216Y-86506678D02*
X28633787Y-86435250D01*
X28633787Y-86435250D02*
X28519502Y-86292392D01*
X28519502Y-86292392D02*
X28462359Y-86149535D01*
X28462359Y-86149535D02*
X28405216Y-85863821D01*
X28405216Y-85863821D02*
X28405216Y-85649535D01*
X28405216Y-85649535D02*
X28462359Y-85363821D01*
X28462359Y-85363821D02*
X28519502Y-85220964D01*
X28519502Y-85220964D02*
X28633787Y-85078107D01*
X28633787Y-85078107D02*
X28805216Y-85006678D01*
X28805216Y-85006678D02*
X28919502Y-85006678D01*
X28919502Y-85006678D02*
X29090930Y-85078107D01*
X29090930Y-85078107D02*
X29148073Y-85149535D01*
X29138321Y-24780497D02*
X29138321Y-24209069D01*
X29138321Y-24209069D02*
X28424035Y-24151926D01*
X28424035Y-24151926D02*
X28495464Y-24209069D01*
X28495464Y-24209069D02*
X28566892Y-24323355D01*
X28566892Y-24323355D02*
X28566892Y-24609069D01*
X28566892Y-24609069D02*
X28495464Y-24723355D01*
X28495464Y-24723355D02*
X28424035Y-24780497D01*
X28424035Y-24780497D02*
X28281178Y-24837640D01*
X28281178Y-24837640D02*
X27924035Y-24837640D01*
X27924035Y-24837640D02*
X27781178Y-24780497D01*
X27781178Y-24780497D02*
X27709750Y-24723355D01*
X27709750Y-24723355D02*
X27638321Y-24609069D01*
X27638321Y-24609069D02*
X27638321Y-24323355D01*
X27638321Y-24323355D02*
X27709750Y-24209069D01*
X27709750Y-24209069D02*
X27781178Y-24151926D01*
X29138321Y-25180497D02*
X27638321Y-25580497D01*
X27638321Y-25580497D02*
X29138321Y-25980497D01*
X25223321Y-24209069D02*
X26723321Y-24209069D01*
X26723321Y-24209069D02*
X26723321Y-24494783D01*
X26723321Y-24494783D02*
X26651892Y-24666212D01*
X26651892Y-24666212D02*
X26509035Y-24780497D01*
X26509035Y-24780497D02*
X26366178Y-24837640D01*
X26366178Y-24837640D02*
X26080464Y-24894783D01*
X26080464Y-24894783D02*
X25866178Y-24894783D01*
X25866178Y-24894783D02*
X25580464Y-24837640D01*
X25580464Y-24837640D02*
X25437607Y-24780497D01*
X25437607Y-24780497D02*
X25294750Y-24666212D01*
X25294750Y-24666212D02*
X25223321Y-24494783D01*
X25223321Y-24494783D02*
X25223321Y-24209069D01*
X25794750Y-25409069D02*
X25794750Y-26323355D01*
X22808321Y-24209069D02*
X24308321Y-24209069D01*
X24308321Y-24209069D02*
X24308321Y-24494783D01*
X24308321Y-24494783D02*
X24236892Y-24666212D01*
X24236892Y-24666212D02*
X24094035Y-24780497D01*
X24094035Y-24780497D02*
X23951178Y-24837640D01*
X23951178Y-24837640D02*
X23665464Y-24894783D01*
X23665464Y-24894783D02*
X23451178Y-24894783D01*
X23451178Y-24894783D02*
X23165464Y-24837640D01*
X23165464Y-24837640D02*
X23022607Y-24780497D01*
X23022607Y-24780497D02*
X22879750Y-24666212D01*
X22879750Y-24666212D02*
X22808321Y-24494783D01*
X22808321Y-24494783D02*
X22808321Y-24209069D01*
X23379750Y-25409069D02*
X23379750Y-26323355D01*
X22808321Y-25866212D02*
X23951178Y-25866212D01*
X21821892Y-24837640D02*
X21893321Y-24723355D01*
X21893321Y-24723355D02*
X21893321Y-24551926D01*
X21893321Y-24551926D02*
X21821892Y-24380497D01*
X21821892Y-24380497D02*
X21679035Y-24266212D01*
X21679035Y-24266212D02*
X21536178Y-24209069D01*
X21536178Y-24209069D02*
X21250464Y-24151926D01*
X21250464Y-24151926D02*
X21036178Y-24151926D01*
X21036178Y-24151926D02*
X20750464Y-24209069D01*
X20750464Y-24209069D02*
X20607607Y-24266212D01*
X20607607Y-24266212D02*
X20464750Y-24380497D01*
X20464750Y-24380497D02*
X20393321Y-24551926D01*
X20393321Y-24551926D02*
X20393321Y-24666212D01*
X20393321Y-24666212D02*
X20464750Y-24837640D01*
X20464750Y-24837640D02*
X20536178Y-24894783D01*
X20536178Y-24894783D02*
X21036178Y-24894783D01*
X21036178Y-24894783D02*
X21036178Y-24666212D01*
X20393321Y-25409069D02*
X21893321Y-25409069D01*
X21893321Y-25409069D02*
X20393321Y-26094783D01*
X20393321Y-26094783D02*
X21893321Y-26094783D01*
X20393321Y-26666212D02*
X21893321Y-26666212D01*
X21893321Y-26666212D02*
X21893321Y-26951926D01*
X21893321Y-26951926D02*
X21821892Y-27123355D01*
X21821892Y-27123355D02*
X21679035Y-27237640D01*
X21679035Y-27237640D02*
X21536178Y-27294783D01*
X21536178Y-27294783D02*
X21250464Y-27351926D01*
X21250464Y-27351926D02*
X21036178Y-27351926D01*
X21036178Y-27351926D02*
X20750464Y-27294783D01*
X20750464Y-27294783D02*
X20607607Y-27237640D01*
X20607607Y-27237640D02*
X20464750Y-27123355D01*
X20464750Y-27123355D02*
X20393321Y-26951926D01*
X20393321Y-26951926D02*
X20393321Y-26666212D01*
D11*
%TO.C,J7*%
X31966666Y-75624819D02*
X31966666Y-76339104D01*
X31966666Y-76339104D02*
X31919047Y-76481961D01*
X31919047Y-76481961D02*
X31823809Y-76577200D01*
X31823809Y-76577200D02*
X31680952Y-76624819D01*
X31680952Y-76624819D02*
X31585714Y-76624819D01*
X32347619Y-75624819D02*
X33014285Y-75624819D01*
X33014285Y-75624819D02*
X32585714Y-76624819D01*
%TO.C,J5*%
X20266666Y-32804819D02*
X20266666Y-33519104D01*
X20266666Y-33519104D02*
X20219047Y-33661961D01*
X20219047Y-33661961D02*
X20123809Y-33757200D01*
X20123809Y-33757200D02*
X19980952Y-33804819D01*
X19980952Y-33804819D02*
X19885714Y-33804819D01*
X21219047Y-32804819D02*
X20742857Y-32804819D01*
X20742857Y-32804819D02*
X20695238Y-33281009D01*
X20695238Y-33281009D02*
X20742857Y-33233390D01*
X20742857Y-33233390D02*
X20838095Y-33185771D01*
X20838095Y-33185771D02*
X21076190Y-33185771D01*
X21076190Y-33185771D02*
X21171428Y-33233390D01*
X21171428Y-33233390D02*
X21219047Y-33281009D01*
X21219047Y-33281009D02*
X21266666Y-33376247D01*
X21266666Y-33376247D02*
X21266666Y-33614342D01*
X21266666Y-33614342D02*
X21219047Y-33709580D01*
X21219047Y-33709580D02*
X21171428Y-33757200D01*
X21171428Y-33757200D02*
X21076190Y-33804819D01*
X21076190Y-33804819D02*
X20838095Y-33804819D01*
X20838095Y-33804819D02*
X20742857Y-33757200D01*
X20742857Y-33757200D02*
X20695238Y-33709580D01*
%TO.C,J2*%
X41354819Y-38883333D02*
X42069104Y-38883333D01*
X42069104Y-38883333D02*
X42211961Y-38930952D01*
X42211961Y-38930952D02*
X42307200Y-39026190D01*
X42307200Y-39026190D02*
X42354819Y-39169047D01*
X42354819Y-39169047D02*
X42354819Y-39264285D01*
X41450057Y-38454761D02*
X41402438Y-38407142D01*
X41402438Y-38407142D02*
X41354819Y-38311904D01*
X41354819Y-38311904D02*
X41354819Y-38073809D01*
X41354819Y-38073809D02*
X41402438Y-37978571D01*
X41402438Y-37978571D02*
X41450057Y-37930952D01*
X41450057Y-37930952D02*
X41545295Y-37883333D01*
X41545295Y-37883333D02*
X41640533Y-37883333D01*
X41640533Y-37883333D02*
X41783390Y-37930952D01*
X41783390Y-37930952D02*
X42354819Y-38502380D01*
X42354819Y-38502380D02*
X42354819Y-37883333D01*
%TO.C,J6*%
X28576779Y-21929819D02*
X28576779Y-22739342D01*
X28576779Y-22739342D02*
X28624398Y-22834580D01*
X28624398Y-22834580D02*
X28672017Y-22882200D01*
X28672017Y-22882200D02*
X28767255Y-22929819D01*
X28767255Y-22929819D02*
X28957731Y-22929819D01*
X28957731Y-22929819D02*
X29052969Y-22882200D01*
X29052969Y-22882200D02*
X29100588Y-22834580D01*
X29100588Y-22834580D02*
X29148207Y-22739342D01*
X29148207Y-22739342D02*
X29148207Y-21929819D01*
X29576779Y-22882200D02*
X29719636Y-22929819D01*
X29719636Y-22929819D02*
X29957731Y-22929819D01*
X29957731Y-22929819D02*
X30052969Y-22882200D01*
X30052969Y-22882200D02*
X30100588Y-22834580D01*
X30100588Y-22834580D02*
X30148207Y-22739342D01*
X30148207Y-22739342D02*
X30148207Y-22644104D01*
X30148207Y-22644104D02*
X30100588Y-22548866D01*
X30100588Y-22548866D02*
X30052969Y-22501247D01*
X30052969Y-22501247D02*
X29957731Y-22453628D01*
X29957731Y-22453628D02*
X29767255Y-22406009D01*
X29767255Y-22406009D02*
X29672017Y-22358390D01*
X29672017Y-22358390D02*
X29624398Y-22310771D01*
X29624398Y-22310771D02*
X29576779Y-22215533D01*
X29576779Y-22215533D02*
X29576779Y-22120295D01*
X29576779Y-22120295D02*
X29624398Y-22025057D01*
X29624398Y-22025057D02*
X29672017Y-21977438D01*
X29672017Y-21977438D02*
X29767255Y-21929819D01*
X29767255Y-21929819D02*
X30005350Y-21929819D01*
X30005350Y-21929819D02*
X30148207Y-21977438D01*
X30910112Y-22406009D02*
X31052969Y-22453628D01*
X31052969Y-22453628D02*
X31100588Y-22501247D01*
X31100588Y-22501247D02*
X31148207Y-22596485D01*
X31148207Y-22596485D02*
X31148207Y-22739342D01*
X31148207Y-22739342D02*
X31100588Y-22834580D01*
X31100588Y-22834580D02*
X31052969Y-22882200D01*
X31052969Y-22882200D02*
X30957731Y-22929819D01*
X30957731Y-22929819D02*
X30576779Y-22929819D01*
X30576779Y-22929819D02*
X30576779Y-21929819D01*
X30576779Y-21929819D02*
X30910112Y-21929819D01*
X30910112Y-21929819D02*
X31005350Y-21977438D01*
X31005350Y-21977438D02*
X31052969Y-22025057D01*
X31052969Y-22025057D02*
X31100588Y-22120295D01*
X31100588Y-22120295D02*
X31100588Y-22215533D01*
X31100588Y-22215533D02*
X31052969Y-22310771D01*
X31052969Y-22310771D02*
X31005350Y-22358390D01*
X31005350Y-22358390D02*
X30910112Y-22406009D01*
X30910112Y-22406009D02*
X30576779Y-22406009D01*
X31576779Y-22548866D02*
X32338684Y-22548866D01*
X33386302Y-22834580D02*
X33338683Y-22882200D01*
X33338683Y-22882200D02*
X33195826Y-22929819D01*
X33195826Y-22929819D02*
X33100588Y-22929819D01*
X33100588Y-22929819D02*
X32957731Y-22882200D01*
X32957731Y-22882200D02*
X32862493Y-22786961D01*
X32862493Y-22786961D02*
X32814874Y-22691723D01*
X32814874Y-22691723D02*
X32767255Y-22501247D01*
X32767255Y-22501247D02*
X32767255Y-22358390D01*
X32767255Y-22358390D02*
X32814874Y-22167914D01*
X32814874Y-22167914D02*
X32862493Y-22072676D01*
X32862493Y-22072676D02*
X32957731Y-21977438D01*
X32957731Y-21977438D02*
X33100588Y-21929819D01*
X33100588Y-21929819D02*
X33195826Y-21929819D01*
X33195826Y-21929819D02*
X33338683Y-21977438D01*
X33338683Y-21977438D02*
X33386302Y-22025057D01*
X35148207Y-22929819D02*
X34814874Y-22453628D01*
X34576779Y-22929819D02*
X34576779Y-21929819D01*
X34576779Y-21929819D02*
X34957731Y-21929819D01*
X34957731Y-21929819D02*
X35052969Y-21977438D01*
X35052969Y-21977438D02*
X35100588Y-22025057D01*
X35100588Y-22025057D02*
X35148207Y-22120295D01*
X35148207Y-22120295D02*
X35148207Y-22263152D01*
X35148207Y-22263152D02*
X35100588Y-22358390D01*
X35100588Y-22358390D02*
X35052969Y-22406009D01*
X35052969Y-22406009D02*
X34957731Y-22453628D01*
X34957731Y-22453628D02*
X34576779Y-22453628D01*
X35957731Y-22882200D02*
X35862493Y-22929819D01*
X35862493Y-22929819D02*
X35672017Y-22929819D01*
X35672017Y-22929819D02*
X35576779Y-22882200D01*
X35576779Y-22882200D02*
X35529160Y-22786961D01*
X35529160Y-22786961D02*
X35529160Y-22406009D01*
X35529160Y-22406009D02*
X35576779Y-22310771D01*
X35576779Y-22310771D02*
X35672017Y-22263152D01*
X35672017Y-22263152D02*
X35862493Y-22263152D01*
X35862493Y-22263152D02*
X35957731Y-22310771D01*
X35957731Y-22310771D02*
X36005350Y-22406009D01*
X36005350Y-22406009D02*
X36005350Y-22501247D01*
X36005350Y-22501247D02*
X35529160Y-22596485D01*
X36862493Y-22882200D02*
X36767255Y-22929819D01*
X36767255Y-22929819D02*
X36576779Y-22929819D01*
X36576779Y-22929819D02*
X36481541Y-22882200D01*
X36481541Y-22882200D02*
X36433922Y-22834580D01*
X36433922Y-22834580D02*
X36386303Y-22739342D01*
X36386303Y-22739342D02*
X36386303Y-22453628D01*
X36386303Y-22453628D02*
X36433922Y-22358390D01*
X36433922Y-22358390D02*
X36481541Y-22310771D01*
X36481541Y-22310771D02*
X36576779Y-22263152D01*
X36576779Y-22263152D02*
X36767255Y-22263152D01*
X36767255Y-22263152D02*
X36862493Y-22310771D01*
X37672017Y-22882200D02*
X37576779Y-22929819D01*
X37576779Y-22929819D02*
X37386303Y-22929819D01*
X37386303Y-22929819D02*
X37291065Y-22882200D01*
X37291065Y-22882200D02*
X37243446Y-22786961D01*
X37243446Y-22786961D02*
X37243446Y-22406009D01*
X37243446Y-22406009D02*
X37291065Y-22310771D01*
X37291065Y-22310771D02*
X37386303Y-22263152D01*
X37386303Y-22263152D02*
X37576779Y-22263152D01*
X37576779Y-22263152D02*
X37672017Y-22310771D01*
X37672017Y-22310771D02*
X37719636Y-22406009D01*
X37719636Y-22406009D02*
X37719636Y-22501247D01*
X37719636Y-22501247D02*
X37243446Y-22596485D01*
X38148208Y-22263152D02*
X38148208Y-23263152D01*
X38148208Y-22310771D02*
X38243446Y-22263152D01*
X38243446Y-22263152D02*
X38433922Y-22263152D01*
X38433922Y-22263152D02*
X38529160Y-22310771D01*
X38529160Y-22310771D02*
X38576779Y-22358390D01*
X38576779Y-22358390D02*
X38624398Y-22453628D01*
X38624398Y-22453628D02*
X38624398Y-22739342D01*
X38624398Y-22739342D02*
X38576779Y-22834580D01*
X38576779Y-22834580D02*
X38529160Y-22882200D01*
X38529160Y-22882200D02*
X38433922Y-22929819D01*
X38433922Y-22929819D02*
X38243446Y-22929819D01*
X38243446Y-22929819D02*
X38148208Y-22882200D01*
X38910113Y-22263152D02*
X39291065Y-22263152D01*
X39052970Y-21929819D02*
X39052970Y-22786961D01*
X39052970Y-22786961D02*
X39100589Y-22882200D01*
X39100589Y-22882200D02*
X39195827Y-22929819D01*
X39195827Y-22929819D02*
X39291065Y-22929819D01*
X40052970Y-22929819D02*
X40052970Y-22406009D01*
X40052970Y-22406009D02*
X40005351Y-22310771D01*
X40005351Y-22310771D02*
X39910113Y-22263152D01*
X39910113Y-22263152D02*
X39719637Y-22263152D01*
X39719637Y-22263152D02*
X39624399Y-22310771D01*
X40052970Y-22882200D02*
X39957732Y-22929819D01*
X39957732Y-22929819D02*
X39719637Y-22929819D01*
X39719637Y-22929819D02*
X39624399Y-22882200D01*
X39624399Y-22882200D02*
X39576780Y-22786961D01*
X39576780Y-22786961D02*
X39576780Y-22691723D01*
X39576780Y-22691723D02*
X39624399Y-22596485D01*
X39624399Y-22596485D02*
X39719637Y-22548866D01*
X39719637Y-22548866D02*
X39957732Y-22548866D01*
X39957732Y-22548866D02*
X40052970Y-22501247D01*
X40957732Y-22882200D02*
X40862494Y-22929819D01*
X40862494Y-22929819D02*
X40672018Y-22929819D01*
X40672018Y-22929819D02*
X40576780Y-22882200D01*
X40576780Y-22882200D02*
X40529161Y-22834580D01*
X40529161Y-22834580D02*
X40481542Y-22739342D01*
X40481542Y-22739342D02*
X40481542Y-22453628D01*
X40481542Y-22453628D02*
X40529161Y-22358390D01*
X40529161Y-22358390D02*
X40576780Y-22310771D01*
X40576780Y-22310771D02*
X40672018Y-22263152D01*
X40672018Y-22263152D02*
X40862494Y-22263152D01*
X40862494Y-22263152D02*
X40957732Y-22310771D01*
X41529161Y-22929819D02*
X41433923Y-22882200D01*
X41433923Y-22882200D02*
X41386304Y-22786961D01*
X41386304Y-22786961D02*
X41386304Y-21929819D01*
X42291066Y-22882200D02*
X42195828Y-22929819D01*
X42195828Y-22929819D02*
X42005352Y-22929819D01*
X42005352Y-22929819D02*
X41910114Y-22882200D01*
X41910114Y-22882200D02*
X41862495Y-22786961D01*
X41862495Y-22786961D02*
X41862495Y-22406009D01*
X41862495Y-22406009D02*
X41910114Y-22310771D01*
X41910114Y-22310771D02*
X42005352Y-22263152D01*
X42005352Y-22263152D02*
X42195828Y-22263152D01*
X42195828Y-22263152D02*
X42291066Y-22310771D01*
X42291066Y-22310771D02*
X42338685Y-22406009D01*
X42338685Y-22406009D02*
X42338685Y-22501247D01*
X42338685Y-22501247D02*
X41862495Y-22596485D01*
%TO.C,J1*%
X34616666Y-86754819D02*
X34616666Y-87469104D01*
X34616666Y-87469104D02*
X34569047Y-87611961D01*
X34569047Y-87611961D02*
X34473809Y-87707200D01*
X34473809Y-87707200D02*
X34330952Y-87754819D01*
X34330952Y-87754819D02*
X34235714Y-87754819D01*
X35616666Y-87754819D02*
X35045238Y-87754819D01*
X35330952Y-87754819D02*
X35330952Y-86754819D01*
X35330952Y-86754819D02*
X35235714Y-86897676D01*
X35235714Y-86897676D02*
X35140476Y-86992914D01*
X35140476Y-86992914D02*
X35045238Y-87040533D01*
D14*
%TO.C,J7*%
X30970000Y-77170000D02*
X32300000Y-77170000D01*
X30970000Y-78500000D02*
X30970000Y-77170000D01*
X30970000Y-79770000D02*
X30970000Y-87450000D01*
X30970000Y-79770000D02*
X33630000Y-79770000D01*
X30970000Y-87450000D02*
X33630000Y-87450000D01*
X33630000Y-79770000D02*
X33630000Y-87450000D01*
%TO.C,J5*%
X19270000Y-34350000D02*
X20600000Y-34350000D01*
X19270000Y-35680000D02*
X19270000Y-34350000D01*
X19270000Y-36950000D02*
X19270000Y-44630000D01*
X19270000Y-36950000D02*
X21930000Y-36950000D01*
X19270000Y-44630000D02*
X21930000Y-44630000D01*
X21930000Y-36950000D02*
X21930000Y-44630000D01*
%TO.C,J2*%
X44010000Y-48660000D02*
X46660000Y-48660000D01*
X44010000Y-48660000D02*
X44010000Y-28440000D01*
X46660000Y-48660000D02*
X46660000Y-46310000D01*
X46660000Y-46310000D02*
X48050000Y-46310000D01*
X46660000Y-30750000D02*
X48050000Y-30750000D01*
X44010000Y-28440000D02*
X46660000Y-28440000D01*
X46660000Y-28440000D02*
X46660000Y-30790000D01*
%TO.C,REF\u002A\u002A*%
D15*
X38488614Y-53275877D02*
X38512327Y-53290647D01*
X38538978Y-53312227D01*
X38538978Y-53633773D01*
X38538893Y-53727830D01*
X38538529Y-53801932D01*
X38537724Y-53858704D01*
X38536313Y-53900768D01*
X38534133Y-53930748D01*
X38531021Y-53951267D01*
X38526814Y-53964949D01*
X38521348Y-53974416D01*
X38517472Y-53979082D01*
X38486034Y-53999575D01*
X38450233Y-53998739D01*
X38418873Y-53981264D01*
X38392222Y-53959684D01*
X38392222Y-53312227D01*
X38418873Y-53290647D01*
X38444594Y-53274949D01*
X38465600Y-53269067D01*
X38488614Y-53275877D01*
G36*
X38488614Y-53275877D02*
G01*
X38512327Y-53290647D01*
X38538978Y-53312227D01*
X38538978Y-53633773D01*
X38538893Y-53727830D01*
X38538529Y-53801932D01*
X38537724Y-53858704D01*
X38536313Y-53900768D01*
X38534133Y-53930748D01*
X38531021Y-53951267D01*
X38526814Y-53964949D01*
X38521348Y-53974416D01*
X38517472Y-53979082D01*
X38486034Y-53999575D01*
X38450233Y-53998739D01*
X38418873Y-53981264D01*
X38392222Y-53959684D01*
X38392222Y-53312227D01*
X38418873Y-53290647D01*
X38444594Y-53274949D01*
X38465600Y-53269067D01*
X38488614Y-53275877D01*
G37*
X31376178Y-53291645D02*
X31382758Y-53299218D01*
X31387921Y-53308987D01*
X31391836Y-53323571D01*
X31394676Y-53345585D01*
X31396613Y-53377648D01*
X31397817Y-53422375D01*
X31398461Y-53482385D01*
X31398716Y-53560294D01*
X31398755Y-53635956D01*
X31398686Y-53729802D01*
X31398362Y-53803689D01*
X31397614Y-53860232D01*
X31396268Y-53902049D01*
X31394154Y-53931757D01*
X31391100Y-53951973D01*
X31386934Y-53965314D01*
X31381484Y-53974398D01*
X31376178Y-53980267D01*
X31343174Y-53999947D01*
X31308009Y-53998181D01*
X31276545Y-53976717D01*
X31269316Y-53968337D01*
X31263666Y-53958614D01*
X31259401Y-53944861D01*
X31256327Y-53924389D01*
X31254248Y-53894512D01*
X31252970Y-53852541D01*
X31252299Y-53795789D01*
X31252041Y-53721567D01*
X31252000Y-53637537D01*
X31252000Y-53324485D01*
X31279709Y-53296776D01*
X31313863Y-53273463D01*
X31346994Y-53272623D01*
X31376178Y-53291645D01*
G36*
X31376178Y-53291645D02*
G01*
X31382758Y-53299218D01*
X31387921Y-53308987D01*
X31391836Y-53323571D01*
X31394676Y-53345585D01*
X31396613Y-53377648D01*
X31397817Y-53422375D01*
X31398461Y-53482385D01*
X31398716Y-53560294D01*
X31398755Y-53635956D01*
X31398686Y-53729802D01*
X31398362Y-53803689D01*
X31397614Y-53860232D01*
X31396268Y-53902049D01*
X31394154Y-53931757D01*
X31391100Y-53951973D01*
X31386934Y-53965314D01*
X31381484Y-53974398D01*
X31376178Y-53980267D01*
X31343174Y-53999947D01*
X31308009Y-53998181D01*
X31276545Y-53976717D01*
X31269316Y-53968337D01*
X31263666Y-53958614D01*
X31259401Y-53944861D01*
X31256327Y-53924389D01*
X31254248Y-53894512D01*
X31252970Y-53852541D01*
X31252299Y-53795789D01*
X31252041Y-53721567D01*
X31252000Y-53637537D01*
X31252000Y-53324485D01*
X31279709Y-53296776D01*
X31313863Y-53273463D01*
X31346994Y-53272623D01*
X31376178Y-53291645D01*
G37*
X32026957Y-48026571D02*
X32123232Y-48050809D01*
X32209816Y-48093641D01*
X32284627Y-48153419D01*
X32345582Y-48228494D01*
X32390601Y-48317220D01*
X32416864Y-48413530D01*
X32422714Y-48510795D01*
X32407860Y-48604654D01*
X32374160Y-48692511D01*
X32323472Y-48771770D01*
X32257655Y-48839836D01*
X32178566Y-48894112D01*
X32088066Y-48932002D01*
X32036800Y-48944426D01*
X31992302Y-48951947D01*
X31958001Y-48954919D01*
X31925040Y-48953094D01*
X31884566Y-48946225D01*
X31851469Y-48939250D01*
X31758053Y-48907741D01*
X31674381Y-48856617D01*
X31602335Y-48787429D01*
X31543800Y-48701728D01*
X31529852Y-48674489D01*
X31513414Y-48638122D01*
X31503106Y-48607582D01*
X31497540Y-48575450D01*
X31495331Y-48534307D01*
X31495052Y-48488222D01*
X31499139Y-48403865D01*
X31512554Y-48334586D01*
X31537744Y-48273961D01*
X31577154Y-48215567D01*
X31615702Y-48171302D01*
X31687594Y-48105484D01*
X31762687Y-48060053D01*
X31845438Y-48032850D01*
X31923072Y-48022576D01*
X32026957Y-48026571D01*
G36*
X32026957Y-48026571D02*
G01*
X32123232Y-48050809D01*
X32209816Y-48093641D01*
X32284627Y-48153419D01*
X32345582Y-48228494D01*
X32390601Y-48317220D01*
X32416864Y-48413530D01*
X32422714Y-48510795D01*
X32407860Y-48604654D01*
X32374160Y-48692511D01*
X32323472Y-48771770D01*
X32257655Y-48839836D01*
X32178566Y-48894112D01*
X32088066Y-48932002D01*
X32036800Y-48944426D01*
X31992302Y-48951947D01*
X31958001Y-48954919D01*
X31925040Y-48953094D01*
X31884566Y-48946225D01*
X31851469Y-48939250D01*
X31758053Y-48907741D01*
X31674381Y-48856617D01*
X31602335Y-48787429D01*
X31543800Y-48701728D01*
X31529852Y-48674489D01*
X31513414Y-48638122D01*
X31503106Y-48607582D01*
X31497540Y-48575450D01*
X31495331Y-48534307D01*
X31495052Y-48488222D01*
X31499139Y-48403865D01*
X31512554Y-48334586D01*
X31537744Y-48273961D01*
X31577154Y-48215567D01*
X31615702Y-48171302D01*
X31687594Y-48105484D01*
X31762687Y-48060053D01*
X31845438Y-48032850D01*
X31923072Y-48022576D01*
X32026957Y-48026571D01*
G37*
X39263065Y-53269163D02*
X39341772Y-53269542D01*
X39402863Y-53270333D01*
X39448817Y-53271670D01*
X39482114Y-53273683D01*
X39505236Y-53276506D01*
X39520662Y-53280269D01*
X39530871Y-53285105D01*
X39535813Y-53288822D01*
X39561457Y-53321358D01*
X39564559Y-53355138D01*
X39548711Y-53385826D01*
X39538348Y-53398089D01*
X39527196Y-53406450D01*
X39511035Y-53411657D01*
X39485642Y-53414457D01*
X39446798Y-53415596D01*
X39390280Y-53415821D01*
X39379180Y-53415822D01*
X39233244Y-53415822D01*
X39233244Y-53686756D01*
X39233148Y-53772154D01*
X39232711Y-53837864D01*
X39231712Y-53886774D01*
X39229928Y-53921773D01*
X39227137Y-53945749D01*
X39223117Y-53961593D01*
X39217645Y-53972191D01*
X39210666Y-53980267D01*
X39177734Y-54000112D01*
X39143354Y-53998548D01*
X39112176Y-53975906D01*
X39109886Y-53973100D01*
X39102429Y-53962492D01*
X39096747Y-53950081D01*
X39092601Y-53932850D01*
X39089750Y-53907784D01*
X39087954Y-53871867D01*
X39086972Y-53822083D01*
X39086564Y-53755417D01*
X39086489Y-53679589D01*
X39086489Y-53415822D01*
X38947127Y-53415822D01*
X38887322Y-53415418D01*
X38845918Y-53413840D01*
X38818748Y-53410547D01*
X38801646Y-53404992D01*
X38790443Y-53396631D01*
X38789083Y-53395178D01*
X38772725Y-53361939D01*
X38774172Y-53324362D01*
X38792978Y-53291645D01*
X38800250Y-53285298D01*
X38809627Y-53280266D01*
X38823609Y-53276396D01*
X38844696Y-53273537D01*
X38875389Y-53271535D01*
X38918189Y-53270239D01*
X38975595Y-53269498D01*
X39050110Y-53269158D01*
X39144233Y-53269068D01*
X39164260Y-53269067D01*
X39263065Y-53269163D01*
G36*
X39263065Y-53269163D02*
G01*
X39341772Y-53269542D01*
X39402863Y-53270333D01*
X39448817Y-53271670D01*
X39482114Y-53273683D01*
X39505236Y-53276506D01*
X39520662Y-53280269D01*
X39530871Y-53285105D01*
X39535813Y-53288822D01*
X39561457Y-53321358D01*
X39564559Y-53355138D01*
X39548711Y-53385826D01*
X39538348Y-53398089D01*
X39527196Y-53406450D01*
X39511035Y-53411657D01*
X39485642Y-53414457D01*
X39446798Y-53415596D01*
X39390280Y-53415821D01*
X39379180Y-53415822D01*
X39233244Y-53415822D01*
X39233244Y-53686756D01*
X39233148Y-53772154D01*
X39232711Y-53837864D01*
X39231712Y-53886774D01*
X39229928Y-53921773D01*
X39227137Y-53945749D01*
X39223117Y-53961593D01*
X39217645Y-53972191D01*
X39210666Y-53980267D01*
X39177734Y-54000112D01*
X39143354Y-53998548D01*
X39112176Y-53975906D01*
X39109886Y-53973100D01*
X39102429Y-53962492D01*
X39096747Y-53950081D01*
X39092601Y-53932850D01*
X39089750Y-53907784D01*
X39087954Y-53871867D01*
X39086972Y-53822083D01*
X39086564Y-53755417D01*
X39086489Y-53679589D01*
X39086489Y-53415822D01*
X38947127Y-53415822D01*
X38887322Y-53415418D01*
X38845918Y-53413840D01*
X38818748Y-53410547D01*
X38801646Y-53404992D01*
X38790443Y-53396631D01*
X38789083Y-53395178D01*
X38772725Y-53361939D01*
X38774172Y-53324362D01*
X38792978Y-53291645D01*
X38800250Y-53285298D01*
X38809627Y-53280266D01*
X38823609Y-53276396D01*
X38844696Y-53273537D01*
X38875389Y-53271535D01*
X38918189Y-53270239D01*
X38975595Y-53269498D01*
X39050110Y-53269158D01*
X39144233Y-53269068D01*
X39164260Y-53269067D01*
X39263065Y-53269163D01*
G37*
X40528823Y-53274533D02*
X40560202Y-53296776D01*
X40587911Y-53324485D01*
X40587911Y-53633920D01*
X40587838Y-53725799D01*
X40587495Y-53797840D01*
X40586692Y-53852780D01*
X40585241Y-53893360D01*
X40582952Y-53922317D01*
X40579636Y-53942391D01*
X40575105Y-53956321D01*
X40569169Y-53966845D01*
X40564514Y-53973100D01*
X40533783Y-53997673D01*
X40498496Y-54000341D01*
X40466245Y-53985271D01*
X40455588Y-53976374D01*
X40448464Y-53964557D01*
X40444167Y-53945526D01*
X40441991Y-53914992D01*
X40441228Y-53868662D01*
X40441155Y-53832871D01*
X40441155Y-53698045D01*
X39944444Y-53698045D01*
X39944444Y-53820700D01*
X39943931Y-53876787D01*
X39941876Y-53915333D01*
X39937508Y-53941361D01*
X39930056Y-53959897D01*
X39921047Y-53973100D01*
X39890144Y-53997604D01*
X39855196Y-54000506D01*
X39821738Y-53983089D01*
X39812604Y-53973959D01*
X39806152Y-53961855D01*
X39801897Y-53943001D01*
X39799352Y-53913620D01*
X39798029Y-53869937D01*
X39797443Y-53808175D01*
X39797375Y-53794000D01*
X39796891Y-53677631D01*
X39796641Y-53581727D01*
X39796723Y-53504177D01*
X39797231Y-53442869D01*
X39798262Y-53395690D01*
X39799913Y-53360530D01*
X39802279Y-53335276D01*
X39805457Y-53317817D01*
X39809544Y-53306041D01*
X39814634Y-53297835D01*
X39820266Y-53291645D01*
X39852128Y-53271844D01*
X39885357Y-53274533D01*
X39916735Y-53296776D01*
X39929433Y-53311126D01*
X39937526Y-53326978D01*
X39942042Y-53349554D01*
X39944006Y-53384078D01*
X39944444Y-53435776D01*
X39944444Y-53551289D01*
X40441155Y-53551289D01*
X40441155Y-53432756D01*
X40441662Y-53378148D01*
X40443698Y-53341275D01*
X40448035Y-53317307D01*
X40455447Y-53301415D01*
X40463733Y-53291645D01*
X40495594Y-53271844D01*
X40528823Y-53274533D01*
G36*
X40528823Y-53274533D02*
G01*
X40560202Y-53296776D01*
X40587911Y-53324485D01*
X40587911Y-53633920D01*
X40587838Y-53725799D01*
X40587495Y-53797840D01*
X40586692Y-53852780D01*
X40585241Y-53893360D01*
X40582952Y-53922317D01*
X40579636Y-53942391D01*
X40575105Y-53956321D01*
X40569169Y-53966845D01*
X40564514Y-53973100D01*
X40533783Y-53997673D01*
X40498496Y-54000341D01*
X40466245Y-53985271D01*
X40455588Y-53976374D01*
X40448464Y-53964557D01*
X40444167Y-53945526D01*
X40441991Y-53914992D01*
X40441228Y-53868662D01*
X40441155Y-53832871D01*
X40441155Y-53698045D01*
X39944444Y-53698045D01*
X39944444Y-53820700D01*
X39943931Y-53876787D01*
X39941876Y-53915333D01*
X39937508Y-53941361D01*
X39930056Y-53959897D01*
X39921047Y-53973100D01*
X39890144Y-53997604D01*
X39855196Y-54000506D01*
X39821738Y-53983089D01*
X39812604Y-53973959D01*
X39806152Y-53961855D01*
X39801897Y-53943001D01*
X39799352Y-53913620D01*
X39798029Y-53869937D01*
X39797443Y-53808175D01*
X39797375Y-53794000D01*
X39796891Y-53677631D01*
X39796641Y-53581727D01*
X39796723Y-53504177D01*
X39797231Y-53442869D01*
X39798262Y-53395690D01*
X39799913Y-53360530D01*
X39802279Y-53335276D01*
X39805457Y-53317817D01*
X39809544Y-53306041D01*
X39814634Y-53297835D01*
X39820266Y-53291645D01*
X39852128Y-53271844D01*
X39885357Y-53274533D01*
X39916735Y-53296776D01*
X39929433Y-53311126D01*
X39937526Y-53326978D01*
X39942042Y-53349554D01*
X39944006Y-53384078D01*
X39944444Y-53435776D01*
X39944444Y-53551289D01*
X40441155Y-53551289D01*
X40441155Y-53432756D01*
X40441662Y-53378148D01*
X40443698Y-53341275D01*
X40448035Y-53317307D01*
X40455447Y-53301415D01*
X40463733Y-53291645D01*
X40495594Y-53271844D01*
X40528823Y-53274533D01*
G37*
X35318309Y-53269275D02*
X35447288Y-53273636D01*
X35556991Y-53286861D01*
X35649226Y-53309741D01*
X35725802Y-53343070D01*
X35788527Y-53387638D01*
X35839212Y-53444236D01*
X35879663Y-53513658D01*
X35880459Y-53515351D01*
X35904601Y-53577483D01*
X35913203Y-53632509D01*
X35906231Y-53687887D01*
X35883654Y-53751073D01*
X35879372Y-53760689D01*
X35850172Y-53816966D01*
X35817356Y-53860451D01*
X35775002Y-53897417D01*
X35717190Y-53934135D01*
X35713831Y-53936052D01*
X35663504Y-53960227D01*
X35606621Y-53978282D01*
X35539527Y-53990839D01*
X35458565Y-53998522D01*
X35360082Y-54001953D01*
X35325286Y-54002251D01*
X35159594Y-54002845D01*
X35136197Y-53973100D01*
X35129257Y-53963319D01*
X35123842Y-53951897D01*
X35119765Y-53936095D01*
X35116837Y-53913175D01*
X35114867Y-53880396D01*
X35114225Y-53856089D01*
X35270844Y-53856089D01*
X35364726Y-53856089D01*
X35419664Y-53854483D01*
X35476060Y-53850255D01*
X35522345Y-53844292D01*
X35525139Y-53843790D01*
X35607348Y-53821736D01*
X35671114Y-53788600D01*
X35718452Y-53742847D01*
X35751382Y-53682939D01*
X35757108Y-53667061D01*
X35762721Y-53642333D01*
X35760291Y-53617902D01*
X35748467Y-53585400D01*
X35741340Y-53569434D01*
X35718000Y-53527006D01*
X35689880Y-53497240D01*
X35658940Y-53476511D01*
X35596966Y-53449537D01*
X35517651Y-53429998D01*
X35425253Y-53418746D01*
X35358333Y-53416270D01*
X35270844Y-53415822D01*
X35270844Y-53856089D01*
X35114225Y-53856089D01*
X35113668Y-53835021D01*
X35113050Y-53774311D01*
X35112825Y-53695526D01*
X35112800Y-53633920D01*
X35112800Y-53324485D01*
X35140509Y-53296776D01*
X35152806Y-53285544D01*
X35166103Y-53277853D01*
X35184672Y-53273040D01*
X35212786Y-53270446D01*
X35254717Y-53269410D01*
X35314737Y-53269270D01*
X35318309Y-53269275D01*
G36*
X35318309Y-53269275D02*
G01*
X35447288Y-53273636D01*
X35556991Y-53286861D01*
X35649226Y-53309741D01*
X35725802Y-53343070D01*
X35788527Y-53387638D01*
X35839212Y-53444236D01*
X35879663Y-53513658D01*
X35880459Y-53515351D01*
X35904601Y-53577483D01*
X35913203Y-53632509D01*
X35906231Y-53687887D01*
X35883654Y-53751073D01*
X35879372Y-53760689D01*
X35850172Y-53816966D01*
X35817356Y-53860451D01*
X35775002Y-53897417D01*
X35717190Y-53934135D01*
X35713831Y-53936052D01*
X35663504Y-53960227D01*
X35606621Y-53978282D01*
X35539527Y-53990839D01*
X35458565Y-53998522D01*
X35360082Y-54001953D01*
X35325286Y-54002251D01*
X35159594Y-54002845D01*
X35136197Y-53973100D01*
X35129257Y-53963319D01*
X35123842Y-53951897D01*
X35119765Y-53936095D01*
X35116837Y-53913175D01*
X35114867Y-53880396D01*
X35114225Y-53856089D01*
X35270844Y-53856089D01*
X35364726Y-53856089D01*
X35419664Y-53854483D01*
X35476060Y-53850255D01*
X35522345Y-53844292D01*
X35525139Y-53843790D01*
X35607348Y-53821736D01*
X35671114Y-53788600D01*
X35718452Y-53742847D01*
X35751382Y-53682939D01*
X35757108Y-53667061D01*
X35762721Y-53642333D01*
X35760291Y-53617902D01*
X35748467Y-53585400D01*
X35741340Y-53569434D01*
X35718000Y-53527006D01*
X35689880Y-53497240D01*
X35658940Y-53476511D01*
X35596966Y-53449537D01*
X35517651Y-53429998D01*
X35425253Y-53418746D01*
X35358333Y-53416270D01*
X35270844Y-53415822D01*
X35270844Y-53856089D01*
X35114225Y-53856089D01*
X35113668Y-53835021D01*
X35113050Y-53774311D01*
X35112825Y-53695526D01*
X35112800Y-53633920D01*
X35112800Y-53324485D01*
X35140509Y-53296776D01*
X35152806Y-53285544D01*
X35166103Y-53277853D01*
X35184672Y-53273040D01*
X35212786Y-53270446D01*
X35254717Y-53269410D01*
X35314737Y-53269270D01*
X35318309Y-53269275D01*
G37*
X28178629Y-53269066D02*
X28218111Y-53269467D01*
X28333800Y-53272259D01*
X28430689Y-53280550D01*
X28512081Y-53295232D01*
X28581277Y-53317193D01*
X28641580Y-53347322D01*
X28696292Y-53386510D01*
X28715833Y-53403532D01*
X28748250Y-53443363D01*
X28777480Y-53497413D01*
X28800009Y-53557323D01*
X28812321Y-53614739D01*
X28813600Y-53635956D01*
X28805583Y-53694769D01*
X28784101Y-53759013D01*
X28753001Y-53819821D01*
X28716134Y-53868330D01*
X28710146Y-53874182D01*
X28659421Y-53915321D01*
X28603875Y-53947435D01*
X28540304Y-53971365D01*
X28465506Y-53987953D01*
X28376278Y-53998041D01*
X28269418Y-54002469D01*
X28220472Y-54002845D01*
X28158238Y-54002545D01*
X28114472Y-54001292D01*
X28085069Y-53998554D01*
X28065921Y-53993801D01*
X28052923Y-53986501D01*
X28045955Y-53980267D01*
X28039374Y-53972694D01*
X28034212Y-53962924D01*
X28030297Y-53948340D01*
X28027457Y-53926326D01*
X28025520Y-53894264D01*
X28024316Y-53849536D01*
X28023672Y-53789526D01*
X28023417Y-53711617D01*
X28023378Y-53635956D01*
X28023130Y-53535041D01*
X28023183Y-53454427D01*
X28024143Y-53415822D01*
X28170133Y-53415822D01*
X28170133Y-53856089D01*
X28263266Y-53856004D01*
X28319307Y-53854396D01*
X28378001Y-53850256D01*
X28426972Y-53844464D01*
X28428462Y-53844226D01*
X28507608Y-53825090D01*
X28568998Y-53795287D01*
X28615695Y-53752878D01*
X28645365Y-53706961D01*
X28663647Y-53656026D01*
X28662229Y-53608200D01*
X28641012Y-53556933D01*
X28599511Y-53503899D01*
X28542002Y-53464600D01*
X28467250Y-53438331D01*
X28417292Y-53429035D01*
X28360584Y-53422507D01*
X28300481Y-53417782D01*
X28249361Y-53415817D01*
X28246333Y-53415808D01*
X28170133Y-53415822D01*
X28024143Y-53415822D01*
X28024740Y-53391851D01*
X28029002Y-53345055D01*
X28037170Y-53311778D01*
X28050444Y-53289759D01*
X28070026Y-53276739D01*
X28097117Y-53270457D01*
X28132918Y-53268653D01*
X28178629Y-53269066D01*
G36*
X28178629Y-53269066D02*
G01*
X28218111Y-53269467D01*
X28333800Y-53272259D01*
X28430689Y-53280550D01*
X28512081Y-53295232D01*
X28581277Y-53317193D01*
X28641580Y-53347322D01*
X28696292Y-53386510D01*
X28715833Y-53403532D01*
X28748250Y-53443363D01*
X28777480Y-53497413D01*
X28800009Y-53557323D01*
X28812321Y-53614739D01*
X28813600Y-53635956D01*
X28805583Y-53694769D01*
X28784101Y-53759013D01*
X28753001Y-53819821D01*
X28716134Y-53868330D01*
X28710146Y-53874182D01*
X28659421Y-53915321D01*
X28603875Y-53947435D01*
X28540304Y-53971365D01*
X28465506Y-53987953D01*
X28376278Y-53998041D01*
X28269418Y-54002469D01*
X28220472Y-54002845D01*
X28158238Y-54002545D01*
X28114472Y-54001292D01*
X28085069Y-53998554D01*
X28065921Y-53993801D01*
X28052923Y-53986501D01*
X28045955Y-53980267D01*
X28039374Y-53972694D01*
X28034212Y-53962924D01*
X28030297Y-53948340D01*
X28027457Y-53926326D01*
X28025520Y-53894264D01*
X28024316Y-53849536D01*
X28023672Y-53789526D01*
X28023417Y-53711617D01*
X28023378Y-53635956D01*
X28023130Y-53535041D01*
X28023183Y-53454427D01*
X28024143Y-53415822D01*
X28170133Y-53415822D01*
X28170133Y-53856089D01*
X28263266Y-53856004D01*
X28319307Y-53854396D01*
X28378001Y-53850256D01*
X28426972Y-53844464D01*
X28428462Y-53844226D01*
X28507608Y-53825090D01*
X28568998Y-53795287D01*
X28615695Y-53752878D01*
X28645365Y-53706961D01*
X28663647Y-53656026D01*
X28662229Y-53608200D01*
X28641012Y-53556933D01*
X28599511Y-53503899D01*
X28542002Y-53464600D01*
X28467250Y-53438331D01*
X28417292Y-53429035D01*
X28360584Y-53422507D01*
X28300481Y-53417782D01*
X28249361Y-53415817D01*
X28246333Y-53415808D01*
X28170133Y-53415822D01*
X28024143Y-53415822D01*
X28024740Y-53391851D01*
X28029002Y-53345055D01*
X28037170Y-53311778D01*
X28050444Y-53289759D01*
X28070026Y-53276739D01*
X28097117Y-53270457D01*
X28132918Y-53268653D01*
X28178629Y-53269066D01*
G37*
X32999886Y-53273448D02*
X33023452Y-53287273D01*
X33054265Y-53309881D01*
X33093922Y-53342338D01*
X33144020Y-53385708D01*
X33206157Y-53441058D01*
X33281928Y-53509451D01*
X33368666Y-53588084D01*
X33549289Y-53751878D01*
X33554933Y-53532029D01*
X33556971Y-53456351D01*
X33558937Y-53399994D01*
X33561266Y-53359706D01*
X33564394Y-53332235D01*
X33568755Y-53314329D01*
X33574784Y-53302737D01*
X33582916Y-53294208D01*
X33587228Y-53290623D01*
X33621759Y-53271670D01*
X33654617Y-53274441D01*
X33680682Y-53290633D01*
X33707333Y-53312199D01*
X33710648Y-53627151D01*
X33711565Y-53719779D01*
X33712032Y-53792544D01*
X33711887Y-53848161D01*
X33710968Y-53889342D01*
X33709113Y-53918803D01*
X33706161Y-53939255D01*
X33701950Y-53953413D01*
X33696318Y-53963991D01*
X33690073Y-53972474D01*
X33676561Y-53988207D01*
X33663117Y-53998636D01*
X33647876Y-54002639D01*
X33628974Y-53999094D01*
X33604545Y-53986879D01*
X33572727Y-53964871D01*
X33531652Y-53931949D01*
X33479458Y-53886991D01*
X33414278Y-53828875D01*
X33340444Y-53762099D01*
X33075155Y-53521458D01*
X33069511Y-53740589D01*
X33067469Y-53816128D01*
X33065498Y-53872354D01*
X33063161Y-53912524D01*
X33060019Y-53939896D01*
X33055636Y-53957728D01*
X33049576Y-53969279D01*
X33041400Y-53977807D01*
X33037216Y-53981282D01*
X33000235Y-54000372D01*
X32965292Y-53997493D01*
X32934864Y-53973100D01*
X32927903Y-53963286D01*
X32922477Y-53951826D01*
X32918397Y-53935968D01*
X32915471Y-53912963D01*
X32913508Y-53880062D01*
X32912317Y-53834516D01*
X32911708Y-53773573D01*
X32911489Y-53694486D01*
X32911466Y-53635956D01*
X32911540Y-53544407D01*
X32911887Y-53472687D01*
X32912699Y-53418045D01*
X32914167Y-53377732D01*
X32916481Y-53348998D01*
X32919833Y-53329093D01*
X32924412Y-53315268D01*
X32930411Y-53304772D01*
X32934864Y-53298811D01*
X32946150Y-53284691D01*
X32956699Y-53274029D01*
X32968107Y-53267892D01*
X32981970Y-53267343D01*
X32999886Y-53273448D01*
G36*
X32999886Y-53273448D02*
G01*
X33023452Y-53287273D01*
X33054265Y-53309881D01*
X33093922Y-53342338D01*
X33144020Y-53385708D01*
X33206157Y-53441058D01*
X33281928Y-53509451D01*
X33368666Y-53588084D01*
X33549289Y-53751878D01*
X33554933Y-53532029D01*
X33556971Y-53456351D01*
X33558937Y-53399994D01*
X33561266Y-53359706D01*
X33564394Y-53332235D01*
X33568755Y-53314329D01*
X33574784Y-53302737D01*
X33582916Y-53294208D01*
X33587228Y-53290623D01*
X33621759Y-53271670D01*
X33654617Y-53274441D01*
X33680682Y-53290633D01*
X33707333Y-53312199D01*
X33710648Y-53627151D01*
X33711565Y-53719779D01*
X33712032Y-53792544D01*
X33711887Y-53848161D01*
X33710968Y-53889342D01*
X33709113Y-53918803D01*
X33706161Y-53939255D01*
X33701950Y-53953413D01*
X33696318Y-53963991D01*
X33690073Y-53972474D01*
X33676561Y-53988207D01*
X33663117Y-53998636D01*
X33647876Y-54002639D01*
X33628974Y-53999094D01*
X33604545Y-53986879D01*
X33572727Y-53964871D01*
X33531652Y-53931949D01*
X33479458Y-53886991D01*
X33414278Y-53828875D01*
X33340444Y-53762099D01*
X33075155Y-53521458D01*
X33069511Y-53740589D01*
X33067469Y-53816128D01*
X33065498Y-53872354D01*
X33063161Y-53912524D01*
X33060019Y-53939896D01*
X33055636Y-53957728D01*
X33049576Y-53969279D01*
X33041400Y-53977807D01*
X33037216Y-53981282D01*
X33000235Y-54000372D01*
X32965292Y-53997493D01*
X32934864Y-53973100D01*
X32927903Y-53963286D01*
X32922477Y-53951826D01*
X32918397Y-53935968D01*
X32915471Y-53912963D01*
X32913508Y-53880062D01*
X32912317Y-53834516D01*
X32911708Y-53773573D01*
X32911489Y-53694486D01*
X32911466Y-53635956D01*
X32911540Y-53544407D01*
X32911887Y-53472687D01*
X32912699Y-53418045D01*
X32914167Y-53377732D01*
X32916481Y-53348998D01*
X32919833Y-53329093D01*
X32924412Y-53315268D01*
X32930411Y-53304772D01*
X32934864Y-53298811D01*
X32946150Y-53284691D01*
X32956699Y-53274029D01*
X32968107Y-53267892D01*
X32981970Y-53267343D01*
X32999886Y-53273448D01*
G37*
X32349919Y-53274599D02*
X32418435Y-53286095D01*
X32471057Y-53303967D01*
X32505292Y-53327499D01*
X32514621Y-53340924D01*
X32524107Y-53372148D01*
X32517723Y-53400395D01*
X32497570Y-53427182D01*
X32466255Y-53439713D01*
X32420817Y-53438696D01*
X32385674Y-53431906D01*
X32307581Y-53418971D01*
X32227774Y-53417742D01*
X32138445Y-53428241D01*
X32113771Y-53432690D01*
X32030709Y-53456108D01*
X31965727Y-53490945D01*
X31919539Y-53536604D01*
X31892855Y-53592494D01*
X31887337Y-53621388D01*
X31890949Y-53680012D01*
X31914271Y-53731879D01*
X31955176Y-53775978D01*
X32011541Y-53811299D01*
X32081240Y-53836829D01*
X32162148Y-53851559D01*
X32252140Y-53854478D01*
X32349090Y-53844575D01*
X32354564Y-53843641D01*
X32393125Y-53836459D01*
X32414506Y-53829521D01*
X32423773Y-53819227D01*
X32425994Y-53801976D01*
X32426044Y-53792841D01*
X32426044Y-53754489D01*
X32357569Y-53754489D01*
X32297100Y-53750347D01*
X32255835Y-53737147D01*
X32231825Y-53713730D01*
X32223123Y-53678936D01*
X32223017Y-53674394D01*
X32228108Y-53644654D01*
X32245567Y-53623419D01*
X32278061Y-53609366D01*
X32328257Y-53601173D01*
X32376877Y-53598161D01*
X32447544Y-53596433D01*
X32498802Y-53599070D01*
X32533761Y-53608800D01*
X32555530Y-53628353D01*
X32567220Y-53660456D01*
X32571940Y-53707838D01*
X32572800Y-53770071D01*
X32571391Y-53839535D01*
X32567152Y-53886786D01*
X32560064Y-53912012D01*
X32558689Y-53913988D01*
X32519772Y-53945508D01*
X32462714Y-53970470D01*
X32391131Y-53988340D01*
X32308642Y-53998586D01*
X32218861Y-54000673D01*
X32125408Y-53994068D01*
X32070444Y-53985956D01*
X31984234Y-53961554D01*
X31904108Y-53921662D01*
X31837023Y-53869887D01*
X31826827Y-53859539D01*
X31793698Y-53816035D01*
X31763806Y-53762118D01*
X31740643Y-53705592D01*
X31727702Y-53654259D01*
X31726142Y-53634544D01*
X31732782Y-53593419D01*
X31750432Y-53542252D01*
X31775703Y-53488394D01*
X31805211Y-53439195D01*
X31831281Y-53406334D01*
X31892235Y-53357452D01*
X31971031Y-53318545D01*
X32064843Y-53290494D01*
X32170850Y-53274179D01*
X32268000Y-53270192D01*
X32349919Y-53274599D01*
G36*
X32349919Y-53274599D02*
G01*
X32418435Y-53286095D01*
X32471057Y-53303967D01*
X32505292Y-53327499D01*
X32514621Y-53340924D01*
X32524107Y-53372148D01*
X32517723Y-53400395D01*
X32497570Y-53427182D01*
X32466255Y-53439713D01*
X32420817Y-53438696D01*
X32385674Y-53431906D01*
X32307581Y-53418971D01*
X32227774Y-53417742D01*
X32138445Y-53428241D01*
X32113771Y-53432690D01*
X32030709Y-53456108D01*
X31965727Y-53490945D01*
X31919539Y-53536604D01*
X31892855Y-53592494D01*
X31887337Y-53621388D01*
X31890949Y-53680012D01*
X31914271Y-53731879D01*
X31955176Y-53775978D01*
X32011541Y-53811299D01*
X32081240Y-53836829D01*
X32162148Y-53851559D01*
X32252140Y-53854478D01*
X32349090Y-53844575D01*
X32354564Y-53843641D01*
X32393125Y-53836459D01*
X32414506Y-53829521D01*
X32423773Y-53819227D01*
X32425994Y-53801976D01*
X32426044Y-53792841D01*
X32426044Y-53754489D01*
X32357569Y-53754489D01*
X32297100Y-53750347D01*
X32255835Y-53737147D01*
X32231825Y-53713730D01*
X32223123Y-53678936D01*
X32223017Y-53674394D01*
X32228108Y-53644654D01*
X32245567Y-53623419D01*
X32278061Y-53609366D01*
X32328257Y-53601173D01*
X32376877Y-53598161D01*
X32447544Y-53596433D01*
X32498802Y-53599070D01*
X32533761Y-53608800D01*
X32555530Y-53628353D01*
X32567220Y-53660456D01*
X32571940Y-53707838D01*
X32572800Y-53770071D01*
X32571391Y-53839535D01*
X32567152Y-53886786D01*
X32560064Y-53912012D01*
X32558689Y-53913988D01*
X32519772Y-53945508D01*
X32462714Y-53970470D01*
X32391131Y-53988340D01*
X32308642Y-53998586D01*
X32218861Y-54000673D01*
X32125408Y-53994068D01*
X32070444Y-53985956D01*
X31984234Y-53961554D01*
X31904108Y-53921662D01*
X31837023Y-53869887D01*
X31826827Y-53859539D01*
X31793698Y-53816035D01*
X31763806Y-53762118D01*
X31740643Y-53705592D01*
X31727702Y-53654259D01*
X31726142Y-53634544D01*
X31732782Y-53593419D01*
X31750432Y-53542252D01*
X31775703Y-53488394D01*
X31805211Y-53439195D01*
X31831281Y-53406334D01*
X31892235Y-53357452D01*
X31971031Y-53318545D01*
X32064843Y-53290494D01*
X32170850Y-53274179D01*
X32268000Y-53270192D01*
X32349919Y-53274599D01*
G37*
X34530343Y-53269260D02*
X34606701Y-53270174D01*
X34665217Y-53272311D01*
X34708255Y-53276175D01*
X34738183Y-53282267D01*
X34757368Y-53291090D01*
X34768176Y-53303146D01*
X34772973Y-53318939D01*
X34774127Y-53338970D01*
X34774133Y-53341335D01*
X34773131Y-53363992D01*
X34768396Y-53381503D01*
X34757333Y-53394574D01*
X34737348Y-53403913D01*
X34705846Y-53410227D01*
X34660232Y-53414222D01*
X34597913Y-53416606D01*
X34516293Y-53418086D01*
X34491277Y-53418414D01*
X34249200Y-53421467D01*
X34245814Y-53486378D01*
X34242429Y-53551289D01*
X34410576Y-53551289D01*
X34476266Y-53551531D01*
X34523172Y-53552556D01*
X34555083Y-53554811D01*
X34575791Y-53558742D01*
X34589084Y-53564798D01*
X34598755Y-53573424D01*
X34598817Y-53573493D01*
X34616356Y-53607112D01*
X34615722Y-53643448D01*
X34597314Y-53674423D01*
X34593671Y-53677607D01*
X34580741Y-53685812D01*
X34563024Y-53691521D01*
X34536570Y-53695162D01*
X34497432Y-53697167D01*
X34441662Y-53697964D01*
X34405994Y-53698045D01*
X34243555Y-53698045D01*
X34243555Y-53856089D01*
X34490161Y-53856089D01*
X34571580Y-53856231D01*
X34633410Y-53856814D01*
X34678637Y-53858068D01*
X34710248Y-53860227D01*
X34731231Y-53863523D01*
X34744573Y-53868189D01*
X34753261Y-53874457D01*
X34755450Y-53876733D01*
X34771614Y-53908280D01*
X34772797Y-53944168D01*
X34759536Y-53975285D01*
X34749043Y-53985271D01*
X34738129Y-53990769D01*
X34721217Y-53995022D01*
X34695633Y-53998180D01*
X34658701Y-54000392D01*
X34607746Y-54001806D01*
X34540094Y-54002572D01*
X34453069Y-54002838D01*
X34433394Y-54002845D01*
X34344911Y-54002787D01*
X34276227Y-54002467D01*
X34224564Y-54001667D01*
X34187145Y-54000167D01*
X34161190Y-53997749D01*
X34143922Y-53994194D01*
X34132562Y-53989282D01*
X34124332Y-53982795D01*
X34119817Y-53978138D01*
X34113021Y-53969889D01*
X34107712Y-53959669D01*
X34103706Y-53944800D01*
X34100821Y-53922602D01*
X34098874Y-53890393D01*
X34097681Y-53845496D01*
X34097061Y-53785228D01*
X34096829Y-53706911D01*
X34096800Y-53640994D01*
X34096871Y-53548628D01*
X34097208Y-53476117D01*
X34097998Y-53420737D01*
X34099426Y-53379765D01*
X34101679Y-53350478D01*
X34104943Y-53330153D01*
X34109404Y-53316066D01*
X34115248Y-53305495D01*
X34120197Y-53298811D01*
X34143594Y-53269067D01*
X34433774Y-53269067D01*
X34530343Y-53269260D01*
G36*
X34530343Y-53269260D02*
G01*
X34606701Y-53270174D01*
X34665217Y-53272311D01*
X34708255Y-53276175D01*
X34738183Y-53282267D01*
X34757368Y-53291090D01*
X34768176Y-53303146D01*
X34772973Y-53318939D01*
X34774127Y-53338970D01*
X34774133Y-53341335D01*
X34773131Y-53363992D01*
X34768396Y-53381503D01*
X34757333Y-53394574D01*
X34737348Y-53403913D01*
X34705846Y-53410227D01*
X34660232Y-53414222D01*
X34597913Y-53416606D01*
X34516293Y-53418086D01*
X34491277Y-53418414D01*
X34249200Y-53421467D01*
X34245814Y-53486378D01*
X34242429Y-53551289D01*
X34410576Y-53551289D01*
X34476266Y-53551531D01*
X34523172Y-53552556D01*
X34555083Y-53554811D01*
X34575791Y-53558742D01*
X34589084Y-53564798D01*
X34598755Y-53573424D01*
X34598817Y-53573493D01*
X34616356Y-53607112D01*
X34615722Y-53643448D01*
X34597314Y-53674423D01*
X34593671Y-53677607D01*
X34580741Y-53685812D01*
X34563024Y-53691521D01*
X34536570Y-53695162D01*
X34497432Y-53697167D01*
X34441662Y-53697964D01*
X34405994Y-53698045D01*
X34243555Y-53698045D01*
X34243555Y-53856089D01*
X34490161Y-53856089D01*
X34571580Y-53856231D01*
X34633410Y-53856814D01*
X34678637Y-53858068D01*
X34710248Y-53860227D01*
X34731231Y-53863523D01*
X34744573Y-53868189D01*
X34753261Y-53874457D01*
X34755450Y-53876733D01*
X34771614Y-53908280D01*
X34772797Y-53944168D01*
X34759536Y-53975285D01*
X34749043Y-53985271D01*
X34738129Y-53990769D01*
X34721217Y-53995022D01*
X34695633Y-53998180D01*
X34658701Y-54000392D01*
X34607746Y-54001806D01*
X34540094Y-54002572D01*
X34453069Y-54002838D01*
X34433394Y-54002845D01*
X34344911Y-54002787D01*
X34276227Y-54002467D01*
X34224564Y-54001667D01*
X34187145Y-54000167D01*
X34161190Y-53997749D01*
X34143922Y-53994194D01*
X34132562Y-53989282D01*
X34124332Y-53982795D01*
X34119817Y-53978138D01*
X34113021Y-53969889D01*
X34107712Y-53959669D01*
X34103706Y-53944800D01*
X34100821Y-53922602D01*
X34098874Y-53890393D01*
X34097681Y-53845496D01*
X34097061Y-53785228D01*
X34096829Y-53706911D01*
X34096800Y-53640994D01*
X34096871Y-53548628D01*
X34097208Y-53476117D01*
X34097998Y-53420737D01*
X34099426Y-53379765D01*
X34101679Y-53350478D01*
X34104943Y-53330153D01*
X34109404Y-53316066D01*
X34115248Y-53305495D01*
X34120197Y-53298811D01*
X34143594Y-53269067D01*
X34433774Y-53269067D01*
X34530343Y-53269260D01*
G37*
X29587206Y-53269146D02*
X29656614Y-53269518D01*
X29709003Y-53270385D01*
X29747153Y-53271946D01*
X29773841Y-53274403D01*
X29791847Y-53277957D01*
X29803951Y-53282810D01*
X29812931Y-53289161D01*
X29816182Y-53292084D01*
X29835957Y-53323142D01*
X29839518Y-53358828D01*
X29826509Y-53390510D01*
X29820494Y-53396913D01*
X29810765Y-53403121D01*
X29795099Y-53407910D01*
X29770592Y-53411514D01*
X29734339Y-53414164D01*
X29683435Y-53416095D01*
X29614974Y-53417539D01*
X29552383Y-53418418D01*
X29304666Y-53421467D01*
X29301281Y-53486378D01*
X29297895Y-53551289D01*
X29466042Y-53551289D01*
X29539041Y-53551919D01*
X29592483Y-53554553D01*
X29629372Y-53560309D01*
X29652712Y-53570304D01*
X29665506Y-53585656D01*
X29670758Y-53607482D01*
X29671555Y-53627738D01*
X29669077Y-53652592D01*
X29659723Y-53670906D01*
X29640617Y-53683637D01*
X29608882Y-53691741D01*
X29561641Y-53696176D01*
X29496017Y-53697899D01*
X29460199Y-53698045D01*
X29299022Y-53698045D01*
X29299022Y-53856089D01*
X29547378Y-53856089D01*
X29628787Y-53856202D01*
X29690658Y-53856712D01*
X29736032Y-53857870D01*
X29767946Y-53859930D01*
X29789441Y-53863146D01*
X29803557Y-53867772D01*
X29813332Y-53874059D01*
X29818311Y-53878667D01*
X29835390Y-53905560D01*
X29840889Y-53929467D01*
X29833037Y-53958667D01*
X29818311Y-53980267D01*
X29810454Y-53987066D01*
X29800312Y-53992346D01*
X29785156Y-53996298D01*
X29762259Y-53999113D01*
X29728891Y-54000982D01*
X29682325Y-54002098D01*
X29619833Y-54002651D01*
X29538686Y-54002833D01*
X29496578Y-54002845D01*
X29406402Y-54002765D01*
X29336076Y-54002398D01*
X29282871Y-54001552D01*
X29244060Y-54000036D01*
X29216913Y-53997659D01*
X29198702Y-53994229D01*
X29186700Y-53989554D01*
X29178178Y-53983444D01*
X29174844Y-53980267D01*
X29168245Y-53972670D01*
X29163073Y-53962870D01*
X29159154Y-53948239D01*
X29156316Y-53926152D01*
X29154385Y-53893982D01*
X29153188Y-53849103D01*
X29152552Y-53788889D01*
X29152303Y-53710713D01*
X29152266Y-53637923D01*
X29152300Y-53544707D01*
X29152535Y-53471431D01*
X29153170Y-53415458D01*
X29154406Y-53374151D01*
X29156444Y-53344872D01*
X29159483Y-53324984D01*
X29163723Y-53311850D01*
X29169365Y-53302832D01*
X29176609Y-53295293D01*
X29178394Y-53293612D01*
X29187055Y-53286172D01*
X29197118Y-53280409D01*
X29211375Y-53276112D01*
X29232617Y-53273064D01*
X29263636Y-53271051D01*
X29307223Y-53269860D01*
X29366169Y-53269275D01*
X29443266Y-53269083D01*
X29497999Y-53269067D01*
X29587206Y-53269146D01*
G36*
X29587206Y-53269146D02*
G01*
X29656614Y-53269518D01*
X29709003Y-53270385D01*
X29747153Y-53271946D01*
X29773841Y-53274403D01*
X29791847Y-53277957D01*
X29803951Y-53282810D01*
X29812931Y-53289161D01*
X29816182Y-53292084D01*
X29835957Y-53323142D01*
X29839518Y-53358828D01*
X29826509Y-53390510D01*
X29820494Y-53396913D01*
X29810765Y-53403121D01*
X29795099Y-53407910D01*
X29770592Y-53411514D01*
X29734339Y-53414164D01*
X29683435Y-53416095D01*
X29614974Y-53417539D01*
X29552383Y-53418418D01*
X29304666Y-53421467D01*
X29301281Y-53486378D01*
X29297895Y-53551289D01*
X29466042Y-53551289D01*
X29539041Y-53551919D01*
X29592483Y-53554553D01*
X29629372Y-53560309D01*
X29652712Y-53570304D01*
X29665506Y-53585656D01*
X29670758Y-53607482D01*
X29671555Y-53627738D01*
X29669077Y-53652592D01*
X29659723Y-53670906D01*
X29640617Y-53683637D01*
X29608882Y-53691741D01*
X29561641Y-53696176D01*
X29496017Y-53697899D01*
X29460199Y-53698045D01*
X29299022Y-53698045D01*
X29299022Y-53856089D01*
X29547378Y-53856089D01*
X29628787Y-53856202D01*
X29690658Y-53856712D01*
X29736032Y-53857870D01*
X29767946Y-53859930D01*
X29789441Y-53863146D01*
X29803557Y-53867772D01*
X29813332Y-53874059D01*
X29818311Y-53878667D01*
X29835390Y-53905560D01*
X29840889Y-53929467D01*
X29833037Y-53958667D01*
X29818311Y-53980267D01*
X29810454Y-53987066D01*
X29800312Y-53992346D01*
X29785156Y-53996298D01*
X29762259Y-53999113D01*
X29728891Y-54000982D01*
X29682325Y-54002098D01*
X29619833Y-54002651D01*
X29538686Y-54002833D01*
X29496578Y-54002845D01*
X29406402Y-54002765D01*
X29336076Y-54002398D01*
X29282871Y-54001552D01*
X29244060Y-54000036D01*
X29216913Y-53997659D01*
X29198702Y-53994229D01*
X29186700Y-53989554D01*
X29178178Y-53983444D01*
X29174844Y-53980267D01*
X29168245Y-53972670D01*
X29163073Y-53962870D01*
X29159154Y-53948239D01*
X29156316Y-53926152D01*
X29154385Y-53893982D01*
X29153188Y-53849103D01*
X29152552Y-53788889D01*
X29152303Y-53710713D01*
X29152266Y-53637923D01*
X29152300Y-53544707D01*
X29152535Y-53471431D01*
X29153170Y-53415458D01*
X29154406Y-53374151D01*
X29156444Y-53344872D01*
X29159483Y-53324984D01*
X29163723Y-53311850D01*
X29169365Y-53302832D01*
X29176609Y-53295293D01*
X29178394Y-53293612D01*
X29187055Y-53286172D01*
X29197118Y-53280409D01*
X29211375Y-53276112D01*
X29232617Y-53273064D01*
X29263636Y-53271051D01*
X29307223Y-53269860D01*
X29366169Y-53269275D01*
X29443266Y-53269083D01*
X29497999Y-53269067D01*
X29587206Y-53269146D01*
G37*
X38044665Y-53271034D02*
X38064255Y-53278035D01*
X38065010Y-53278377D01*
X38091613Y-53298678D01*
X38106270Y-53319561D01*
X38109138Y-53329352D01*
X38108996Y-53342361D01*
X38104961Y-53360895D01*
X38096146Y-53387257D01*
X38081669Y-53423752D01*
X38060645Y-53472687D01*
X38032188Y-53536365D01*
X37995415Y-53617093D01*
X37975175Y-53661216D01*
X37938625Y-53739985D01*
X37904315Y-53812423D01*
X37873552Y-53875880D01*
X37847648Y-53927708D01*
X37827910Y-53965259D01*
X37815650Y-53985884D01*
X37813224Y-53988733D01*
X37782183Y-54001302D01*
X37747121Y-53999619D01*
X37719000Y-53984332D01*
X37717854Y-53983089D01*
X37706668Y-53966154D01*
X37687904Y-53933170D01*
X37663875Y-53888380D01*
X37636897Y-53836032D01*
X37627201Y-53816742D01*
X37554014Y-53670150D01*
X37474240Y-53829393D01*
X37445767Y-53884415D01*
X37419350Y-53932132D01*
X37397148Y-53968893D01*
X37381319Y-53991044D01*
X37375954Y-53995741D01*
X37334257Y-54002102D01*
X37299849Y-53988733D01*
X37289728Y-53974446D01*
X37272214Y-53942692D01*
X37248735Y-53896597D01*
X37220720Y-53839285D01*
X37189599Y-53773880D01*
X37156799Y-53703507D01*
X37123750Y-53631291D01*
X37091881Y-53560355D01*
X37062619Y-53493825D01*
X37037395Y-53434826D01*
X37017636Y-53386481D01*
X37004772Y-53351915D01*
X37000231Y-53334253D01*
X37000277Y-53333613D01*
X37011326Y-53311388D01*
X37033410Y-53288753D01*
X37034710Y-53287768D01*
X37061853Y-53272425D01*
X37086958Y-53272574D01*
X37096368Y-53275466D01*
X37107834Y-53281718D01*
X37120010Y-53294014D01*
X37134357Y-53314908D01*
X37152336Y-53346949D01*
X37175407Y-53392688D01*
X37205030Y-53454677D01*
X37231745Y-53511898D01*
X37262480Y-53578226D01*
X37290021Y-53637874D01*
X37312938Y-53687725D01*
X37329798Y-53724664D01*
X37339173Y-53745573D01*
X37340540Y-53748845D01*
X37346689Y-53743497D01*
X37360822Y-53721109D01*
X37381057Y-53684946D01*
X37405515Y-53638277D01*
X37415248Y-53619022D01*
X37448217Y-53554004D01*
X37473643Y-53506654D01*
X37493612Y-53474219D01*
X37510210Y-53453946D01*
X37525524Y-53443082D01*
X37541640Y-53438875D01*
X37552143Y-53438400D01*
X37570670Y-53440042D01*
X37586904Y-53446831D01*
X37603035Y-53461566D01*
X37621251Y-53487044D01*
X37643739Y-53526061D01*
X37672689Y-53581414D01*
X37688662Y-53612903D01*
X37714570Y-53663087D01*
X37737167Y-53704704D01*
X37754458Y-53734242D01*
X37764450Y-53748189D01*
X37765809Y-53748770D01*
X37772261Y-53737793D01*
X37786708Y-53709290D01*
X37807703Y-53666244D01*
X37833797Y-53611638D01*
X37863546Y-53548454D01*
X37878180Y-53517071D01*
X37916250Y-53436078D01*
X37946905Y-53373756D01*
X37971737Y-53328071D01*
X37992337Y-53296989D01*
X38010298Y-53278478D01*
X38027210Y-53270504D01*
X38044665Y-53271034D01*
G36*
X38044665Y-53271034D02*
G01*
X38064255Y-53278035D01*
X38065010Y-53278377D01*
X38091613Y-53298678D01*
X38106270Y-53319561D01*
X38109138Y-53329352D01*
X38108996Y-53342361D01*
X38104961Y-53360895D01*
X38096146Y-53387257D01*
X38081669Y-53423752D01*
X38060645Y-53472687D01*
X38032188Y-53536365D01*
X37995415Y-53617093D01*
X37975175Y-53661216D01*
X37938625Y-53739985D01*
X37904315Y-53812423D01*
X37873552Y-53875880D01*
X37847648Y-53927708D01*
X37827910Y-53965259D01*
X37815650Y-53985884D01*
X37813224Y-53988733D01*
X37782183Y-54001302D01*
X37747121Y-53999619D01*
X37719000Y-53984332D01*
X37717854Y-53983089D01*
X37706668Y-53966154D01*
X37687904Y-53933170D01*
X37663875Y-53888380D01*
X37636897Y-53836032D01*
X37627201Y-53816742D01*
X37554014Y-53670150D01*
X37474240Y-53829393D01*
X37445767Y-53884415D01*
X37419350Y-53932132D01*
X37397148Y-53968893D01*
X37381319Y-53991044D01*
X37375954Y-53995741D01*
X37334257Y-54002102D01*
X37299849Y-53988733D01*
X37289728Y-53974446D01*
X37272214Y-53942692D01*
X37248735Y-53896597D01*
X37220720Y-53839285D01*
X37189599Y-53773880D01*
X37156799Y-53703507D01*
X37123750Y-53631291D01*
X37091881Y-53560355D01*
X37062619Y-53493825D01*
X37037395Y-53434826D01*
X37017636Y-53386481D01*
X37004772Y-53351915D01*
X37000231Y-53334253D01*
X37000277Y-53333613D01*
X37011326Y-53311388D01*
X37033410Y-53288753D01*
X37034710Y-53287768D01*
X37061853Y-53272425D01*
X37086958Y-53272574D01*
X37096368Y-53275466D01*
X37107834Y-53281718D01*
X37120010Y-53294014D01*
X37134357Y-53314908D01*
X37152336Y-53346949D01*
X37175407Y-53392688D01*
X37205030Y-53454677D01*
X37231745Y-53511898D01*
X37262480Y-53578226D01*
X37290021Y-53637874D01*
X37312938Y-53687725D01*
X37329798Y-53724664D01*
X37339173Y-53745573D01*
X37340540Y-53748845D01*
X37346689Y-53743497D01*
X37360822Y-53721109D01*
X37381057Y-53684946D01*
X37405515Y-53638277D01*
X37415248Y-53619022D01*
X37448217Y-53554004D01*
X37473643Y-53506654D01*
X37493612Y-53474219D01*
X37510210Y-53453946D01*
X37525524Y-53443082D01*
X37541640Y-53438875D01*
X37552143Y-53438400D01*
X37570670Y-53440042D01*
X37586904Y-53446831D01*
X37603035Y-53461566D01*
X37621251Y-53487044D01*
X37643739Y-53526061D01*
X37672689Y-53581414D01*
X37688662Y-53612903D01*
X37714570Y-53663087D01*
X37737167Y-53704704D01*
X37754458Y-53734242D01*
X37764450Y-53748189D01*
X37765809Y-53748770D01*
X37772261Y-53737793D01*
X37786708Y-53709290D01*
X37807703Y-53666244D01*
X37833797Y-53611638D01*
X37863546Y-53548454D01*
X37878180Y-53517071D01*
X37916250Y-53436078D01*
X37946905Y-53373756D01*
X37971737Y-53328071D01*
X37992337Y-53296989D01*
X38010298Y-53278478D01*
X38027210Y-53270504D01*
X38044665Y-53271034D01*
G37*
X30608297Y-53270351D02*
X30683112Y-53275581D01*
X30752694Y-53283750D01*
X30812998Y-53294550D01*
X30859980Y-53307673D01*
X30889594Y-53322813D01*
X30894140Y-53327269D01*
X30909946Y-53361850D01*
X30905153Y-53397351D01*
X30880636Y-53427725D01*
X30879466Y-53428596D01*
X30865046Y-53437954D01*
X30849992Y-53442876D01*
X30828995Y-53443473D01*
X30796743Y-53439861D01*
X30747927Y-53432154D01*
X30744000Y-53431505D01*
X30671261Y-53422569D01*
X30592783Y-53418161D01*
X30514073Y-53418119D01*
X30440639Y-53422279D01*
X30377989Y-53430479D01*
X30331630Y-53442557D01*
X30328584Y-53443771D01*
X30294952Y-53462615D01*
X30283136Y-53481685D01*
X30292386Y-53500439D01*
X30321953Y-53518337D01*
X30371089Y-53534837D01*
X30439043Y-53549396D01*
X30484355Y-53556406D01*
X30578544Y-53569889D01*
X30653456Y-53582214D01*
X30712283Y-53594449D01*
X30758215Y-53607661D01*
X30794445Y-53622917D01*
X30824162Y-53641285D01*
X30850558Y-53663831D01*
X30871770Y-53685971D01*
X30896935Y-53716819D01*
X30909319Y-53743345D01*
X30913192Y-53776026D01*
X30913333Y-53787995D01*
X30910424Y-53827712D01*
X30898798Y-53857259D01*
X30878677Y-53883486D01*
X30837784Y-53923576D01*
X30792183Y-53954149D01*
X30738487Y-53976203D01*
X30673308Y-53990735D01*
X30593256Y-53998741D01*
X30494943Y-54001218D01*
X30478711Y-54001177D01*
X30413151Y-53999818D01*
X30348134Y-53996730D01*
X30290748Y-53992356D01*
X30248078Y-53987140D01*
X30244628Y-53986541D01*
X30202204Y-53976491D01*
X30166220Y-53963796D01*
X30145850Y-53952190D01*
X30126893Y-53921572D01*
X30125573Y-53885918D01*
X30141915Y-53854144D01*
X30145571Y-53850551D01*
X30160685Y-53839876D01*
X30179585Y-53835276D01*
X30208838Y-53836059D01*
X30244349Y-53840127D01*
X30284030Y-53843762D01*
X30339655Y-53846828D01*
X30404594Y-53849053D01*
X30472215Y-53850164D01*
X30490000Y-53850237D01*
X30557872Y-53849964D01*
X30607546Y-53848646D01*
X30643390Y-53845827D01*
X30669776Y-53841050D01*
X30691074Y-53833857D01*
X30703874Y-53827867D01*
X30732000Y-53811233D01*
X30749932Y-53796168D01*
X30752553Y-53791897D01*
X30747024Y-53774263D01*
X30720740Y-53757192D01*
X30675522Y-53741458D01*
X30613192Y-53727838D01*
X30594829Y-53724804D01*
X30498910Y-53709738D01*
X30422359Y-53697146D01*
X30362220Y-53686111D01*
X30315540Y-53675720D01*
X30279363Y-53665056D01*
X30250735Y-53653205D01*
X30226702Y-53639251D01*
X30204308Y-53622281D01*
X30180598Y-53601378D01*
X30172620Y-53594049D01*
X30144647Y-53566699D01*
X30129840Y-53545029D01*
X30124048Y-53520232D01*
X30123111Y-53488983D01*
X30133425Y-53427705D01*
X30164248Y-53375640D01*
X30215405Y-53332958D01*
X30286717Y-53299825D01*
X30337600Y-53284964D01*
X30392900Y-53275366D01*
X30459147Y-53269936D01*
X30532294Y-53268367D01*
X30608297Y-53270351D01*
G36*
X30608297Y-53270351D02*
G01*
X30683112Y-53275581D01*
X30752694Y-53283750D01*
X30812998Y-53294550D01*
X30859980Y-53307673D01*
X30889594Y-53322813D01*
X30894140Y-53327269D01*
X30909946Y-53361850D01*
X30905153Y-53397351D01*
X30880636Y-53427725D01*
X30879466Y-53428596D01*
X30865046Y-53437954D01*
X30849992Y-53442876D01*
X30828995Y-53443473D01*
X30796743Y-53439861D01*
X30747927Y-53432154D01*
X30744000Y-53431505D01*
X30671261Y-53422569D01*
X30592783Y-53418161D01*
X30514073Y-53418119D01*
X30440639Y-53422279D01*
X30377989Y-53430479D01*
X30331630Y-53442557D01*
X30328584Y-53443771D01*
X30294952Y-53462615D01*
X30283136Y-53481685D01*
X30292386Y-53500439D01*
X30321953Y-53518337D01*
X30371089Y-53534837D01*
X30439043Y-53549396D01*
X30484355Y-53556406D01*
X30578544Y-53569889D01*
X30653456Y-53582214D01*
X30712283Y-53594449D01*
X30758215Y-53607661D01*
X30794445Y-53622917D01*
X30824162Y-53641285D01*
X30850558Y-53663831D01*
X30871770Y-53685971D01*
X30896935Y-53716819D01*
X30909319Y-53743345D01*
X30913192Y-53776026D01*
X30913333Y-53787995D01*
X30910424Y-53827712D01*
X30898798Y-53857259D01*
X30878677Y-53883486D01*
X30837784Y-53923576D01*
X30792183Y-53954149D01*
X30738487Y-53976203D01*
X30673308Y-53990735D01*
X30593256Y-53998741D01*
X30494943Y-54001218D01*
X30478711Y-54001177D01*
X30413151Y-53999818D01*
X30348134Y-53996730D01*
X30290748Y-53992356D01*
X30248078Y-53987140D01*
X30244628Y-53986541D01*
X30202204Y-53976491D01*
X30166220Y-53963796D01*
X30145850Y-53952190D01*
X30126893Y-53921572D01*
X30125573Y-53885918D01*
X30141915Y-53854144D01*
X30145571Y-53850551D01*
X30160685Y-53839876D01*
X30179585Y-53835276D01*
X30208838Y-53836059D01*
X30244349Y-53840127D01*
X30284030Y-53843762D01*
X30339655Y-53846828D01*
X30404594Y-53849053D01*
X30472215Y-53850164D01*
X30490000Y-53850237D01*
X30557872Y-53849964D01*
X30607546Y-53848646D01*
X30643390Y-53845827D01*
X30669776Y-53841050D01*
X30691074Y-53833857D01*
X30703874Y-53827867D01*
X30732000Y-53811233D01*
X30749932Y-53796168D01*
X30752553Y-53791897D01*
X30747024Y-53774263D01*
X30720740Y-53757192D01*
X30675522Y-53741458D01*
X30613192Y-53727838D01*
X30594829Y-53724804D01*
X30498910Y-53709738D01*
X30422359Y-53697146D01*
X30362220Y-53686111D01*
X30315540Y-53675720D01*
X30279363Y-53665056D01*
X30250735Y-53653205D01*
X30226702Y-53639251D01*
X30204308Y-53622281D01*
X30180598Y-53601378D01*
X30172620Y-53594049D01*
X30144647Y-53566699D01*
X30129840Y-53545029D01*
X30124048Y-53520232D01*
X30123111Y-53488983D01*
X30133425Y-53427705D01*
X30164248Y-53375640D01*
X30215405Y-53332958D01*
X30286717Y-53299825D01*
X30337600Y-53284964D01*
X30392900Y-53275366D01*
X30459147Y-53269936D01*
X30532294Y-53268367D01*
X30608297Y-53270351D01*
G37*
X34628429Y-48949071D02*
X34788570Y-48970245D01*
X34952510Y-49010385D01*
X35122313Y-49069889D01*
X35300043Y-49149154D01*
X35311310Y-49154699D01*
X35369005Y-49182725D01*
X35420552Y-49206802D01*
X35462191Y-49225249D01*
X35490162Y-49236386D01*
X35499733Y-49238933D01*
X35518950Y-49243941D01*
X35523561Y-49248147D01*
X35518458Y-49258580D01*
X35502418Y-49284868D01*
X35477288Y-49324257D01*
X35444914Y-49373991D01*
X35407143Y-49431315D01*
X35365822Y-49493476D01*
X35322798Y-49557718D01*
X35279917Y-49621285D01*
X35239026Y-49681425D01*
X35201971Y-49735380D01*
X35170600Y-49780397D01*
X35146759Y-49813721D01*
X35132294Y-49832597D01*
X35130309Y-49834787D01*
X35120191Y-49830138D01*
X35097850Y-49812962D01*
X35067280Y-49786440D01*
X35051536Y-49771964D01*
X34955047Y-49696682D01*
X34848336Y-49641241D01*
X34732832Y-49606141D01*
X34609962Y-49591880D01*
X34540561Y-49593051D01*
X34419423Y-49610212D01*
X34310205Y-49646094D01*
X34212582Y-49700959D01*
X34126228Y-49775070D01*
X34050815Y-49868688D01*
X33986018Y-49982076D01*
X33948601Y-50068667D01*
X33904748Y-50204366D01*
X33872428Y-50351850D01*
X33851557Y-50507314D01*
X33842051Y-50666956D01*
X33843827Y-50826973D01*
X33856803Y-50983561D01*
X33880894Y-51132918D01*
X33916018Y-51271240D01*
X33962092Y-51394724D01*
X33978373Y-51428978D01*
X34046620Y-51543064D01*
X34127079Y-51639557D01*
X34218570Y-51717670D01*
X34319911Y-51776617D01*
X34429920Y-51815612D01*
X34547415Y-51833868D01*
X34588883Y-51835211D01*
X34710441Y-51824290D01*
X34830878Y-51791474D01*
X34948666Y-51737439D01*
X35062277Y-51662865D01*
X35153685Y-51584539D01*
X35200215Y-51540008D01*
X35381483Y-51837271D01*
X35426580Y-51911433D01*
X35467819Y-51979646D01*
X35503735Y-52039459D01*
X35532866Y-52088420D01*
X35553750Y-52124079D01*
X35564924Y-52143984D01*
X35566375Y-52147079D01*
X35558146Y-52156718D01*
X35532567Y-52173999D01*
X35492873Y-52197283D01*
X35442297Y-52224934D01*
X35384074Y-52255315D01*
X35321437Y-52286790D01*
X35257621Y-52317722D01*
X35195860Y-52346473D01*
X35139388Y-52371408D01*
X35091438Y-52390889D01*
X35067986Y-52399318D01*
X34934221Y-52437133D01*
X34796327Y-52462136D01*
X34648622Y-52475140D01*
X34521833Y-52477468D01*
X34453878Y-52476373D01*
X34388277Y-52474275D01*
X34330847Y-52471434D01*
X34287403Y-52468106D01*
X34273298Y-52466422D01*
X34134284Y-52437587D01*
X33992757Y-52392468D01*
X33855275Y-52333750D01*
X33728394Y-52264120D01*
X33650889Y-52211441D01*
X33523481Y-52103239D01*
X33405178Y-51976671D01*
X33298172Y-51834866D01*
X33204652Y-51680951D01*
X33126810Y-51518053D01*
X33082956Y-51400756D01*
X33032708Y-51217128D01*
X32999209Y-51022581D01*
X32982449Y-50821325D01*
X32982416Y-50617568D01*
X32999101Y-50415521D01*
X33032493Y-50219392D01*
X33082580Y-50033391D01*
X33086397Y-50021803D01*
X33149281Y-49859750D01*
X33226028Y-49711832D01*
X33319242Y-49573865D01*
X33431527Y-49441661D01*
X33475392Y-49396399D01*
X33611534Y-49272457D01*
X33751491Y-49169915D01*
X33897411Y-49087656D01*
X34051442Y-49024564D01*
X34215732Y-48979523D01*
X34311289Y-48962033D01*
X34470023Y-48946466D01*
X34628429Y-48949071D01*
G36*
X34628429Y-48949071D02*
G01*
X34788570Y-48970245D01*
X34952510Y-49010385D01*
X35122313Y-49069889D01*
X35300043Y-49149154D01*
X35311310Y-49154699D01*
X35369005Y-49182725D01*
X35420552Y-49206802D01*
X35462191Y-49225249D01*
X35490162Y-49236386D01*
X35499733Y-49238933D01*
X35518950Y-49243941D01*
X35523561Y-49248147D01*
X35518458Y-49258580D01*
X35502418Y-49284868D01*
X35477288Y-49324257D01*
X35444914Y-49373991D01*
X35407143Y-49431315D01*
X35365822Y-49493476D01*
X35322798Y-49557718D01*
X35279917Y-49621285D01*
X35239026Y-49681425D01*
X35201971Y-49735380D01*
X35170600Y-49780397D01*
X35146759Y-49813721D01*
X35132294Y-49832597D01*
X35130309Y-49834787D01*
X35120191Y-49830138D01*
X35097850Y-49812962D01*
X35067280Y-49786440D01*
X35051536Y-49771964D01*
X34955047Y-49696682D01*
X34848336Y-49641241D01*
X34732832Y-49606141D01*
X34609962Y-49591880D01*
X34540561Y-49593051D01*
X34419423Y-49610212D01*
X34310205Y-49646094D01*
X34212582Y-49700959D01*
X34126228Y-49775070D01*
X34050815Y-49868688D01*
X33986018Y-49982076D01*
X33948601Y-50068667D01*
X33904748Y-50204366D01*
X33872428Y-50351850D01*
X33851557Y-50507314D01*
X33842051Y-50666956D01*
X33843827Y-50826973D01*
X33856803Y-50983561D01*
X33880894Y-51132918D01*
X33916018Y-51271240D01*
X33962092Y-51394724D01*
X33978373Y-51428978D01*
X34046620Y-51543064D01*
X34127079Y-51639557D01*
X34218570Y-51717670D01*
X34319911Y-51776617D01*
X34429920Y-51815612D01*
X34547415Y-51833868D01*
X34588883Y-51835211D01*
X34710441Y-51824290D01*
X34830878Y-51791474D01*
X34948666Y-51737439D01*
X35062277Y-51662865D01*
X35153685Y-51584539D01*
X35200215Y-51540008D01*
X35381483Y-51837271D01*
X35426580Y-51911433D01*
X35467819Y-51979646D01*
X35503735Y-52039459D01*
X35532866Y-52088420D01*
X35553750Y-52124079D01*
X35564924Y-52143984D01*
X35566375Y-52147079D01*
X35558146Y-52156718D01*
X35532567Y-52173999D01*
X35492873Y-52197283D01*
X35442297Y-52224934D01*
X35384074Y-52255315D01*
X35321437Y-52286790D01*
X35257621Y-52317722D01*
X35195860Y-52346473D01*
X35139388Y-52371408D01*
X35091438Y-52390889D01*
X35067986Y-52399318D01*
X34934221Y-52437133D01*
X34796327Y-52462136D01*
X34648622Y-52475140D01*
X34521833Y-52477468D01*
X34453878Y-52476373D01*
X34388277Y-52474275D01*
X34330847Y-52471434D01*
X34287403Y-52468106D01*
X34273298Y-52466422D01*
X34134284Y-52437587D01*
X33992757Y-52392468D01*
X33855275Y-52333750D01*
X33728394Y-52264120D01*
X33650889Y-52211441D01*
X33523481Y-52103239D01*
X33405178Y-51976671D01*
X33298172Y-51834866D01*
X33204652Y-51680951D01*
X33126810Y-51518053D01*
X33082956Y-51400756D01*
X33032708Y-51217128D01*
X32999209Y-51022581D01*
X32982449Y-50821325D01*
X32982416Y-50617568D01*
X32999101Y-50415521D01*
X33032493Y-50219392D01*
X33082580Y-50033391D01*
X33086397Y-50021803D01*
X33149281Y-49859750D01*
X33226028Y-49711832D01*
X33319242Y-49573865D01*
X33431527Y-49441661D01*
X33475392Y-49396399D01*
X33611534Y-49272457D01*
X33751491Y-49169915D01*
X33897411Y-49087656D01*
X34051442Y-49024564D01*
X34215732Y-48979523D01*
X34311289Y-48962033D01*
X34470023Y-48946466D01*
X34628429Y-48949071D01*
G37*
X40486507Y-50472245D02*
X40486526Y-50706662D01*
X40486552Y-50919603D01*
X40486625Y-51112168D01*
X40486782Y-51285459D01*
X40487064Y-51440576D01*
X40487509Y-51578620D01*
X40488156Y-51700692D01*
X40489045Y-51807894D01*
X40490213Y-51901326D01*
X40491701Y-51982090D01*
X40493546Y-52051286D01*
X40495789Y-52110015D01*
X40498469Y-52159379D01*
X40501623Y-52200478D01*
X40505292Y-52234413D01*
X40509513Y-52262286D01*
X40514327Y-52285198D01*
X40519773Y-52304249D01*
X40525888Y-52320540D01*
X40532712Y-52335173D01*
X40540285Y-52349249D01*
X40548645Y-52363868D01*
X40553839Y-52372974D01*
X40588104Y-52433689D01*
X39729955Y-52433689D01*
X39729955Y-52337733D01*
X39729224Y-52294370D01*
X39727272Y-52261205D01*
X39724463Y-52243424D01*
X39723221Y-52241778D01*
X39711799Y-52248662D01*
X39689084Y-52266505D01*
X39666385Y-52285879D01*
X39611800Y-52326614D01*
X39542321Y-52367617D01*
X39465270Y-52405123D01*
X39387965Y-52435364D01*
X39357113Y-52445012D01*
X39288616Y-52459578D01*
X39205764Y-52469539D01*
X39116371Y-52474583D01*
X39028248Y-52474396D01*
X38949207Y-52468666D01*
X38911511Y-52462858D01*
X38773414Y-52424797D01*
X38646113Y-52367073D01*
X38530292Y-52290211D01*
X38426637Y-52194739D01*
X38335833Y-52081179D01*
X38269031Y-51970381D01*
X38214164Y-51853625D01*
X38172163Y-51734276D01*
X38142167Y-51608283D01*
X38123311Y-51471594D01*
X38114732Y-51320158D01*
X38114006Y-51242711D01*
X38116100Y-51185934D01*
X38945217Y-51185934D01*
X38945424Y-51279002D01*
X38948337Y-51366692D01*
X38954000Y-51443772D01*
X38962455Y-51505009D01*
X38965038Y-51517350D01*
X38996840Y-51624633D01*
X39038498Y-51711658D01*
X39090363Y-51778642D01*
X39152781Y-51825805D01*
X39226100Y-51853365D01*
X39310669Y-51861541D01*
X39406835Y-51850551D01*
X39470311Y-51834829D01*
X39519454Y-51816639D01*
X39573583Y-51790791D01*
X39614244Y-51767089D01*
X39684800Y-51720721D01*
X39684800Y-50570530D01*
X39617392Y-50526962D01*
X39538867Y-50486040D01*
X39454681Y-50459389D01*
X39369557Y-50447465D01*
X39288216Y-50450722D01*
X39215380Y-50469615D01*
X39183426Y-50485184D01*
X39125501Y-50528181D01*
X39076544Y-50584953D01*
X39035390Y-50657575D01*
X39000874Y-50748121D01*
X38971833Y-50858666D01*
X38970552Y-50864533D01*
X38960381Y-50926788D01*
X38952739Y-51004594D01*
X38947670Y-51092720D01*
X38945217Y-51185934D01*
X38116100Y-51185934D01*
X38121857Y-51029895D01*
X38143802Y-50834059D01*
X38179786Y-50655332D01*
X38229759Y-50493845D01*
X38293668Y-50349726D01*
X38371462Y-50223106D01*
X38463089Y-50114115D01*
X38568497Y-50022883D01*
X38613662Y-49991932D01*
X38714611Y-49935785D01*
X38817901Y-49896174D01*
X38927989Y-49872014D01*
X39049330Y-49862219D01*
X39141836Y-49863265D01*
X39271490Y-49874231D01*
X39384084Y-49896046D01*
X39482875Y-49929714D01*
X39571121Y-49976236D01*
X39619986Y-50010448D01*
X39649353Y-50032362D01*
X39671043Y-50047333D01*
X39679253Y-50051733D01*
X39680868Y-50040904D01*
X39682159Y-50010251D01*
X39683138Y-49962526D01*
X39683817Y-49900479D01*
X39684210Y-49826862D01*
X39684330Y-49744427D01*
X39684188Y-49655925D01*
X39683797Y-49564107D01*
X39683171Y-49471724D01*
X39682320Y-49381528D01*
X39681260Y-49296271D01*
X39680001Y-49218703D01*
X39678556Y-49151576D01*
X39676938Y-49097641D01*
X39675161Y-49059650D01*
X39674669Y-49052667D01*
X39667092Y-48982251D01*
X39655531Y-48927102D01*
X39637792Y-48879981D01*
X39611682Y-48833647D01*
X39605415Y-48824067D01*
X39580983Y-48787378D01*
X40486311Y-48787378D01*
X40486507Y-50472245D01*
G36*
X40486507Y-50472245D02*
G01*
X40486526Y-50706662D01*
X40486552Y-50919603D01*
X40486625Y-51112168D01*
X40486782Y-51285459D01*
X40487064Y-51440576D01*
X40487509Y-51578620D01*
X40488156Y-51700692D01*
X40489045Y-51807894D01*
X40490213Y-51901326D01*
X40491701Y-51982090D01*
X40493546Y-52051286D01*
X40495789Y-52110015D01*
X40498469Y-52159379D01*
X40501623Y-52200478D01*
X40505292Y-52234413D01*
X40509513Y-52262286D01*
X40514327Y-52285198D01*
X40519773Y-52304249D01*
X40525888Y-52320540D01*
X40532712Y-52335173D01*
X40540285Y-52349249D01*
X40548645Y-52363868D01*
X40553839Y-52372974D01*
X40588104Y-52433689D01*
X39729955Y-52433689D01*
X39729955Y-52337733D01*
X39729224Y-52294370D01*
X39727272Y-52261205D01*
X39724463Y-52243424D01*
X39723221Y-52241778D01*
X39711799Y-52248662D01*
X39689084Y-52266505D01*
X39666385Y-52285879D01*
X39611800Y-52326614D01*
X39542321Y-52367617D01*
X39465270Y-52405123D01*
X39387965Y-52435364D01*
X39357113Y-52445012D01*
X39288616Y-52459578D01*
X39205764Y-52469539D01*
X39116371Y-52474583D01*
X39028248Y-52474396D01*
X38949207Y-52468666D01*
X38911511Y-52462858D01*
X38773414Y-52424797D01*
X38646113Y-52367073D01*
X38530292Y-52290211D01*
X38426637Y-52194739D01*
X38335833Y-52081179D01*
X38269031Y-51970381D01*
X38214164Y-51853625D01*
X38172163Y-51734276D01*
X38142167Y-51608283D01*
X38123311Y-51471594D01*
X38114732Y-51320158D01*
X38114006Y-51242711D01*
X38116100Y-51185934D01*
X38945217Y-51185934D01*
X38945424Y-51279002D01*
X38948337Y-51366692D01*
X38954000Y-51443772D01*
X38962455Y-51505009D01*
X38965038Y-51517350D01*
X38996840Y-51624633D01*
X39038498Y-51711658D01*
X39090363Y-51778642D01*
X39152781Y-51825805D01*
X39226100Y-51853365D01*
X39310669Y-51861541D01*
X39406835Y-51850551D01*
X39470311Y-51834829D01*
X39519454Y-51816639D01*
X39573583Y-51790791D01*
X39614244Y-51767089D01*
X39684800Y-51720721D01*
X39684800Y-50570530D01*
X39617392Y-50526962D01*
X39538867Y-50486040D01*
X39454681Y-50459389D01*
X39369557Y-50447465D01*
X39288216Y-50450722D01*
X39215380Y-50469615D01*
X39183426Y-50485184D01*
X39125501Y-50528181D01*
X39076544Y-50584953D01*
X39035390Y-50657575D01*
X39000874Y-50748121D01*
X38971833Y-50858666D01*
X38970552Y-50864533D01*
X38960381Y-50926788D01*
X38952739Y-51004594D01*
X38947670Y-51092720D01*
X38945217Y-51185934D01*
X38116100Y-51185934D01*
X38121857Y-51029895D01*
X38143802Y-50834059D01*
X38179786Y-50655332D01*
X38229759Y-50493845D01*
X38293668Y-50349726D01*
X38371462Y-50223106D01*
X38463089Y-50114115D01*
X38568497Y-50022883D01*
X38613662Y-49991932D01*
X38714611Y-49935785D01*
X38817901Y-49896174D01*
X38927989Y-49872014D01*
X39049330Y-49862219D01*
X39141836Y-49863265D01*
X39271490Y-49874231D01*
X39384084Y-49896046D01*
X39482875Y-49929714D01*
X39571121Y-49976236D01*
X39619986Y-50010448D01*
X39649353Y-50032362D01*
X39671043Y-50047333D01*
X39679253Y-50051733D01*
X39680868Y-50040904D01*
X39682159Y-50010251D01*
X39683138Y-49962526D01*
X39683817Y-49900479D01*
X39684210Y-49826862D01*
X39684330Y-49744427D01*
X39684188Y-49655925D01*
X39683797Y-49564107D01*
X39683171Y-49471724D01*
X39682320Y-49381528D01*
X39681260Y-49296271D01*
X39680001Y-49218703D01*
X39678556Y-49151576D01*
X39676938Y-49097641D01*
X39675161Y-49059650D01*
X39674669Y-49052667D01*
X39667092Y-48982251D01*
X39655531Y-48927102D01*
X39637792Y-48879981D01*
X39611682Y-48833647D01*
X39605415Y-48824067D01*
X39580983Y-48787378D01*
X40486311Y-48787378D01*
X40486507Y-50472245D01*
G37*
X36973574Y-49866552D02*
X37125492Y-49886567D01*
X37260756Y-49920202D01*
X37380239Y-49967725D01*
X37484815Y-50029405D01*
X37562424Y-50092965D01*
X37631265Y-50167099D01*
X37685006Y-50246871D01*
X37727910Y-50339091D01*
X37743384Y-50382161D01*
X37756244Y-50421142D01*
X37767446Y-50457289D01*
X37777120Y-50492434D01*
X37785396Y-50528410D01*
X37792403Y-50567050D01*
X37798272Y-50610185D01*
X37803131Y-50659649D01*
X37807110Y-50717273D01*
X37810340Y-50784891D01*
X37812949Y-50864334D01*
X37815067Y-50957436D01*
X37816824Y-51066027D01*
X37818349Y-51191942D01*
X37819772Y-51337012D01*
X37821025Y-51479778D01*
X37822351Y-51635968D01*
X37823556Y-51771239D01*
X37824766Y-51887246D01*
X37826106Y-51985645D01*
X37827700Y-52068093D01*
X37829675Y-52136246D01*
X37832156Y-52191760D01*
X37835269Y-52236292D01*
X37839138Y-52271498D01*
X37843889Y-52299034D01*
X37849648Y-52320556D01*
X37856539Y-52337722D01*
X37864689Y-52352186D01*
X37874223Y-52365606D01*
X37885266Y-52379638D01*
X37889566Y-52385071D01*
X37905386Y-52407910D01*
X37912422Y-52423463D01*
X37912444Y-52423922D01*
X37901567Y-52426121D01*
X37870582Y-52428147D01*
X37821957Y-52429942D01*
X37758163Y-52431451D01*
X37681669Y-52432616D01*
X37594944Y-52433380D01*
X37500457Y-52433686D01*
X37489550Y-52433689D01*
X37066657Y-52433689D01*
X37063395Y-52337622D01*
X37060133Y-52241556D01*
X36998044Y-52292543D01*
X36900714Y-52360057D01*
X36790813Y-52414749D01*
X36704349Y-52444978D01*
X36635278Y-52459666D01*
X36551925Y-52469659D01*
X36462159Y-52474646D01*
X36373845Y-52474313D01*
X36294851Y-52468351D01*
X36258622Y-52462638D01*
X36118603Y-52424776D01*
X35992178Y-52369932D01*
X35880260Y-52298924D01*
X35783762Y-52212568D01*
X35703600Y-52111679D01*
X35640687Y-51997076D01*
X35596312Y-51870984D01*
X35583978Y-51814401D01*
X35576368Y-51752202D01*
X35572739Y-51677363D01*
X35572245Y-51643467D01*
X35572310Y-51640282D01*
X36332248Y-51640282D01*
X36341541Y-51715333D01*
X36369728Y-51779160D01*
X36418197Y-51834798D01*
X36423254Y-51839211D01*
X36471548Y-51874037D01*
X36523257Y-51896620D01*
X36583989Y-51908540D01*
X36659352Y-51911383D01*
X36677459Y-51910978D01*
X36731278Y-51908325D01*
X36771308Y-51902909D01*
X36806324Y-51892745D01*
X36845103Y-51875850D01*
X36855745Y-51870672D01*
X36916396Y-51834844D01*
X36963215Y-51792212D01*
X36975952Y-51776973D01*
X37020622Y-51720462D01*
X37020622Y-51524586D01*
X37020086Y-51445939D01*
X37018396Y-51387988D01*
X37015428Y-51348875D01*
X37011057Y-51326741D01*
X37006972Y-51320274D01*
X36991047Y-51317111D01*
X36957264Y-51314488D01*
X36910340Y-51312655D01*
X36854993Y-51311857D01*
X36846106Y-51311842D01*
X36725330Y-51317096D01*
X36622660Y-51333263D01*
X36536106Y-51360961D01*
X36463681Y-51400808D01*
X36408751Y-51447758D01*
X36364204Y-51505645D01*
X36339480Y-51568693D01*
X36332248Y-51640282D01*
X35572310Y-51640282D01*
X35574178Y-51549712D01*
X35582522Y-51470812D01*
X35598768Y-51399590D01*
X35624405Y-51328864D01*
X35648401Y-51276493D01*
X35707020Y-51181196D01*
X35785117Y-51093170D01*
X35880315Y-51014017D01*
X35990238Y-50945340D01*
X36112510Y-50888741D01*
X36244755Y-50845821D01*
X36309422Y-50830882D01*
X36445604Y-50808777D01*
X36594049Y-50794194D01*
X36745505Y-50787813D01*
X36872064Y-50789445D01*
X37033950Y-50796224D01*
X37026530Y-50737245D01*
X37007238Y-50638092D01*
X36976104Y-50557372D01*
X36932269Y-50494466D01*
X36874871Y-50448756D01*
X36803048Y-50419622D01*
X36715941Y-50406447D01*
X36612686Y-50408611D01*
X36574711Y-50412612D01*
X36433520Y-50437780D01*
X36296707Y-50478814D01*
X36202178Y-50516815D01*
X36157018Y-50536190D01*
X36118585Y-50551760D01*
X36092234Y-50561405D01*
X36084546Y-50563452D01*
X36074802Y-50554374D01*
X36058083Y-50525405D01*
X36034232Y-50476217D01*
X36003093Y-50406484D01*
X35964507Y-50315879D01*
X35957910Y-50300089D01*
X35927853Y-50227772D01*
X35900874Y-50162425D01*
X35878136Y-50106906D01*
X35860806Y-50064072D01*
X35850048Y-50036781D01*
X35846941Y-50027942D01*
X35856940Y-50023187D01*
X35883217Y-50017910D01*
X35911489Y-50014231D01*
X35941646Y-50009474D01*
X35989433Y-50000028D01*
X36050612Y-49986820D01*
X36120946Y-49970776D01*
X36196194Y-49952820D01*
X36224755Y-49945797D01*
X36329816Y-49920209D01*
X36417480Y-49900147D01*
X36492068Y-49884969D01*
X36557903Y-49874035D01*
X36619307Y-49866704D01*
X36680602Y-49862335D01*
X36746110Y-49860287D01*
X36804128Y-49859889D01*
X36973574Y-49866552D01*
G36*
X36973574Y-49866552D02*
G01*
X37125492Y-49886567D01*
X37260756Y-49920202D01*
X37380239Y-49967725D01*
X37484815Y-50029405D01*
X37562424Y-50092965D01*
X37631265Y-50167099D01*
X37685006Y-50246871D01*
X37727910Y-50339091D01*
X37743384Y-50382161D01*
X37756244Y-50421142D01*
X37767446Y-50457289D01*
X37777120Y-50492434D01*
X37785396Y-50528410D01*
X37792403Y-50567050D01*
X37798272Y-50610185D01*
X37803131Y-50659649D01*
X37807110Y-50717273D01*
X37810340Y-50784891D01*
X37812949Y-50864334D01*
X37815067Y-50957436D01*
X37816824Y-51066027D01*
X37818349Y-51191942D01*
X37819772Y-51337012D01*
X37821025Y-51479778D01*
X37822351Y-51635968D01*
X37823556Y-51771239D01*
X37824766Y-51887246D01*
X37826106Y-51985645D01*
X37827700Y-52068093D01*
X37829675Y-52136246D01*
X37832156Y-52191760D01*
X37835269Y-52236292D01*
X37839138Y-52271498D01*
X37843889Y-52299034D01*
X37849648Y-52320556D01*
X37856539Y-52337722D01*
X37864689Y-52352186D01*
X37874223Y-52365606D01*
X37885266Y-52379638D01*
X37889566Y-52385071D01*
X37905386Y-52407910D01*
X37912422Y-52423463D01*
X37912444Y-52423922D01*
X37901567Y-52426121D01*
X37870582Y-52428147D01*
X37821957Y-52429942D01*
X37758163Y-52431451D01*
X37681669Y-52432616D01*
X37594944Y-52433380D01*
X37500457Y-52433686D01*
X37489550Y-52433689D01*
X37066657Y-52433689D01*
X37063395Y-52337622D01*
X37060133Y-52241556D01*
X36998044Y-52292543D01*
X36900714Y-52360057D01*
X36790813Y-52414749D01*
X36704349Y-52444978D01*
X36635278Y-52459666D01*
X36551925Y-52469659D01*
X36462159Y-52474646D01*
X36373845Y-52474313D01*
X36294851Y-52468351D01*
X36258622Y-52462638D01*
X36118603Y-52424776D01*
X35992178Y-52369932D01*
X35880260Y-52298924D01*
X35783762Y-52212568D01*
X35703600Y-52111679D01*
X35640687Y-51997076D01*
X35596312Y-51870984D01*
X35583978Y-51814401D01*
X35576368Y-51752202D01*
X35572739Y-51677363D01*
X35572245Y-51643467D01*
X35572310Y-51640282D01*
X36332248Y-51640282D01*
X36341541Y-51715333D01*
X36369728Y-51779160D01*
X36418197Y-51834798D01*
X36423254Y-51839211D01*
X36471548Y-51874037D01*
X36523257Y-51896620D01*
X36583989Y-51908540D01*
X36659352Y-51911383D01*
X36677459Y-51910978D01*
X36731278Y-51908325D01*
X36771308Y-51902909D01*
X36806324Y-51892745D01*
X36845103Y-51875850D01*
X36855745Y-51870672D01*
X36916396Y-51834844D01*
X36963215Y-51792212D01*
X36975952Y-51776973D01*
X37020622Y-51720462D01*
X37020622Y-51524586D01*
X37020086Y-51445939D01*
X37018396Y-51387988D01*
X37015428Y-51348875D01*
X37011057Y-51326741D01*
X37006972Y-51320274D01*
X36991047Y-51317111D01*
X36957264Y-51314488D01*
X36910340Y-51312655D01*
X36854993Y-51311857D01*
X36846106Y-51311842D01*
X36725330Y-51317096D01*
X36622660Y-51333263D01*
X36536106Y-51360961D01*
X36463681Y-51400808D01*
X36408751Y-51447758D01*
X36364204Y-51505645D01*
X36339480Y-51568693D01*
X36332248Y-51640282D01*
X35572310Y-51640282D01*
X35574178Y-51549712D01*
X35582522Y-51470812D01*
X35598768Y-51399590D01*
X35624405Y-51328864D01*
X35648401Y-51276493D01*
X35707020Y-51181196D01*
X35785117Y-51093170D01*
X35880315Y-51014017D01*
X35990238Y-50945340D01*
X36112510Y-50888741D01*
X36244755Y-50845821D01*
X36309422Y-50830882D01*
X36445604Y-50808777D01*
X36594049Y-50794194D01*
X36745505Y-50787813D01*
X36872064Y-50789445D01*
X37033950Y-50796224D01*
X37026530Y-50737245D01*
X37007238Y-50638092D01*
X36976104Y-50557372D01*
X36932269Y-50494466D01*
X36874871Y-50448756D01*
X36803048Y-50419622D01*
X36715941Y-50406447D01*
X36612686Y-50408611D01*
X36574711Y-50412612D01*
X36433520Y-50437780D01*
X36296707Y-50478814D01*
X36202178Y-50516815D01*
X36157018Y-50536190D01*
X36118585Y-50551760D01*
X36092234Y-50561405D01*
X36084546Y-50563452D01*
X36074802Y-50554374D01*
X36058083Y-50525405D01*
X36034232Y-50476217D01*
X36003093Y-50406484D01*
X35964507Y-50315879D01*
X35957910Y-50300089D01*
X35927853Y-50227772D01*
X35900874Y-50162425D01*
X35878136Y-50106906D01*
X35860806Y-50064072D01*
X35850048Y-50036781D01*
X35846941Y-50027942D01*
X35856940Y-50023187D01*
X35883217Y-50017910D01*
X35911489Y-50014231D01*
X35941646Y-50009474D01*
X35989433Y-50000028D01*
X36050612Y-49986820D01*
X36120946Y-49970776D01*
X36196194Y-49952820D01*
X36224755Y-49945797D01*
X36329816Y-49920209D01*
X36417480Y-49900147D01*
X36492068Y-49884969D01*
X36557903Y-49874035D01*
X36619307Y-49866704D01*
X36680602Y-49862335D01*
X36746110Y-49860287D01*
X36804128Y-49859889D01*
X36973574Y-49866552D01*
G37*
X31353600Y-48489054D02*
X31364465Y-48602993D01*
X31396082Y-48710616D01*
X31446985Y-48809615D01*
X31515707Y-48897684D01*
X31600781Y-48972516D01*
X31697768Y-49030384D01*
X31804036Y-49070005D01*
X31911050Y-49088573D01*
X32016700Y-49087434D01*
X32118875Y-49067930D01*
X32215466Y-49031406D01*
X32304362Y-48979205D01*
X32383454Y-48912673D01*
X32450631Y-48833152D01*
X32503783Y-48741987D01*
X32540801Y-48640523D01*
X32559573Y-48530102D01*
X32561511Y-48480206D01*
X32561511Y-48392267D01*
X32613440Y-48392267D01*
X32649747Y-48395111D01*
X32676645Y-48406911D01*
X32703751Y-48430649D01*
X32742133Y-48469031D01*
X32742133Y-50660602D01*
X32742124Y-50922739D01*
X32742092Y-51163241D01*
X32742028Y-51383048D01*
X32741924Y-51583101D01*
X32741773Y-51764344D01*
X32741566Y-51927716D01*
X32741294Y-52074160D01*
X32740950Y-52204617D01*
X32740526Y-52320029D01*
X32740013Y-52421338D01*
X32739403Y-52509484D01*
X32738688Y-52585410D01*
X32737860Y-52650057D01*
X32736911Y-52704367D01*
X32735833Y-52749280D01*
X32734617Y-52785740D01*
X32733255Y-52814687D01*
X32731739Y-52837063D01*
X32730062Y-52853809D01*
X32728214Y-52865868D01*
X32726187Y-52874180D01*
X32723975Y-52879687D01*
X32722892Y-52881537D01*
X32718729Y-52888549D01*
X32715195Y-52894996D01*
X32711365Y-52900900D01*
X32706318Y-52906286D01*
X32699129Y-52911178D01*
X32688877Y-52915598D01*
X32674636Y-52919572D01*
X32655486Y-52923121D01*
X32630501Y-52926270D01*
X32598760Y-52929042D01*
X32559338Y-52931461D01*
X32511314Y-52933551D01*
X32453763Y-52935335D01*
X32385763Y-52936837D01*
X32306390Y-52938080D01*
X32214721Y-52939089D01*
X32109834Y-52939885D01*
X31990804Y-52940494D01*
X31856710Y-52940939D01*
X31706627Y-52941243D01*
X31539633Y-52941430D01*
X31354804Y-52941524D01*
X31151217Y-52941548D01*
X30927950Y-52941525D01*
X30684078Y-52941480D01*
X30418679Y-52941437D01*
X30380296Y-52941432D01*
X30113318Y-52941389D01*
X29867998Y-52941318D01*
X29643417Y-52941213D01*
X29438655Y-52941066D01*
X29252794Y-52940869D01*
X29084912Y-52940616D01*
X28934092Y-52940300D01*
X28799413Y-52939913D01*
X28679956Y-52939447D01*
X28574801Y-52938897D01*
X28483029Y-52938253D01*
X28403721Y-52937511D01*
X28335957Y-52936661D01*
X28278818Y-52935697D01*
X28231383Y-52934611D01*
X28192734Y-52933397D01*
X28161951Y-52932047D01*
X28138115Y-52930555D01*
X28120306Y-52928911D01*
X28107605Y-52927111D01*
X28099092Y-52925145D01*
X28094734Y-52923477D01*
X28086272Y-52919906D01*
X28078503Y-52917270D01*
X28071398Y-52914634D01*
X28064927Y-52911062D01*
X28059061Y-52905621D01*
X28053771Y-52897375D01*
X28049026Y-52885390D01*
X28044798Y-52868731D01*
X28041057Y-52846463D01*
X28037773Y-52817652D01*
X28034917Y-52781363D01*
X28032460Y-52736661D01*
X28030371Y-52682611D01*
X28028622Y-52618279D01*
X28027183Y-52542730D01*
X28026024Y-52455030D01*
X28025117Y-52354243D01*
X28024431Y-52239434D01*
X28023937Y-52109670D01*
X28023605Y-51964015D01*
X28023407Y-51801535D01*
X28023313Y-51621295D01*
X28023292Y-51422360D01*
X28023315Y-51203796D01*
X28023354Y-50964668D01*
X28023378Y-50704040D01*
X28023378Y-50661889D01*
X28023364Y-50398992D01*
X28023339Y-50157732D01*
X28023329Y-49937165D01*
X28023358Y-49736352D01*
X28023452Y-49554349D01*
X28023638Y-49390216D01*
X28023941Y-49243011D01*
X28024386Y-49111792D01*
X28024966Y-49001867D01*
X28327803Y-49001867D01*
X28367593Y-49059711D01*
X28378764Y-49075479D01*
X28388834Y-49089441D01*
X28397862Y-49102784D01*
X28405903Y-49116693D01*
X28413014Y-49132356D01*
X28419253Y-49150958D01*
X28424675Y-49173686D01*
X28429338Y-49201727D01*
X28433299Y-49236267D01*
X28436615Y-49278492D01*
X28439341Y-49329589D01*
X28441536Y-49390744D01*
X28443255Y-49463144D01*
X28444556Y-49547975D01*
X28445495Y-49646422D01*
X28446130Y-49759674D01*
X28446516Y-49888916D01*
X28446712Y-50035334D01*
X28446773Y-50200116D01*
X28446757Y-50384447D01*
X28446720Y-50589513D01*
X28446711Y-50712133D01*
X28446735Y-50929082D01*
X28446769Y-51124642D01*
X28446757Y-51299999D01*
X28446642Y-51456341D01*
X28446370Y-51594857D01*
X28445882Y-51716734D01*
X28445124Y-51823160D01*
X28444038Y-51915322D01*
X28442569Y-51994409D01*
X28440660Y-52061608D01*
X28438256Y-52118107D01*
X28435299Y-52165093D01*
X28431734Y-52203755D01*
X28427505Y-52235280D01*
X28422554Y-52260855D01*
X28416827Y-52281670D01*
X28410267Y-52298911D01*
X28402817Y-52313765D01*
X28394421Y-52327422D01*
X28385024Y-52341069D01*
X28374568Y-52355893D01*
X28368477Y-52364783D01*
X28329704Y-52422400D01*
X28861268Y-52422400D01*
X28984517Y-52422365D01*
X29087013Y-52422215D01*
X29170580Y-52421878D01*
X29237044Y-52421286D01*
X29288229Y-52420367D01*
X29325959Y-52419051D01*
X29352060Y-52417269D01*
X29368356Y-52414951D01*
X29376672Y-52412026D01*
X29378832Y-52408424D01*
X29376661Y-52404075D01*
X29375465Y-52402645D01*
X29350315Y-52365573D01*
X29324417Y-52312772D01*
X29300808Y-52250770D01*
X29292539Y-52224357D01*
X29287922Y-52206416D01*
X29284021Y-52185355D01*
X29280752Y-52159089D01*
X29278034Y-52125532D01*
X29275785Y-52082599D01*
X29273923Y-52028204D01*
X29272364Y-51960262D01*
X29271028Y-51876688D01*
X29269831Y-51775395D01*
X29268692Y-51654300D01*
X29268315Y-51609600D01*
X29267298Y-51484449D01*
X29266540Y-51380082D01*
X29266097Y-51294707D01*
X29266030Y-51226533D01*
X29266395Y-51173765D01*
X29267252Y-51134614D01*
X29268659Y-51107285D01*
X29270675Y-51089986D01*
X29273357Y-51080926D01*
X29276764Y-51078312D01*
X29280956Y-51080351D01*
X29285429Y-51084667D01*
X29295784Y-51097602D01*
X29317842Y-51126676D01*
X29350043Y-51169759D01*
X29390826Y-51224718D01*
X29438630Y-51289423D01*
X29491895Y-51361742D01*
X29549060Y-51439544D01*
X29608563Y-51520698D01*
X29668845Y-51603072D01*
X29728345Y-51684536D01*
X29785502Y-51762957D01*
X29838755Y-51836204D01*
X29886543Y-51902147D01*
X29927307Y-51958654D01*
X29959484Y-52003593D01*
X29981515Y-52034834D01*
X29986083Y-52041466D01*
X30009004Y-52078369D01*
X30035812Y-52126359D01*
X30061211Y-52175897D01*
X30064432Y-52182577D01*
X30086110Y-52230772D01*
X30098696Y-52268334D01*
X30104426Y-52304160D01*
X30105544Y-52346200D01*
X30104910Y-52422400D01*
X31259349Y-52422400D01*
X31168185Y-52328669D01*
X31121388Y-52278775D01*
X31071101Y-52222295D01*
X31025056Y-52168026D01*
X31004631Y-52142673D01*
X30974193Y-52103128D01*
X30934138Y-52049916D01*
X30885639Y-51984667D01*
X30829865Y-51909011D01*
X30767989Y-51824577D01*
X30701181Y-51732994D01*
X30630613Y-51635892D01*
X30557455Y-51534901D01*
X30482879Y-51431650D01*
X30408056Y-51327768D01*
X30334157Y-51224885D01*
X30262354Y-51124631D01*
X30193816Y-51028636D01*
X30129716Y-50938527D01*
X30071225Y-50855936D01*
X30019514Y-50782492D01*
X29975753Y-50719824D01*
X29941115Y-50669561D01*
X29916770Y-50633334D01*
X29903889Y-50612771D01*
X29902131Y-50608668D01*
X29910090Y-50597342D01*
X29930885Y-50570162D01*
X29963153Y-50528829D01*
X30005530Y-50475044D01*
X30056653Y-50410506D01*
X30115159Y-50336918D01*
X30179686Y-50255978D01*
X30248869Y-50169388D01*
X30321347Y-50078848D01*
X30395754Y-49986060D01*
X30455483Y-49911702D01*
X31466489Y-49911702D01*
X31472398Y-49924659D01*
X31486728Y-49946908D01*
X31487775Y-49948391D01*
X31506562Y-49978544D01*
X31526209Y-50015375D01*
X31530108Y-50023511D01*
X31533644Y-50031940D01*
X31536770Y-50042059D01*
X31539514Y-50055260D01*
X31541908Y-50072938D01*
X31543981Y-50096484D01*
X31545765Y-50127293D01*
X31547288Y-50166757D01*
X31548581Y-50216269D01*
X31549674Y-50277223D01*
X31550597Y-50351011D01*
X31551381Y-50439028D01*
X31552055Y-50542665D01*
X31552650Y-50663316D01*
X31553195Y-50802374D01*
X31553721Y-50961232D01*
X31554255Y-51140089D01*
X31554794Y-51325207D01*
X31555228Y-51489145D01*
X31555491Y-51633303D01*
X31555516Y-51759079D01*
X31555235Y-51867871D01*
X31554581Y-51961077D01*
X31553486Y-52040097D01*
X31551882Y-52106328D01*
X31549703Y-52161170D01*
X31546881Y-52206021D01*
X31543349Y-52242278D01*
X31539039Y-52271341D01*
X31533883Y-52294609D01*
X31527815Y-52313479D01*
X31520767Y-52329351D01*
X31512671Y-52343622D01*
X31503460Y-52357691D01*
X31494960Y-52370158D01*
X31477824Y-52396452D01*
X31467678Y-52414037D01*
X31466489Y-52417257D01*
X31477396Y-52418334D01*
X31508589Y-52419335D01*
X31557777Y-52420235D01*
X31622667Y-52421010D01*
X31700970Y-52421637D01*
X31790393Y-52422091D01*
X31888644Y-52422349D01*
X31957555Y-52422400D01*
X32062548Y-52422180D01*
X32159390Y-52421548D01*
X32245893Y-52420549D01*
X32319868Y-52419227D01*
X32379126Y-52417626D01*
X32421480Y-52415791D01*
X32444740Y-52413765D01*
X32448622Y-52412493D01*
X32440924Y-52397591D01*
X32432926Y-52389560D01*
X32419754Y-52372434D01*
X32402515Y-52342183D01*
X32390593Y-52317622D01*
X32363955Y-52258711D01*
X32360880Y-51081845D01*
X32357805Y-49904978D01*
X31912147Y-49904978D01*
X31814330Y-49905142D01*
X31723936Y-49905611D01*
X31643370Y-49906347D01*
X31575038Y-49907316D01*
X31521344Y-49908480D01*
X31484695Y-49909803D01*
X31467496Y-49911249D01*
X31466489Y-49911702D01*
X30455483Y-49911702D01*
X30470730Y-49892722D01*
X30544910Y-49800537D01*
X30616931Y-49711204D01*
X30685431Y-49626424D01*
X30749045Y-49547898D01*
X30806412Y-49477326D01*
X30856167Y-49416409D01*
X30896948Y-49366847D01*
X30914112Y-49346178D01*
X31000404Y-49245516D01*
X31077003Y-49162259D01*
X31145817Y-49094438D01*
X31208752Y-49040089D01*
X31218133Y-49032722D01*
X31257644Y-49002117D01*
X30125884Y-49001867D01*
X30131173Y-49049844D01*
X30127870Y-49107188D01*
X30106339Y-49175463D01*
X30066365Y-49255212D01*
X30021057Y-49327495D01*
X30004839Y-49350140D01*
X29976786Y-49387696D01*
X29938570Y-49438021D01*
X29891863Y-49498973D01*
X29838339Y-49568411D01*
X29779669Y-49644194D01*
X29717525Y-49724180D01*
X29653579Y-49806228D01*
X29589505Y-49888196D01*
X29526973Y-49967943D01*
X29467657Y-50043327D01*
X29413229Y-50112207D01*
X29365361Y-50172442D01*
X29325725Y-50221889D01*
X29295994Y-50258408D01*
X29277839Y-50279858D01*
X29274780Y-50283156D01*
X29271921Y-50275149D01*
X29269707Y-50244855D01*
X29268143Y-50192556D01*
X29267233Y-50118531D01*
X29266980Y-50023063D01*
X29267387Y-49906434D01*
X29268296Y-49786445D01*
X29269618Y-49654333D01*
X29271143Y-49542594D01*
X29273119Y-49449025D01*
X29275794Y-49371419D01*
X29279418Y-49307574D01*
X29284239Y-49255283D01*
X29290506Y-49212344D01*
X29298468Y-49176551D01*
X29308373Y-49145700D01*
X29320469Y-49117586D01*
X29335007Y-49090005D01*
X29349689Y-49064966D01*
X29387686Y-49001867D01*
X28327803Y-49001867D01*
X28024966Y-49001867D01*
X28024999Y-48995617D01*
X28025805Y-48893544D01*
X28026830Y-48804633D01*
X28028100Y-48727941D01*
X28029640Y-48662527D01*
X28031476Y-48607449D01*
X28033633Y-48561765D01*
X28036137Y-48524534D01*
X28039013Y-48494813D01*
X28042287Y-48471662D01*
X28045985Y-48454139D01*
X28050131Y-48441301D01*
X28054753Y-48432208D01*
X28059874Y-48425918D01*
X28065522Y-48421488D01*
X28071721Y-48417978D01*
X28078496Y-48414445D01*
X28084492Y-48410876D01*
X28089725Y-48408300D01*
X28097901Y-48405972D01*
X28110114Y-48403878D01*
X28127459Y-48402007D01*
X28151031Y-48400347D01*
X28181923Y-48398884D01*
X28221232Y-48397608D01*
X28270050Y-48396504D01*
X28329473Y-48395561D01*
X28400596Y-48394767D01*
X28484512Y-48394109D01*
X28582317Y-48393575D01*
X28695106Y-48393153D01*
X28823971Y-48392829D01*
X28970009Y-48392592D01*
X29134314Y-48392430D01*
X29317980Y-48392330D01*
X29522103Y-48392280D01*
X29733247Y-48392267D01*
X31353600Y-48392267D01*
X31353600Y-48489054D01*
G36*
X31353600Y-48489054D02*
G01*
X31364465Y-48602993D01*
X31396082Y-48710616D01*
X31446985Y-48809615D01*
X31515707Y-48897684D01*
X31600781Y-48972516D01*
X31697768Y-49030384D01*
X31804036Y-49070005D01*
X31911050Y-49088573D01*
X32016700Y-49087434D01*
X32118875Y-49067930D01*
X32215466Y-49031406D01*
X32304362Y-48979205D01*
X32383454Y-48912673D01*
X32450631Y-48833152D01*
X32503783Y-48741987D01*
X32540801Y-48640523D01*
X32559573Y-48530102D01*
X32561511Y-48480206D01*
X32561511Y-48392267D01*
X32613440Y-48392267D01*
X32649747Y-48395111D01*
X32676645Y-48406911D01*
X32703751Y-48430649D01*
X32742133Y-48469031D01*
X32742133Y-50660602D01*
X32742124Y-50922739D01*
X32742092Y-51163241D01*
X32742028Y-51383048D01*
X32741924Y-51583101D01*
X32741773Y-51764344D01*
X32741566Y-51927716D01*
X32741294Y-52074160D01*
X32740950Y-52204617D01*
X32740526Y-52320029D01*
X32740013Y-52421338D01*
X32739403Y-52509484D01*
X32738688Y-52585410D01*
X32737860Y-52650057D01*
X32736911Y-52704367D01*
X32735833Y-52749280D01*
X32734617Y-52785740D01*
X32733255Y-52814687D01*
X32731739Y-52837063D01*
X32730062Y-52853809D01*
X32728214Y-52865868D01*
X32726187Y-52874180D01*
X32723975Y-52879687D01*
X32722892Y-52881537D01*
X32718729Y-52888549D01*
X32715195Y-52894996D01*
X32711365Y-52900900D01*
X32706318Y-52906286D01*
X32699129Y-52911178D01*
X32688877Y-52915598D01*
X32674636Y-52919572D01*
X32655486Y-52923121D01*
X32630501Y-52926270D01*
X32598760Y-52929042D01*
X32559338Y-52931461D01*
X32511314Y-52933551D01*
X32453763Y-52935335D01*
X32385763Y-52936837D01*
X32306390Y-52938080D01*
X32214721Y-52939089D01*
X32109834Y-52939885D01*
X31990804Y-52940494D01*
X31856710Y-52940939D01*
X31706627Y-52941243D01*
X31539633Y-52941430D01*
X31354804Y-52941524D01*
X31151217Y-52941548D01*
X30927950Y-52941525D01*
X30684078Y-52941480D01*
X30418679Y-52941437D01*
X30380296Y-52941432D01*
X30113318Y-52941389D01*
X29867998Y-52941318D01*
X29643417Y-52941213D01*
X29438655Y-52941066D01*
X29252794Y-52940869D01*
X29084912Y-52940616D01*
X28934092Y-52940300D01*
X28799413Y-52939913D01*
X28679956Y-52939447D01*
X28574801Y-52938897D01*
X28483029Y-52938253D01*
X28403721Y-52937511D01*
X28335957Y-52936661D01*
X28278818Y-52935697D01*
X28231383Y-52934611D01*
X28192734Y-52933397D01*
X28161951Y-52932047D01*
X28138115Y-52930555D01*
X28120306Y-52928911D01*
X28107605Y-52927111D01*
X28099092Y-52925145D01*
X28094734Y-52923477D01*
X28086272Y-52919906D01*
X28078503Y-52917270D01*
X28071398Y-52914634D01*
X28064927Y-52911062D01*
X28059061Y-52905621D01*
X28053771Y-52897375D01*
X28049026Y-52885390D01*
X28044798Y-52868731D01*
X28041057Y-52846463D01*
X28037773Y-52817652D01*
X28034917Y-52781363D01*
X28032460Y-52736661D01*
X28030371Y-52682611D01*
X28028622Y-52618279D01*
X28027183Y-52542730D01*
X28026024Y-52455030D01*
X28025117Y-52354243D01*
X28024431Y-52239434D01*
X28023937Y-52109670D01*
X28023605Y-51964015D01*
X28023407Y-51801535D01*
X28023313Y-51621295D01*
X28023292Y-51422360D01*
X28023315Y-51203796D01*
X28023354Y-50964668D01*
X28023378Y-50704040D01*
X28023378Y-50661889D01*
X28023364Y-50398992D01*
X28023339Y-50157732D01*
X28023329Y-49937165D01*
X28023358Y-49736352D01*
X28023452Y-49554349D01*
X28023638Y-49390216D01*
X28023941Y-49243011D01*
X28024386Y-49111792D01*
X28024966Y-49001867D01*
X28327803Y-49001867D01*
X28367593Y-49059711D01*
X28378764Y-49075479D01*
X28388834Y-49089441D01*
X28397862Y-49102784D01*
X28405903Y-49116693D01*
X28413014Y-49132356D01*
X28419253Y-49150958D01*
X28424675Y-49173686D01*
X28429338Y-49201727D01*
X28433299Y-49236267D01*
X28436615Y-49278492D01*
X28439341Y-49329589D01*
X28441536Y-49390744D01*
X28443255Y-49463144D01*
X28444556Y-49547975D01*
X28445495Y-49646422D01*
X28446130Y-49759674D01*
X28446516Y-49888916D01*
X28446712Y-50035334D01*
X28446773Y-50200116D01*
X28446757Y-50384447D01*
X28446720Y-50589513D01*
X28446711Y-50712133D01*
X28446735Y-50929082D01*
X28446769Y-51124642D01*
X28446757Y-51299999D01*
X28446642Y-51456341D01*
X28446370Y-51594857D01*
X28445882Y-51716734D01*
X28445124Y-51823160D01*
X28444038Y-51915322D01*
X28442569Y-51994409D01*
X28440660Y-52061608D01*
X28438256Y-52118107D01*
X28435299Y-52165093D01*
X28431734Y-52203755D01*
X28427505Y-52235280D01*
X28422554Y-52260855D01*
X28416827Y-52281670D01*
X28410267Y-52298911D01*
X28402817Y-52313765D01*
X28394421Y-52327422D01*
X28385024Y-52341069D01*
X28374568Y-52355893D01*
X28368477Y-52364783D01*
X28329704Y-52422400D01*
X28861268Y-52422400D01*
X28984517Y-52422365D01*
X29087013Y-52422215D01*
X29170580Y-52421878D01*
X29237044Y-52421286D01*
X29288229Y-52420367D01*
X29325959Y-52419051D01*
X29352060Y-52417269D01*
X29368356Y-52414951D01*
X29376672Y-52412026D01*
X29378832Y-52408424D01*
X29376661Y-52404075D01*
X29375465Y-52402645D01*
X29350315Y-52365573D01*
X29324417Y-52312772D01*
X29300808Y-52250770D01*
X29292539Y-52224357D01*
X29287922Y-52206416D01*
X29284021Y-52185355D01*
X29280752Y-52159089D01*
X29278034Y-52125532D01*
X29275785Y-52082599D01*
X29273923Y-52028204D01*
X29272364Y-51960262D01*
X29271028Y-51876688D01*
X29269831Y-51775395D01*
X29268692Y-51654300D01*
X29268315Y-51609600D01*
X29267298Y-51484449D01*
X29266540Y-51380082D01*
X29266097Y-51294707D01*
X29266030Y-51226533D01*
X29266395Y-51173765D01*
X29267252Y-51134614D01*
X29268659Y-51107285D01*
X29270675Y-51089986D01*
X29273357Y-51080926D01*
X29276764Y-51078312D01*
X29280956Y-51080351D01*
X29285429Y-51084667D01*
X29295784Y-51097602D01*
X29317842Y-51126676D01*
X29350043Y-51169759D01*
X29390826Y-51224718D01*
X29438630Y-51289423D01*
X29491895Y-51361742D01*
X29549060Y-51439544D01*
X29608563Y-51520698D01*
X29668845Y-51603072D01*
X29728345Y-51684536D01*
X29785502Y-51762957D01*
X29838755Y-51836204D01*
X29886543Y-51902147D01*
X29927307Y-51958654D01*
X29959484Y-52003593D01*
X29981515Y-52034834D01*
X29986083Y-52041466D01*
X30009004Y-52078369D01*
X30035812Y-52126359D01*
X30061211Y-52175897D01*
X30064432Y-52182577D01*
X30086110Y-52230772D01*
X30098696Y-52268334D01*
X30104426Y-52304160D01*
X30105544Y-52346200D01*
X30104910Y-52422400D01*
X31259349Y-52422400D01*
X31168185Y-52328669D01*
X31121388Y-52278775D01*
X31071101Y-52222295D01*
X31025056Y-52168026D01*
X31004631Y-52142673D01*
X30974193Y-52103128D01*
X30934138Y-52049916D01*
X30885639Y-51984667D01*
X30829865Y-51909011D01*
X30767989Y-51824577D01*
X30701181Y-51732994D01*
X30630613Y-51635892D01*
X30557455Y-51534901D01*
X30482879Y-51431650D01*
X30408056Y-51327768D01*
X30334157Y-51224885D01*
X30262354Y-51124631D01*
X30193816Y-51028636D01*
X30129716Y-50938527D01*
X30071225Y-50855936D01*
X30019514Y-50782492D01*
X29975753Y-50719824D01*
X29941115Y-50669561D01*
X29916770Y-50633334D01*
X29903889Y-50612771D01*
X29902131Y-50608668D01*
X29910090Y-50597342D01*
X29930885Y-50570162D01*
X29963153Y-50528829D01*
X30005530Y-50475044D01*
X30056653Y-50410506D01*
X30115159Y-50336918D01*
X30179686Y-50255978D01*
X30248869Y-50169388D01*
X30321347Y-50078848D01*
X30395754Y-49986060D01*
X30455483Y-49911702D01*
X31466489Y-49911702D01*
X31472398Y-49924659D01*
X31486728Y-49946908D01*
X31487775Y-49948391D01*
X31506562Y-49978544D01*
X31526209Y-50015375D01*
X31530108Y-50023511D01*
X31533644Y-50031940D01*
X31536770Y-50042059D01*
X31539514Y-50055260D01*
X31541908Y-50072938D01*
X31543981Y-50096484D01*
X31545765Y-50127293D01*
X31547288Y-50166757D01*
X31548581Y-50216269D01*
X31549674Y-50277223D01*
X31550597Y-50351011D01*
X31551381Y-50439028D01*
X31552055Y-50542665D01*
X31552650Y-50663316D01*
X31553195Y-50802374D01*
X31553721Y-50961232D01*
X31554255Y-51140089D01*
X31554794Y-51325207D01*
X31555228Y-51489145D01*
X31555491Y-51633303D01*
X31555516Y-51759079D01*
X31555235Y-51867871D01*
X31554581Y-51961077D01*
X31553486Y-52040097D01*
X31551882Y-52106328D01*
X31549703Y-52161170D01*
X31546881Y-52206021D01*
X31543349Y-52242278D01*
X31539039Y-52271341D01*
X31533883Y-52294609D01*
X31527815Y-52313479D01*
X31520767Y-52329351D01*
X31512671Y-52343622D01*
X31503460Y-52357691D01*
X31494960Y-52370158D01*
X31477824Y-52396452D01*
X31467678Y-52414037D01*
X31466489Y-52417257D01*
X31477396Y-52418334D01*
X31508589Y-52419335D01*
X31557777Y-52420235D01*
X31622667Y-52421010D01*
X31700970Y-52421637D01*
X31790393Y-52422091D01*
X31888644Y-52422349D01*
X31957555Y-52422400D01*
X32062548Y-52422180D01*
X32159390Y-52421548D01*
X32245893Y-52420549D01*
X32319868Y-52419227D01*
X32379126Y-52417626D01*
X32421480Y-52415791D01*
X32444740Y-52413765D01*
X32448622Y-52412493D01*
X32440924Y-52397591D01*
X32432926Y-52389560D01*
X32419754Y-52372434D01*
X32402515Y-52342183D01*
X32390593Y-52317622D01*
X32363955Y-52258711D01*
X32360880Y-51081845D01*
X32357805Y-49904978D01*
X31912147Y-49904978D01*
X31814330Y-49905142D01*
X31723936Y-49905611D01*
X31643370Y-49906347D01*
X31575038Y-49907316D01*
X31521344Y-49908480D01*
X31484695Y-49909803D01*
X31467496Y-49911249D01*
X31466489Y-49911702D01*
X30455483Y-49911702D01*
X30470730Y-49892722D01*
X30544910Y-49800537D01*
X30616931Y-49711204D01*
X30685431Y-49626424D01*
X30749045Y-49547898D01*
X30806412Y-49477326D01*
X30856167Y-49416409D01*
X30896948Y-49366847D01*
X30914112Y-49346178D01*
X31000404Y-49245516D01*
X31077003Y-49162259D01*
X31145817Y-49094438D01*
X31208752Y-49040089D01*
X31218133Y-49032722D01*
X31257644Y-49002117D01*
X30125884Y-49001867D01*
X30131173Y-49049844D01*
X30127870Y-49107188D01*
X30106339Y-49175463D01*
X30066365Y-49255212D01*
X30021057Y-49327495D01*
X30004839Y-49350140D01*
X29976786Y-49387696D01*
X29938570Y-49438021D01*
X29891863Y-49498973D01*
X29838339Y-49568411D01*
X29779669Y-49644194D01*
X29717525Y-49724180D01*
X29653579Y-49806228D01*
X29589505Y-49888196D01*
X29526973Y-49967943D01*
X29467657Y-50043327D01*
X29413229Y-50112207D01*
X29365361Y-50172442D01*
X29325725Y-50221889D01*
X29295994Y-50258408D01*
X29277839Y-50279858D01*
X29274780Y-50283156D01*
X29271921Y-50275149D01*
X29269707Y-50244855D01*
X29268143Y-50192556D01*
X29267233Y-50118531D01*
X29266980Y-50023063D01*
X29267387Y-49906434D01*
X29268296Y-49786445D01*
X29269618Y-49654333D01*
X29271143Y-49542594D01*
X29273119Y-49449025D01*
X29275794Y-49371419D01*
X29279418Y-49307574D01*
X29284239Y-49255283D01*
X29290506Y-49212344D01*
X29298468Y-49176551D01*
X29308373Y-49145700D01*
X29320469Y-49117586D01*
X29335007Y-49090005D01*
X29349689Y-49064966D01*
X29387686Y-49001867D01*
X28327803Y-49001867D01*
X28024966Y-49001867D01*
X28024999Y-48995617D01*
X28025805Y-48893544D01*
X28026830Y-48804633D01*
X28028100Y-48727941D01*
X28029640Y-48662527D01*
X28031476Y-48607449D01*
X28033633Y-48561765D01*
X28036137Y-48524534D01*
X28039013Y-48494813D01*
X28042287Y-48471662D01*
X28045985Y-48454139D01*
X28050131Y-48441301D01*
X28054753Y-48432208D01*
X28059874Y-48425918D01*
X28065522Y-48421488D01*
X28071721Y-48417978D01*
X28078496Y-48414445D01*
X28084492Y-48410876D01*
X28089725Y-48408300D01*
X28097901Y-48405972D01*
X28110114Y-48403878D01*
X28127459Y-48402007D01*
X28151031Y-48400347D01*
X28181923Y-48398884D01*
X28221232Y-48397608D01*
X28270050Y-48396504D01*
X28329473Y-48395561D01*
X28400596Y-48394767D01*
X28484512Y-48394109D01*
X28582317Y-48393575D01*
X28695106Y-48393153D01*
X28823971Y-48392829D01*
X28970009Y-48392592D01*
X29134314Y-48392430D01*
X29317980Y-48392330D01*
X29522103Y-48392280D01*
X29733247Y-48392267D01*
X31353600Y-48392267D01*
X31353600Y-48489054D01*
G37*
D14*
%TO.C,J6*%
X24640000Y-15160000D02*
X24640000Y-29500000D01*
X24640000Y-15160000D02*
X44940000Y-15160000D01*
X44940000Y-15160000D02*
X44940000Y-29505000D01*
X44940000Y-29505000D02*
X24640000Y-29500000D01*
%TO.C,J1*%
X24840000Y-89410000D02*
X24840000Y-92060000D01*
X24840000Y-89410000D02*
X45060000Y-89410000D01*
X24840000Y-92060000D02*
X27190000Y-92060000D01*
X27190000Y-92060000D02*
X27190000Y-93450000D01*
X42750000Y-92060000D02*
X42750000Y-93450000D01*
X45060000Y-89410000D02*
X45060000Y-92060000D01*
X45060000Y-92060000D02*
X42710000Y-92060000D01*
%TD*%
M02*
