%TF.GenerationSoftware,KiCad,Pcbnew,7.0.5-0*%
%TF.CreationDate,2023-06-11T17:07:23+09:00*%
%TF.ProjectId,pointingstick,706f696e-7469-46e6-9773-7469636b2e6b,rev?*%
%TF.SameCoordinates,Original*%
%TF.FileFunction,Copper,L1,Top*%
%TF.FilePolarity,Positive*%
%FSLAX46Y46*%
G04 Gerber Fmt 4.6, Leading zero omitted, Abs format (unit mm)*
G04 Created by KiCad (PCBNEW 7.0.5-0) date 2023-06-11 17:07:23*
%MOMM*%
%LPD*%
G01*
G04 APERTURE LIST*
G04 Aperture macros list*
%AMRoundRect*
0 Rectangle with rounded corners*
0 $1 Rounding radius*
0 $2 $3 $4 $5 $6 $7 $8 $9 X,Y pos of 4 corners*
0 Add a 4 corners polygon primitive as box body*
4,1,4,$2,$3,$4,$5,$6,$7,$8,$9,$2,$3,0*
0 Add four circle primitives for the rounded corners*
1,1,$1+$1,$2,$3*
1,1,$1+$1,$4,$5*
1,1,$1+$1,$6,$7*
1,1,$1+$1,$8,$9*
0 Add four rect primitives between the rounded corners*
20,1,$1+$1,$2,$3,$4,$5,0*
20,1,$1+$1,$4,$5,$6,$7,0*
20,1,$1+$1,$6,$7,$8,$9,0*
20,1,$1+$1,$8,$9,$2,$3,0*%
G04 Aperture macros list end*
%TA.AperFunction,ComponentPad*%
%ADD10R,1.700000X1.700000*%
%TD*%
%TA.AperFunction,ComponentPad*%
%ADD11O,1.700000X1.700000*%
%TD*%
%TA.AperFunction,SMDPad,CuDef*%
%ADD12RoundRect,0.225000X1.225000X-0.225000X1.225000X0.225000X-1.225000X0.225000X-1.225000X-0.225000X0*%
%TD*%
%TA.AperFunction,ComponentPad*%
%ADD13RoundRect,0.381000X-0.762000X-0.381000X0.762000X-0.381000X0.762000X0.381000X-0.762000X0.381000X0*%
%TD*%
%TA.AperFunction,ComponentPad*%
%ADD14C,2.286000*%
%TD*%
%TA.AperFunction,SMDPad,CuDef*%
%ADD15RoundRect,0.225000X-0.225000X-1.225000X0.225000X-1.225000X0.225000X1.225000X-0.225000X1.225000X0*%
%TD*%
%TA.AperFunction,ComponentPad*%
%ADD16R,1.350000X1.350000*%
%TD*%
%TA.AperFunction,ComponentPad*%
%ADD17O,1.350000X1.350000*%
%TD*%
%TA.AperFunction,ComponentPad*%
%ADD18RoundRect,0.249600X-0.850400X0.350400X-0.850400X-0.350400X0.850400X-0.350400X0.850400X0.350400X0*%
%TD*%
%TA.AperFunction,ViaPad*%
%ADD19C,0.800000*%
%TD*%
%TA.AperFunction,Conductor*%
%ADD20C,0.250000*%
%TD*%
G04 APERTURE END LIST*
D10*
%TO.P,J7,1,Pin_1*%
%TO.N,GND*%
X32300000Y-78500000D03*
D11*
%TO.P,J7,2,Pin_2*%
%TO.N,D+*%
X32300000Y-81040000D03*
%TO.P,J7,3,Pin_3*%
%TO.N,D-*%
X32300000Y-83580000D03*
%TO.P,J7,4,Pin_4*%
%TO.N,VCC*%
X32300000Y-86120000D03*
%TD*%
D10*
%TO.P,J5,1,Pin_1*%
%TO.N,GND*%
X20600000Y-35680000D03*
D11*
%TO.P,J5,2,Pin_2*%
%TO.N,D+*%
X20600000Y-38220000D03*
%TO.P,J5,3,Pin_3*%
%TO.N,D-*%
X20600000Y-40760000D03*
%TO.P,J5,4,Pin_4*%
%TO.N,VCC*%
X20600000Y-43300000D03*
%TD*%
D12*
%TO.P,J2,1,Pin_1*%
%TO.N,Net-(J1-Pin_8)*%
X46600000Y-45300000D03*
%TO.P,J2,2,Pin_2*%
%TO.N,Net-(J1-Pin_7)*%
X46600000Y-43514286D03*
%TO.P,J2,3,Pin_3*%
%TO.N,Net-(J1-Pin_6)*%
X46600000Y-41728572D03*
%TO.P,J2,4,Pin_4*%
%TO.N,Net-(J1-Pin_5)*%
X46600000Y-39942858D03*
%TO.P,J2,5,Pin_5*%
%TO.N,Net-(J1-Pin_4)*%
X46600000Y-38157144D03*
%TO.P,J2,6,Pin_6*%
%TO.N,Net-(J1-Pin_3)*%
X46600000Y-36371430D03*
%TO.P,J2,7,Pin_7*%
%TO.N,Net-(J1-Pin_2)*%
X46600000Y-34585716D03*
%TO.P,J2,8,Pin_8*%
%TO.N,Net-(J1-Pin_1)*%
X46600000Y-32800000D03*
%TD*%
D13*
%TO.P,J6,1*%
%TO.N,N/C*%
X27160000Y-17440000D03*
%TO.P,J6,2*%
X27160000Y-19980000D03*
%TO.P,J6,3*%
X42400000Y-17440000D03*
%TO.P,J6,4*%
X42400000Y-19980000D03*
D14*
%TO.P,J6,A1,GND*%
%TO.N,GND*%
X34780000Y-27600000D03*
%TO.P,J6,A4,VBUS*%
%TO.N,VCC*%
X27160000Y-27600000D03*
%TO.P,J6,A5,CC1*%
%TO.N,unconnected-(J6-CC1-PadA5)*%
X37320000Y-27600000D03*
%TO.P,J6,A6,D+*%
%TO.N,D+*%
X32240000Y-27600000D03*
%TO.P,J6,A7,D-*%
%TO.N,D-*%
X29700000Y-27600000D03*
%TO.P,J6,B5,CC2*%
%TO.N,unconnected-(J6-CC2-PadB5)*%
X39860000Y-27600000D03*
%TO.P,J6,GND*%
%TO.N,N/C*%
X42400000Y-27600000D03*
%TD*%
D15*
%TO.P,J1,1,Pin_1*%
%TO.N,Net-(J1-Pin_1)*%
X28200000Y-92000000D03*
%TO.P,J1,2,Pin_2*%
%TO.N,Net-(J1-Pin_2)*%
X29985714Y-92000000D03*
%TO.P,J1,3,Pin_3*%
%TO.N,Net-(J1-Pin_3)*%
X31771428Y-92000000D03*
%TO.P,J1,4,Pin_4*%
%TO.N,Net-(J1-Pin_4)*%
X33557142Y-92000000D03*
%TO.P,J1,5,Pin_5*%
%TO.N,Net-(J1-Pin_5)*%
X35342856Y-92000000D03*
%TO.P,J1,6,Pin_6*%
%TO.N,Net-(J1-Pin_6)*%
X37128570Y-92000000D03*
%TO.P,J1,7,Pin_7*%
%TO.N,Net-(J1-Pin_7)*%
X38914284Y-92000000D03*
%TO.P,J1,8,Pin_8*%
%TO.N,Net-(J1-Pin_8)*%
X40700000Y-92000000D03*
%TD*%
D16*
%TO.P,J4,1,Pin_1*%
%TO.N,GND*%
X27750000Y-33150000D03*
D17*
%TO.P,J4,2,Pin_2*%
%TO.N,D+*%
X27750000Y-35150000D03*
%TO.P,J4,3,Pin_3*%
%TO.N,D-*%
X27750000Y-37150000D03*
%TO.P,J4,4,Pin_4*%
%TO.N,VCC*%
X27750000Y-39150000D03*
%TD*%
D18*
%TO.P,J3,MP*%
%TO.N,N/C*%
X22800000Y-59300000D03*
X22800000Y-64900000D03*
%TD*%
D19*
%TO.N,Net-(J1-Pin_3)*%
X32268400Y-88608900D03*
X48860600Y-38756100D03*
%TO.N,Net-(J1-Pin_5)*%
X48475400Y-40774400D03*
X43704100Y-73082600D03*
%TO.N,D-*%
X24288400Y-57871600D03*
%TD*%
D20*
%TO.N,Net-(J1-Pin_1)*%
X21009000Y-39490000D02*
X24288200Y-36210800D01*
X28200000Y-92000000D02*
X19419400Y-83219400D01*
X26540700Y-26110900D02*
X42993800Y-26110900D01*
X24288200Y-28363400D02*
X26540700Y-26110900D01*
X20117800Y-39490000D02*
X21009000Y-39490000D01*
X42993800Y-26110900D02*
X46600000Y-29717100D01*
X24288200Y-36210800D02*
X24288200Y-28363400D01*
X19419400Y-40188400D02*
X20117800Y-39490000D01*
X19419400Y-83219400D02*
X19419400Y-40188400D01*
X46600000Y-29717100D02*
X46600000Y-32800000D01*
%TO.N,Net-(J1-Pin_2)*%
X29985700Y-92505900D02*
X29985700Y-92000000D01*
X40523800Y-22944100D02*
X27905300Y-22944100D01*
X18967500Y-85005700D02*
X27749100Y-93787300D01*
X48393900Y-30814200D02*
X40523800Y-22944100D01*
X47149900Y-34585700D02*
X48393900Y-33341700D01*
X28704300Y-93787300D02*
X29985700Y-92505900D01*
X48393900Y-33341700D02*
X48393900Y-30814200D01*
X46600000Y-34585700D02*
X47149900Y-34585700D01*
X27749100Y-93787300D02*
X28704300Y-93787300D01*
X27905300Y-22944100D02*
X18967500Y-31881900D01*
X18967500Y-31881900D02*
X18967500Y-85005700D01*
%TO.N,Net-(J1-Pin_3)*%
X32268400Y-88608900D02*
X31771400Y-89105900D01*
X48860600Y-38126100D02*
X48860600Y-38756100D01*
X31771400Y-89105900D02*
X31771400Y-92000000D01*
X47105900Y-36371400D02*
X48860600Y-38126100D01*
X46600000Y-36371400D02*
X47105900Y-36371400D01*
%TO.N,Net-(J1-Pin_4)*%
X41328600Y-94257400D02*
X49795200Y-85790800D01*
X49795200Y-85790800D02*
X49795200Y-40846500D01*
X33557100Y-92000000D02*
X33557100Y-92504100D01*
X49795200Y-40846500D02*
X47105800Y-38157100D01*
X35310400Y-94257400D02*
X41328600Y-94257400D01*
X33557100Y-92504100D02*
X35310400Y-94257400D01*
X47105800Y-38157100D02*
X46600000Y-38157100D01*
%TO.N,Net-(J1-Pin_5)*%
X46600000Y-39942900D02*
X47643900Y-39942900D01*
X43704100Y-73082600D02*
X35342900Y-81443800D01*
X47643900Y-39942900D02*
X48475400Y-40774400D01*
X35342900Y-81443800D02*
X35342900Y-92000000D01*
%TO.N,Net-(J1-Pin_6)*%
X49284700Y-85653600D02*
X41146700Y-93791600D01*
X46600000Y-41728600D02*
X47101700Y-41728600D01*
X38431300Y-93791600D02*
X37128600Y-92488900D01*
X41146700Y-93791600D02*
X38431300Y-93791600D01*
X37128600Y-92488900D02*
X37128600Y-92000000D01*
X49284700Y-43911600D02*
X49284700Y-85653600D01*
X47101700Y-41728600D02*
X49284700Y-43911600D01*
%TO.N,Net-(J1-Pin_7)*%
X44646600Y-73708300D02*
X44646600Y-44994500D01*
X38914300Y-79440600D02*
X44646600Y-73708300D01*
X46126800Y-43514300D02*
X46600000Y-43514300D01*
X38914300Y-92000000D02*
X38914300Y-79440600D01*
X44646600Y-44994500D02*
X46126800Y-43514300D01*
%TO.N,Net-(J1-Pin_8)*%
X46343300Y-45556700D02*
X46343300Y-56888200D01*
X46600000Y-45300000D02*
X46343300Y-45556700D01*
X47828600Y-84871400D02*
X40700000Y-92000000D01*
X46343300Y-56888200D02*
X47828600Y-58373500D01*
X47828600Y-58373500D02*
X47828600Y-84871400D01*
%TO.N,D+*%
X32240000Y-27600000D02*
X32240000Y-30660000D01*
X32240000Y-30660000D02*
X27750000Y-35150000D01*
%TO.N,D-*%
X24288400Y-74757300D02*
X24288400Y-57871600D01*
X20967800Y-41936900D02*
X24288400Y-45257500D01*
X20600000Y-41936900D02*
X20967800Y-41936900D01*
X32300000Y-82403100D02*
X31934200Y-82403100D01*
X32300000Y-83580000D02*
X32300000Y-82403100D01*
X31934200Y-82403100D02*
X24288400Y-74757300D01*
X20600000Y-40760000D02*
X20600000Y-41936900D01*
X24288400Y-45257500D02*
X24288400Y-57871600D01*
%TO.N,VCC*%
X26748100Y-38148100D02*
X26748100Y-28011900D01*
X27750000Y-39150000D02*
X26748100Y-38148100D01*
X26748100Y-28011900D02*
X27160000Y-27600000D01*
%TD*%
M02*
