%TF.GenerationSoftware,KiCad,Pcbnew,7.0.5-0*%
%TF.CreationDate,2023-06-11T17:07:23+09:00*%
%TF.ProjectId,pointingstick,706f696e-7469-46e6-9773-7469636b2e6b,rev?*%
%TF.SameCoordinates,Original*%
%TF.FileFunction,Copper,L2,Bot*%
%TF.FilePolarity,Positive*%
%FSLAX46Y46*%
G04 Gerber Fmt 4.6, Leading zero omitted, Abs format (unit mm)*
G04 Created by KiCad (PCBNEW 7.0.5-0) date 2023-06-11 17:07:23*
%MOMM*%
%LPD*%
G01*
G04 APERTURE LIST*
G04 Aperture macros list*
%AMRoundRect*
0 Rectangle with rounded corners*
0 $1 Rounding radius*
0 $2 $3 $4 $5 $6 $7 $8 $9 X,Y pos of 4 corners*
0 Add a 4 corners polygon primitive as box body*
4,1,4,$2,$3,$4,$5,$6,$7,$8,$9,$2,$3,0*
0 Add four circle primitives for the rounded corners*
1,1,$1+$1,$2,$3*
1,1,$1+$1,$4,$5*
1,1,$1+$1,$6,$7*
1,1,$1+$1,$8,$9*
0 Add four rect primitives between the rounded corners*
20,1,$1+$1,$2,$3,$4,$5,0*
20,1,$1+$1,$4,$5,$6,$7,0*
20,1,$1+$1,$6,$7,$8,$9,0*
20,1,$1+$1,$8,$9,$2,$3,0*%
G04 Aperture macros list end*
%TA.AperFunction,ComponentPad*%
%ADD10R,1.700000X1.700000*%
%TD*%
%TA.AperFunction,ComponentPad*%
%ADD11O,1.700000X1.700000*%
%TD*%
%TA.AperFunction,ComponentPad*%
%ADD12RoundRect,0.381000X-0.762000X-0.381000X0.762000X-0.381000X0.762000X0.381000X-0.762000X0.381000X0*%
%TD*%
%TA.AperFunction,ComponentPad*%
%ADD13C,2.286000*%
%TD*%
%TA.AperFunction,ComponentPad*%
%ADD14R,1.350000X1.350000*%
%TD*%
%TA.AperFunction,ComponentPad*%
%ADD15O,1.350000X1.350000*%
%TD*%
%TA.AperFunction,SMDPad,CuDef*%
%ADD16RoundRect,0.150000X-0.650000X0.150000X-0.650000X-0.150000X0.650000X-0.150000X0.650000X0.150000X0*%
%TD*%
%TA.AperFunction,ComponentPad*%
%ADD17RoundRect,0.249600X-0.850400X0.350400X-0.850400X-0.350400X0.850400X-0.350400X0.850400X0.350400X0*%
%TD*%
%TA.AperFunction,ViaPad*%
%ADD18C,0.800000*%
%TD*%
%TA.AperFunction,Conductor*%
%ADD19C,0.250000*%
%TD*%
G04 APERTURE END LIST*
D10*
%TO.P,J7,1,Pin_1*%
%TO.N,GND*%
X32300000Y-78500000D03*
D11*
%TO.P,J7,2,Pin_2*%
%TO.N,D+*%
X32300000Y-81040000D03*
%TO.P,J7,3,Pin_3*%
%TO.N,D-*%
X32300000Y-83580000D03*
%TO.P,J7,4,Pin_4*%
%TO.N,VCC*%
X32300000Y-86120000D03*
%TD*%
D10*
%TO.P,J5,1,Pin_1*%
%TO.N,GND*%
X20600000Y-35680000D03*
D11*
%TO.P,J5,2,Pin_2*%
%TO.N,D+*%
X20600000Y-38220000D03*
%TO.P,J5,3,Pin_3*%
%TO.N,D-*%
X20600000Y-40760000D03*
%TO.P,J5,4,Pin_4*%
%TO.N,VCC*%
X20600000Y-43300000D03*
%TD*%
D12*
%TO.P,J6,1*%
%TO.N,N/C*%
X27160000Y-17440000D03*
%TO.P,J6,2*%
X27160000Y-19980000D03*
%TO.P,J6,3*%
X42400000Y-17440000D03*
%TO.P,J6,4*%
X42400000Y-19980000D03*
D13*
%TO.P,J6,A1,GND*%
%TO.N,GND*%
X34780000Y-27600000D03*
%TO.P,J6,A4,VBUS*%
%TO.N,VCC*%
X27160000Y-27600000D03*
%TO.P,J6,A5,CC1*%
%TO.N,unconnected-(J6-CC1-PadA5)*%
X37320000Y-27600000D03*
%TO.P,J6,A6,D+*%
%TO.N,D+*%
X32240000Y-27600000D03*
%TO.P,J6,A7,D-*%
%TO.N,D-*%
X29700000Y-27600000D03*
%TO.P,J6,B5,CC2*%
%TO.N,unconnected-(J6-CC2-PadB5)*%
X39860000Y-27600000D03*
%TO.P,J6,GND*%
%TO.N,N/C*%
X42400000Y-27600000D03*
%TD*%
D14*
%TO.P,J4,1,Pin_1*%
%TO.N,GND*%
X27750000Y-33150000D03*
D15*
%TO.P,J4,2,Pin_2*%
%TO.N,D+*%
X27750000Y-35150000D03*
%TO.P,J4,3,Pin_3*%
%TO.N,D-*%
X27750000Y-37150000D03*
%TO.P,J4,4,Pin_4*%
%TO.N,VCC*%
X27750000Y-39150000D03*
%TD*%
D16*
%TO.P,J3,1,Pin_1*%
%TO.N,GND*%
X26100000Y-60600000D03*
%TO.P,J3,2,Pin_2*%
%TO.N,D+*%
X26100000Y-61600000D03*
%TO.P,J3,3,Pin_3*%
%TO.N,D-*%
X26100000Y-62600000D03*
%TO.P,J3,4,Pin_4*%
%TO.N,VCC*%
X26100000Y-63600000D03*
D17*
%TO.P,J3,MP*%
%TO.N,N/C*%
X22800000Y-59300000D03*
X22800000Y-64900000D03*
%TD*%
D18*
%TO.N,Net-(J1-Pin_3)*%
X32268400Y-88608900D03*
X48860600Y-38756100D03*
%TO.N,Net-(J1-Pin_5)*%
X48475400Y-40774400D03*
X43704100Y-73082600D03*
%TO.N,D-*%
X24288400Y-57871600D03*
%TD*%
D19*
%TO.N,Net-(J1-Pin_3)*%
X32268400Y-88608900D02*
X49302900Y-71574400D01*
X49302900Y-71574400D02*
X49302900Y-39198400D01*
X49302900Y-39198400D02*
X48860600Y-38756100D01*
%TO.N,Net-(J1-Pin_5)*%
X44978100Y-44271700D02*
X44978100Y-71808600D01*
X48475400Y-40774400D02*
X44978100Y-44271700D01*
X44978100Y-71808600D02*
X43704100Y-73082600D01*
%TO.N,D+*%
X21330100Y-58690900D02*
X21330100Y-76830400D01*
X33502600Y-86600500D02*
X33502600Y-83053700D01*
X21075100Y-38220000D02*
X21776900Y-38220000D01*
X21075100Y-38220000D02*
X19388200Y-39906900D01*
X32665800Y-82216900D02*
X32300000Y-82216900D01*
X24963100Y-59329400D02*
X24963100Y-60975100D01*
X23760900Y-56260100D02*
X21330100Y-58690900D01*
X19388200Y-51770000D02*
X23760900Y-56142700D01*
X24963100Y-60975100D02*
X25588000Y-61600000D01*
X32300000Y-81040000D02*
X32300000Y-82216900D01*
X23760900Y-56260100D02*
X25015300Y-57514600D01*
X33502600Y-83053700D02*
X32665800Y-82216900D01*
X25015300Y-57514600D02*
X25015300Y-59277200D01*
X21330100Y-76830400D02*
X31802300Y-87302600D01*
X24846900Y-35150000D02*
X27750000Y-35150000D01*
X20600000Y-38220000D02*
X21075100Y-38220000D01*
X31802300Y-87302600D02*
X32800500Y-87302600D01*
X25015300Y-59277200D02*
X24963100Y-59329400D01*
X25588000Y-61600000D02*
X26100000Y-61600000D01*
X21776900Y-38220000D02*
X24846900Y-35150000D01*
X23760900Y-56142700D02*
X23760900Y-56260100D01*
X19388200Y-39906900D02*
X19388200Y-51770000D01*
X32800500Y-87302600D02*
X33502600Y-86600500D01*
%TO.N,D-*%
X21776900Y-40760000D02*
X25386900Y-37150000D01*
X25386900Y-37150000D02*
X27750000Y-37150000D01*
X25596100Y-62600000D02*
X26100000Y-62600000D01*
X24288400Y-57871600D02*
X24288400Y-61292300D01*
X29700000Y-35200000D02*
X29700000Y-27600000D01*
X24288400Y-61292300D02*
X25596100Y-62600000D01*
X27750000Y-37150000D02*
X29700000Y-35200000D01*
X20600000Y-40760000D02*
X21776900Y-40760000D01*
%TO.N,VCC*%
X32300000Y-86120000D02*
X32300000Y-84943100D01*
X25628900Y-78943700D02*
X31628300Y-84943100D01*
X27284500Y-62908500D02*
X26593000Y-63600000D01*
X27284500Y-47986400D02*
X27284500Y-62908500D01*
X31628300Y-84943100D02*
X32300000Y-84943100D01*
X25628900Y-64071100D02*
X25628900Y-78943700D01*
X22598100Y-43300000D02*
X20600000Y-43300000D01*
X26100000Y-63600000D02*
X25628900Y-64071100D01*
X27750000Y-39150000D02*
X26748100Y-39150000D01*
X22598100Y-43300000D02*
X27284500Y-47986400D01*
X26748100Y-39150000D02*
X22598100Y-43300000D01*
X26593000Y-63600000D02*
X26100000Y-63600000D01*
%TD*%
M02*
