%TF.GenerationSoftware,KiCad,Pcbnew,7.0.5-0*%
%TF.CreationDate,2023-06-11T17:07:23+09:00*%
%TF.ProjectId,pointingstick,706f696e-7469-46e6-9773-7469636b2e6b,rev?*%
%TF.SameCoordinates,Original*%
%TF.FileFunction,Soldermask,Top*%
%TF.FilePolarity,Negative*%
%FSLAX46Y46*%
G04 Gerber Fmt 4.6, Leading zero omitted, Abs format (unit mm)*
G04 Created by KiCad (PCBNEW 7.0.5-0) date 2023-06-11 17:07:23*
%MOMM*%
%LPD*%
G01*
G04 APERTURE LIST*
G04 Aperture macros list*
%AMRoundRect*
0 Rectangle with rounded corners*
0 $1 Rounding radius*
0 $2 $3 $4 $5 $6 $7 $8 $9 X,Y pos of 4 corners*
0 Add a 4 corners polygon primitive as box body*
4,1,4,$2,$3,$4,$5,$6,$7,$8,$9,$2,$3,0*
0 Add four circle primitives for the rounded corners*
1,1,$1+$1,$2,$3*
1,1,$1+$1,$4,$5*
1,1,$1+$1,$6,$7*
1,1,$1+$1,$8,$9*
0 Add four rect primitives between the rounded corners*
20,1,$1+$1,$2,$3,$4,$5,0*
20,1,$1+$1,$4,$5,$6,$7,0*
20,1,$1+$1,$6,$7,$8,$9,0*
20,1,$1+$1,$8,$9,$2,$3,0*%
G04 Aperture macros list end*
%ADD10R,1.700000X1.700000*%
%ADD11O,1.700000X1.700000*%
%ADD12RoundRect,0.225000X1.225000X-0.225000X1.225000X0.225000X-1.225000X0.225000X-1.225000X-0.225000X0*%
%ADD13RoundRect,0.381000X-0.762000X-0.381000X0.762000X-0.381000X0.762000X0.381000X-0.762000X0.381000X0*%
%ADD14C,2.286000*%
%ADD15RoundRect,0.225000X-0.225000X-1.225000X0.225000X-1.225000X0.225000X1.225000X-0.225000X1.225000X0*%
%ADD16R,1.350000X1.350000*%
%ADD17O,1.350000X1.350000*%
%ADD18RoundRect,0.249600X-0.850400X0.350400X-0.850400X-0.350400X0.850400X-0.350400X0.850400X0.350400X0*%
G04 APERTURE END LIST*
D10*
%TO.C,J7*%
X32300000Y-78500000D03*
D11*
X32300000Y-81040000D03*
X32300000Y-83580000D03*
X32300000Y-86120000D03*
%TD*%
D10*
%TO.C,J5*%
X20600000Y-35680000D03*
D11*
X20600000Y-38220000D03*
X20600000Y-40760000D03*
X20600000Y-43300000D03*
%TD*%
D12*
%TO.C,J2*%
X46600000Y-45300000D03*
X46600000Y-43514286D03*
X46600000Y-41728572D03*
X46600000Y-39942858D03*
X46600000Y-38157144D03*
X46600000Y-36371430D03*
X46600000Y-34585716D03*
X46600000Y-32800000D03*
%TD*%
D13*
%TO.C,J6*%
X27160000Y-17440000D03*
X27160000Y-19980000D03*
X42400000Y-17440000D03*
X42400000Y-19980000D03*
D14*
X34780000Y-27600000D03*
X27160000Y-27600000D03*
X37320000Y-27600000D03*
X32240000Y-27600000D03*
X29700000Y-27600000D03*
X39860000Y-27600000D03*
X42400000Y-27600000D03*
%TD*%
D15*
%TO.C,J1*%
X28200000Y-92000000D03*
X29985714Y-92000000D03*
X31771428Y-92000000D03*
X33557142Y-92000000D03*
X35342856Y-92000000D03*
X37128570Y-92000000D03*
X38914284Y-92000000D03*
X40700000Y-92000000D03*
%TD*%
D16*
%TO.C,J4*%
X27750000Y-33150000D03*
D17*
X27750000Y-35150000D03*
X27750000Y-37150000D03*
X27750000Y-39150000D03*
%TD*%
D18*
%TO.C,J3*%
X22800000Y-59300000D03*
X22800000Y-64900000D03*
%TD*%
M02*
